<svg width="12" height="17" viewBox="0 0 12 17" fill="none" xmlns="http://www.w3.org/2000/svg">
<path d="M4.01292 9.42883C5.55093 9.42883 7.5566 5.61707 7.73532 2.45208C7.37867 2.36272 6.9551 2.27336 6.59845 2.27336C4.32469 2.27336 3.07641 4.68017 3.07641 7.42197C3.07641 8.69269 3.41102 9.42843 4.01331 9.42843M11.0113 0.490888C10.8334 1.24789 10.722 2.05055 10.6543 2.80834L10.0973 9.60676H11.5018L11.3007 11.8805H7.24443C7.40032 10.387 7.62352 8.82732 7.98018 7.44441H7.89082C6.93187 10.6992 5.21593 12.1033 3.34371 12.1033C1.47148 12.1033 0 10.7432 0 7.75658C0 2.71937 3.03075 0 6.70906 0C7.89042 0 8.93794 0.199977 9.87366 0.490495H11.0105L11.0113 0.490888Z" fill="#0026A5"/>
<path d="M7.26131 14.7954H5.41113V16.9999H7.26131V14.7954Z" fill="#E14C8B"/>
<path d="M5.41109 14.7954H0.214844V16.9999H5.41109V14.7954Z" fill="#0026A5"/>
<path d="M10.4892 14.7954H7.26123V16.9999H10.4892V14.7954Z" fill="#026CFF"/>
<path d="M11.5128 14.7954H10.4893V16.9999H11.5128V14.7954Z" fill="#13E0B9"/>
</svg>
