<svg width="64" height="65" viewBox="0 0 64 65" fill="none" xmlns="http://www.w3.org/2000/svg">
<mask id="mask0_9535_163" style="mask-type:luminance" maskUnits="userSpaceOnUse" x="0" y="0" width="64" height="65">
<path d="M63.9326 0H0V64.4281H63.9326V0Z" fill="white"/>
</mask>
<g mask="url(#mask0_9535_163)">
<path d="M20.5597 43.7385H14.833C6.19601 43.7385 0 38.4483 0 30.7018H30.7929C32.3887 30.7018 33.4214 31.8352 33.4214 33.4413V64.4273C25.7232 64.4273 20.5597 58.1923 20.5597 49.501V43.7385ZM35.7685 28.3401H30.0418C21.4048 28.3401 15.2087 23.1442 15.2087 15.3977H46.0014C47.5973 15.3977 48.724 16.4367 48.724 18.0428V49.0288C41.0258 49.0288 35.7685 42.7938 35.7685 34.1025V28.3401ZM51.0709 13.036H45.3442C36.7071 13.036 30.511 7.7457 30.511 -0.000976562H61.304C62.8999 -0.000976562 63.9325 1.13267 63.9325 2.64428V33.6303C56.2343 33.6303 51.0709 27.3953 51.0709 18.704V13.036Z" fill="#1868DB"/>
</g>
</svg>
