<svg width="24" height="17" viewBox="0 0 24 17" fill="none" xmlns="http://www.w3.org/2000/svg">
<g clip-path="url(#clip0_9284_911)">
<path d="M7.37526 16.98H19.454C20.8672 16.98 22.0128 15.8344 22.0128 14.4212V5.76643C22.0128 5.0146 21.6362 4.32431 20.9832 3.95177L14.6637 0.358154C13.8237 -0.121033 12.7927 -0.11927 11.9543 0.362786L4.79321 4.48044V14.398C4.79321 15.824 5.94924 16.98 7.37526 16.98Z" fill="#158FDA"/>
<path d="M9.76904 15.345C9.83651 14.5677 10.328 13.8913 11.0464 13.587C11.0464 13.587 17.5897 9.91217 20.8339 8.01061C21.838 7.42207 22.0129 6.22888 22.0129 6.22888V14.3937C22.0129 15.8221 20.855 16.9801 19.4266 16.9801H11.5833C10.649 16.9801 9.86583 16.2742 9.76904 15.345Z" fill="url(#paint0_linear_9284_911)"/>
<path d="M20.6313 3.72656L9.3811 9.94412L11.6243 11.3036C12.4568 11.8081 13.6636 12.0811 14.5123 11.6045L20.5011 8.24119C21.3032 7.79074 22.0128 7.04957 22.0128 5.76649C22.0128 4.46321 21.114 4.03306 20.6313 3.72656Z" fill="#01459B"/>
<path d="M13.3754 0.0185629C12.8824 0.0173858 12.3891 0.142039 11.9453 0.392587L2.44629 5.75577L6.04912 7.93924L17.099 1.70993L14.8036 0.399414C14.361 0.146748 13.8684 0.019741 13.3754 0.0185629Z" fill="#26AEE9"/>
<path d="M17.0992 1.70996L6.04932 7.93927L9.66294 10.1293L20.9282 3.91173C20.8388 3.84477 20.7297 3.78268 20.6314 3.7265L17.0992 1.70996Z" fill="#0078D3"/>
<path d="M1.82867 3.08958L10.6852 3.08862C10.8002 3.08861 10.914 3.11131 11.0203 3.15541C11.1265 3.19952 11.2229 3.26416 11.3041 3.34563C11.3853 3.42711 11.4496 3.5238 11.4933 3.63018C11.537 3.73656 11.5593 3.85052 11.5588 3.96553L11.526 12.5881C11.5251 12.8263 11.4298 13.0543 11.2611 13.2224C11.0924 13.3905 10.864 13.4849 10.6258 13.4849L1.86785 13.4859C1.74705 13.4859 1.62743 13.4621 1.51586 13.4157C1.40429 13.3694 1.30297 13.3015 1.21771 13.2159C1.13244 13.1303 1.06491 13.0288 1.019 12.917C0.973087 12.8053 0.949689 12.6856 0.950149 12.5648L0.983039 3.93209C0.983891 3.70836 1.07336 3.49409 1.23185 3.33618C1.39034 3.17828 1.60494 3.0896 1.82867 3.08958Z" fill="url(#paint1_linear_9284_911)"/>
<path d="M3.69671 6.81074C3.9079 6.35352 4.2545 5.96813 4.69202 5.70411C5.17672 5.42333 5.73143 5.27828 6.29508 5.28492C6.81707 5.26542 7.33441 5.38604 7.79059 5.6336C8.21962 5.87367 8.5678 6.22998 8.79287 6.65928C9.03807 7.13238 9.16493 7.65536 9.16311 8.18554C9.18359 8.73926 9.07072 9.29007 8.83353 9.79386C8.61755 10.2458 8.27045 10.6263 7.83513 10.8883C7.73606 10.9458 7.63396 10.9975 7.52938 11.0432C7.14282 11.2121 6.72238 11.2989 6.29624 11.2961C5.76312 11.3172 5.2344 11.1953 4.76776 10.9437C4.33505 10.7033 3.98257 10.3467 3.75239 9.91629C3.50589 9.45011 3.37771 8.93307 3.37858 8.40849C3.35973 7.85945 3.46848 7.31327 3.69671 6.81074ZM4.81793 9.35261C4.9391 9.63753 5.14073 9.88307 5.39942 10.0608C5.66278 10.2339 5.97617 10.3204 6.29374 10.3074C6.63229 10.315 6.96426 10.215 7.23946 10.0224C7.48902 9.83709 7.67739 9.58455 7.78124 9.29608C7.89734 8.97392 7.9517 8.63376 7.94159 8.29256C7.93975 7.94797 7.87793 7.60623 7.75874 7.28188C7.65338 6.98901 7.46296 6.73234 7.21063 6.54303C6.93616 6.35052 6.60194 6.25604 6.26419 6.27549C5.93947 6.27257 5.62207 6.36997 5.35756 6.55374C5.10046 6.74054 4.90318 6.99476 4.78879 7.28665C4.53539 7.9556 4.54595 8.69219 4.81842 9.35354L4.81793 9.35261Z" fill="white"/>
</g>
<defs>
<linearGradient id="paint0_linear_9284_911" x1="13.783" y1="15.0711" x2="22.0129" y2="11.6045" gradientUnits="userSpaceOnUse">
<stop stop-color="#4DE2FB"/>
<stop offset="1" stop-color="#28AEE8"/>
</linearGradient>
<linearGradient id="paint1_linear_9284_911" x1="6.25691" y1="3.0891" x2="6.24683" y2="13.4854" gradientUnits="userSpaceOnUse">
<stop stop-color="#1582D8"/>
<stop offset="1" stop-color="#0A64CC"/>
</linearGradient>
<clipPath id="clip0_9284_911">
<rect width="23.7984" height="16.98" fill="white"/>
</clipPath>
</defs>
</svg>
