<svg width="228" height="228" viewBox="0 0 228 228" fill="none" xmlns="http://www.w3.org/2000/svg">
<g clip-path="url(#clip0_9535_178)">
<mask id="mask0_9535_178" style="mask-type:luminance" maskUnits="userSpaceOnUse" x="0" y="0" width="228" height="228">
<path d="M228 0H0V228H228V0Z" fill="white"/>
</mask>
<g mask="url(#mask0_9535_178)">
<path d="M40.5234 2.84973H187.566C209.564 2.84973 228.089 20.5731 228.089 43.3731V184.716C228.089 206.714 210.366 225.239 187.566 225.239H40.5234C18.4359 225.15 0 207.427 0 184.716V43.2841C0 20.5731 17.7234 2.84973 40.5234 2.84973Z" fill="#B30B00"/>
<path d="M181.866 131.367C171.178 119.967 142.055 124.955 135.019 125.667C125.044 115.692 118.008 104.381 115.158 100.106C118.72 89.4188 121.57 77.3953 121.57 65.995C121.57 55.3075 117.295 44.7091 105.984 44.7091C101.709 44.7091 98.1468 46.8466 96.0093 50.4091C91.0218 58.9591 93.1593 75.9703 100.997 93.6938C96.7218 106.519 89.5968 125.667 81.1359 140.541C69.7359 144.816 44.8874 156.127 42.7499 168.952C42.0374 172.514 43.4624 176.789 46.3124 178.927C49.1624 181.777 52.7249 182.489 56.2874 182.489C71.1609 182.489 86.1234 161.916 96.8109 143.391C105.361 140.541 118.809 136.266 132.347 134.128C147.933 148.378 162.183 150.427 169.308 150.427C179.283 150.427 182.845 146.152 184.181 142.589C186.051 139.205 184.716 134.217 181.866 131.367ZM171.891 138.492C171.178 141.342 167.616 144.192 161.203 142.767C153.366 140.63 146.33 137.067 140.63 132.08C145.617 131.367 157.641 129.942 166.191 131.367C169.041 132.08 172.603 134.217 171.891 138.492ZM102.956 53.2591C103.669 51.8341 105.094 51.1216 106.519 51.1216C110.081 51.1216 110.794 55.3966 110.794 58.9591C110.081 67.5091 108.656 76.6828 105.806 84.5203C100.106 68.9341 100.819 57.5341 102.956 53.2591ZM102.244 133.505C105.806 127.092 110.081 115.069 111.506 110.794C115.069 117.206 121.481 124.331 124.331 127.805C125.044 127.181 112.219 129.942 102.244 133.505ZM78.1077 149.892C68.2218 165.478 58.9593 175.453 53.2593 175.453C52.5468 175.453 51.1218 175.453 50.4093 174.741C49.6968 173.316 48.9843 171.891 49.6968 170.466C50.4093 164.766 61.8093 156.928 78.1077 149.892Z" fill="white"/>
</g>
</g>
<defs>
<clipPath id="clip0_9535_178">
<rect width="228" height="228" fill="white"/>
</clipPath>
</defs>
</svg>
