<svg width="130" height="144" viewBox="0 0 130 144" fill="none" xmlns="http://www.w3.org/2000/svg">
<g clip-path="url(#clip0_9535_133)">
<path d="M54.2504 86.4C78.2195 86.4 97.6501 67.0579 97.6501 43.2C97.6501 19.3421 78.2166 0 54.2504 0C30.2841 0 10.8506 19.3421 10.8506 43.2C10.8506 67.0579 30.2813 86.4 54.2504 86.4Z" fill="url(#paint0_linear_9535_133)"/>
<path d="M54.2504 86.4C78.2195 86.4 97.6501 67.0579 97.6501 43.2C97.6501 19.3421 78.2166 0 54.2504 0C30.2841 0 10.8506 19.3421 10.8506 43.2C10.8506 67.0579 30.2813 86.4 54.2504 86.4Z" fill="url(#paint1_radial_9535_133)" fill-opacity="0.2"/>
<path d="M54.2504 86.4C78.2195 86.4 97.6501 67.0579 97.6501 43.2C97.6501 19.3421 78.2166 0 54.2504 0C30.2841 0 10.8506 19.3421 10.8506 43.2C10.8506 67.0579 30.2813 86.4 54.2504 86.4Z" fill="url(#paint2_radial_9535_133)" fill-opacity="0.31"/>
<path d="M54.2504 86.4C78.2195 86.4 97.6501 67.0579 97.6501 43.2C97.6501 19.3421 78.2166 0 54.2504 0C30.2841 0 10.8506 19.3421 10.8506 43.2C10.8506 67.0579 30.2813 86.4 54.2504 86.4Z" fill="url(#paint3_radial_9535_133)" fill-opacity="0.7"/>
<path d="M93.834 115.2C113.808 115.2 130 99.0835 130 79.1999C130 59.3164 113.808 43.2 93.834 43.2C73.8602 43.2 57.668 59.3164 57.668 79.1999C57.668 99.0835 73.8602 115.2 93.834 115.2Z" fill="url(#paint4_linear_9535_133)"/>
<path d="M93.834 115.2C113.808 115.2 130 99.0835 130 79.1999C130 59.3164 113.808 43.2 93.834 43.2C73.8602 43.2 57.668 59.3164 57.668 79.1999C57.668 99.0835 73.8602 115.2 93.834 115.2Z" fill="url(#paint5_radial_9535_133)" fill-opacity="0.5"/>
<path d="M93.834 115.2C113.808 115.2 130 99.0835 130 79.1999C130 59.3164 113.808 43.2 93.834 43.2C73.8602 43.2 57.668 59.3164 57.668 79.1999C57.668 99.0835 73.8602 115.2 93.834 115.2Z" fill="url(#paint6_radial_9535_133)" fill-opacity="0.7"/>
<path d="M59.6728 144C76.6508 144 90.4135 130.3 90.4135 113.4C90.4135 96.5002 76.6508 82.8 59.6728 82.8C42.6948 82.8 28.9321 96.5002 28.9321 113.4C28.9321 130.3 42.6948 144 59.6728 144Z" fill="url(#paint7_linear_9535_133)"/>
<path d="M59.6728 144C76.6508 144 90.4135 130.3 90.4135 113.4C90.4135 96.5002 76.6508 82.8 59.6728 82.8C42.6948 82.8 28.9321 96.5002 28.9321 113.4C28.9321 130.3 42.6948 144 59.6728 144Z" fill="url(#paint8_linear_9535_133)" fill-opacity="0.32"/>
<path d="M46.1182 68.4H11.7462C5.25896 68.4 0 73.6428 0 80.1101V114.29C0 120.757 5.25896 126 11.7462 126H46.1182C52.6055 126 57.8644 120.757 57.8644 114.29V80.1101C57.8644 73.6428 52.6055 68.4 46.1182 68.4Z" fill="url(#paint9_radial_9535_133)"/>
<path d="M46.1182 68.4H11.7462C5.25896 68.4 0 73.6428 0 80.1101V114.29C0 120.757 5.25896 126 11.7462 126H46.1182C52.6055 126 57.8644 120.757 57.8644 114.29V80.1101C57.8644 73.6428 52.6055 68.4 46.1182 68.4Z" fill="url(#paint10_radial_9535_133)" fill-opacity="0.6"/>
<path d="M16.4668 107.179L22.7415 103.919C23.4492 105.342 24.3708 106.39 25.509 107.064C26.6617 107.738 27.9241 108.075 29.2906 108.075C30.813 108.075 31.9744 107.77 32.7717 107.156C33.5719 106.528 33.9706 105.587 33.9706 104.334C33.9706 103.355 33.5864 102.528 32.8179 101.854C32.0495 101.166 30.6888 100.645 28.7359 100.293C25.015 99.6192 22.3081 98.4413 20.6181 96.7565C18.9426 95.0717 18.1048 92.9751 18.1048 90.4666C18.1048 87.3447 19.2112 84.8506 21.427 82.9815C23.6399 81.1152 26.5635 80.1821 30.1919 80.1821C32.6359 80.1821 34.7881 80.6804 36.6486 81.674C38.509 82.6676 39.9852 84.0932 41.0772 85.945L34.9441 89.09C34.2681 88.0503 33.5372 87.2986 32.7544 86.8407C31.9686 86.3655 30.9864 86.1293 29.8019 86.1293C28.3864 86.1293 27.3117 86.4346 26.5721 87.048C25.8499 87.6615 25.4888 88.4564 25.4888 89.4356C25.4888 90.2765 25.8355 91.0196 26.5259 91.6618C27.2337 92.2896 28.6464 92.8023 30.7697 93.1997C34.3375 93.8736 36.9981 95.0976 38.7488 96.8746C40.5168 98.6343 41.4008 100.861 41.4008 103.556C41.4008 106.831 40.3464 109.426 38.2404 111.338C36.1344 113.25 33.127 114.206 29.2241 114.206C26.3959 114.206 23.8421 113.593 21.5686 112.369C19.3095 111.131 17.6108 109.4 16.4726 107.179H16.4668Z" fill="white"/>
</g>
<defs>
<linearGradient id="paint0_linear_9535_133" x1="26.6297" y1="7.06176" x2="84.214" y2="82.8732" gradientUnits="userSpaceOnUse">
<stop stop-color="#00E3DF"/>
<stop offset="0.41" stop-color="#0097A8"/>
<stop offset="1" stop-color="#007791"/>
</linearGradient>
<radialGradient id="paint1_radial_9535_133" cx="0" cy="0" r="1" gradientTransform="matrix(-25.4857 -61.3993 -110.904 45.6135 69.0194 99.6746)" gradientUnits="userSpaceOnUse">
<stop offset="0.29" stop-color="#003B5D"/>
<stop offset="0.61" stop-color="#004A6C" stop-opacity="0.69"/>
<stop offset="0.97" stop-color="#006F94" stop-opacity="0"/>
</radialGradient>
<radialGradient id="paint2_radial_9535_133" cx="0" cy="0" r="1" gradientTransform="matrix(-21.1558 -51.9663 -93.7515 37.8162 62.9314 74.5199)" gradientUnits="userSpaceOnUse">
<stop offset="0.26" stop-color="#002A42"/>
<stop offset="0.61" stop-color="#004261" stop-opacity="0.69"/>
<stop offset="0.97" stop-color="#006F94" stop-opacity="0"/>
</radialGradient>
<radialGradient id="paint3_radial_9535_133" cx="0" cy="0" r="1" gradientTransform="matrix(-26.6586 38.6836 38.8617 26.5373 79.6864 8.05097)" gradientUnits="userSpaceOnUse">
<stop stop-color="#78EDFF"/>
<stop offset="1" stop-color="#2CCFCA" stop-opacity="0"/>
</radialGradient>
<linearGradient id="paint4_linear_9535_133" x1="70.8182" y1="49.0838" x2="118.806" y2="112.261" gradientUnits="userSpaceOnUse">
<stop stop-color="#00E3DF"/>
<stop offset="0.48" stop-color="#00A2B8"/>
<stop offset="0.95" stop-color="#00637C"/>
</linearGradient>
<radialGradient id="paint5_radial_9535_133" cx="0" cy="0" r="1" gradientTransform="matrix(14.7179 -42.0631 -76.1384 -26.3948 71.094 105.436)" gradientUnits="userSpaceOnUse">
<stop stop-color="#003B5D"/>
<stop offset="0.49" stop-color="#004C6C" stop-opacity="0.72"/>
<stop offset="0.97" stop-color="#007A86" stop-opacity="0"/>
</radialGradient>
<radialGradient id="paint6_radial_9535_133" cx="0" cy="0" r="1" gradientTransform="matrix(-22.2153 32.236 32.3837 22.1136 113.57 49.2035)" gradientUnits="userSpaceOnUse">
<stop stop-color="#78EDFF"/>
<stop offset="1" stop-color="#2CCFCA" stop-opacity="0"/>
</radialGradient>
<linearGradient id="paint7_linear_9535_133" x1="44.3212" y1="82.7914" x2="74.8761" y2="144.084" gradientUnits="userSpaceOnUse">
<stop offset="0.05" stop-color="#75FFF6"/>
<stop offset="0.51" stop-color="#00C7D1"/>
<stop offset="0.96" stop-color="#0096AD"/>
</linearGradient>
<linearGradient id="paint8_linear_9535_133" x1="84.4826" y1="148.11" x2="68.1378" y2="125.103" gradientUnits="userSpaceOnUse">
<stop offset="0.26" stop-color="#0E5A5D"/>
<stop offset="0.54" stop-color="#126C6B" stop-opacity="0.69"/>
<stop offset="0.97" stop-color="#1C948A" stop-opacity="0"/>
</linearGradient>
<radialGradient id="paint9_radial_9535_133" cx="0" cy="0" r="1" gradientTransform="matrix(57.9506 57.6917 57.9608 -57.6817 8.76807 70.4855)" gradientUnits="userSpaceOnUse">
<stop offset="0.06" stop-color="#00B6BD"/>
<stop offset="0.89" stop-color="#00495C"/>
</radialGradient>
<radialGradient id="paint10_radial_9535_133" cx="0" cy="0" r="1" gradientUnits="userSpaceOnUse" gradientTransform="translate(28.1274 103.333) rotate(90) scale(40.3808 46.1812)">
<stop offset="0.57" stop-color="#1E8581" stop-opacity="0"/>
<stop offset="0.97" stop-color="#1ECBE6"/>
</radialGradient>
<clipPath id="clip0_9535_133">
<rect width="130" height="144" fill="white"/>
</clipPath>
</defs>
</svg>
