<svg width="228" height="229" viewBox="0 0 228 229" fill="none" xmlns="http://www.w3.org/2000/svg">
<g clip-path="url(#clip0_9535_164)">
<path fill-rule="evenodd" clip-rule="evenodd" d="M83.5946 0C70.991 0.00933741 60.7908 10.2618 60.8002 22.8953C60.7908 35.5288 71.0003 45.7813 83.6039 45.7907H106.408V22.9047C106.417 10.2712 96.2074 0.0186748 83.5946 0C83.6039 0 83.6039 0 83.5946 0ZM83.5946 61.0667H22.8033C10.1997 61.076 -0.00977807 71.3285 -0.000462824 83.962C-0.0190933 96.5955 10.1904 106.848 22.7939 106.867H83.5946C96.1981 106.857 106.408 96.6048 106.398 83.9713C106.408 71.3285 96.1981 61.076 83.5946 61.0667Z" fill="#36C5F0"/>
<path fill-rule="evenodd" clip-rule="evenodd" d="M228 83.962C228.009 71.3285 217.8 61.076 205.196 61.0667C192.593 61.076 182.383 71.3285 182.392 83.962V106.867H205.196C217.8 106.857 228.009 96.6048 228 83.962ZM167.199 83.962V22.8953C167.209 10.2712 157.008 0.0186748 144.405 0C131.801 0.00933741 121.592 10.2618 121.601 22.8953V83.962C121.582 96.5955 131.792 106.848 144.396 106.867C156.999 106.857 167.209 96.6048 167.199 83.962Z" fill="#2EB67D"/>
<path fill-rule="evenodd" clip-rule="evenodd" d="M144.396 229C156.999 228.991 167.209 218.738 167.199 206.105C167.209 193.471 156.999 183.219 144.396 183.209H121.592V206.105C121.582 218.729 131.792 228.981 144.396 229ZM144.396 167.924H205.196C217.8 167.915 228.009 157.662 228 145.029C228.019 132.395 217.809 122.143 205.205 122.124H144.405C131.801 122.133 121.592 132.386 121.601 145.019C121.592 157.662 131.792 167.915 144.396 167.924Z" fill="#ECB22E"/>
<path fill-rule="evenodd" clip-rule="evenodd" d="M6.36942e-06 145.029C-0.00930888 157.662 10.2002 167.915 22.8037 167.924C35.4073 167.915 45.6168 157.662 45.6075 145.029V122.133H22.8037C10.2002 122.143 -0.00930888 132.395 6.36942e-06 145.029ZM60.8006 145.029V206.095C60.782 218.729 70.9915 228.981 83.595 229C96.1986 228.991 106.408 218.738 106.399 206.105V145.047C106.417 132.414 96.2079 122.161 83.6043 122.143C70.9915 122.143 60.7913 132.395 60.8006 145.029Z" fill="#E01E5A"/>
</g>
<defs>
<clipPath id="clip0_9535_164">
<rect width="228" height="229" fill="white"/>
</clipPath>
</defs>
</svg>
