<svg width="17" height="17" viewBox="0 0 17 17" fill="none" xmlns="http://www.w3.org/2000/svg">
<g clip-path="url(#clip0_9283_827)">
<path d="M8.04126 7.14771H13.4021C14.8824 7.14771 16.0825 8.34777 16.0825 9.82812V14.2955C16.0825 15.7758 14.8824 16.9759 13.4021 16.9759C11.9217 16.9759 10.7217 15.7758 10.7217 14.2955V9.82812C10.7217 8.34777 9.52161 7.14771 8.04126 7.14771Z" fill="url(#paint0_radial_9283_827)"/>
<path d="M1.78687 8.93481C1.78687 7.45446 2.98694 6.25439 4.46729 6.25439H8.04118C9.52153 6.25439 10.7216 7.45446 10.7216 8.93481V14.2956C10.7216 15.776 11.9217 16.9761 13.402 16.9761L6.25419 16.976C3.78696 16.976 1.78687 14.9759 1.78687 12.5087V8.93481Z" fill="url(#paint1_radial_9283_827)"/>
<path d="M1.78687 8.93481C1.78687 7.45446 2.98694 6.25439 4.46729 6.25439H8.04118C9.52153 6.25439 10.7216 7.45446 10.7216 8.93481V14.2956C10.7216 15.776 11.9217 16.9761 13.402 16.9761L6.25419 16.976C3.78696 16.976 1.78687 14.9759 1.78687 12.5087V8.93481Z" fill="url(#paint2_linear_9283_827)" fill-opacity="0.7"/>
<path d="M1.78687 8.93481C1.78687 7.45446 2.98694 6.25439 4.46729 6.25439H8.04118C9.52153 6.25439 10.7216 7.45446 10.7216 8.93481V14.2956C10.7216 15.776 11.9217 16.9761 13.402 16.9761L6.25419 16.976C3.78696 16.976 1.78687 14.9759 1.78687 12.5087V8.93481Z" fill="url(#paint3_radial_9283_827)" fill-opacity="0.7"/>
<path d="M12.9554 6.25422C14.189 6.25422 15.189 5.25416 15.189 4.02054C15.189 2.78693 14.189 1.78687 12.9554 1.78687C11.7217 1.78687 10.7217 2.78693 10.7217 4.02054C10.7217 5.25416 11.7217 6.25422 12.9554 6.25422Z" fill="url(#paint4_radial_9283_827)"/>
<path d="M12.9554 6.25422C14.189 6.25422 15.189 5.25416 15.189 4.02054C15.189 2.78693 14.189 1.78687 12.9554 1.78687C11.7217 1.78687 10.7217 2.78693 10.7217 4.02054C10.7217 5.25416 11.7217 6.25422 12.9554 6.25422Z" fill="url(#paint5_radial_9283_827)" fill-opacity="0.46"/>
<path d="M12.9554 6.25422C14.189 6.25422 15.189 5.25416 15.189 4.02054C15.189 2.78693 14.189 1.78687 12.9554 1.78687C11.7217 1.78687 10.7217 2.78693 10.7217 4.02054C10.7217 5.25416 11.7217 6.25422 12.9554 6.25422Z" fill="url(#paint6_radial_9283_827)" fill-opacity="0.4"/>
<path d="M6.25415 5.36083C7.73449 5.36083 8.93456 4.16076 8.93456 2.68042C8.93456 1.20006 7.73449 0 6.25415 0C4.7738 0 3.57373 1.20006 3.57373 2.68042C3.57373 4.16076 4.7738 5.36083 6.25415 5.36083Z" fill="url(#paint7_radial_9283_827)"/>
<path d="M6.25415 5.36083C7.73449 5.36083 8.93456 4.16076 8.93456 2.68042C8.93456 1.20006 7.73449 0 6.25415 0C4.7738 0 3.57373 1.20006 3.57373 2.68042C3.57373 4.16076 4.7738 5.36083 6.25415 5.36083Z" fill="url(#paint8_radial_9283_827)" fill-opacity="0.6"/>
<path d="M6.25415 5.36083C7.73449 5.36083 8.93456 4.16076 8.93456 2.68042C8.93456 1.20006 7.73449 0 6.25415 0C4.7738 0 3.57373 1.20006 3.57373 2.68042C3.57373 4.16076 4.7738 5.36083 6.25415 5.36083Z" fill="url(#paint9_radial_9283_827)" fill-opacity="0.5"/>
<path d="M5.69588 8.48779H1.45189C0.650034 8.48779 0 9.13783 0 9.93968V14.1837C0 14.9855 0.650034 15.6356 1.45189 15.6356H5.69588C6.49774 15.6356 7.14777 14.9855 7.14777 14.1837V9.93968C7.14777 9.13783 6.49774 8.48779 5.69588 8.48779Z" fill="url(#paint10_radial_9283_827)"/>
<path d="M5.69588 8.48779H1.45189C0.650034 8.48779 0 9.13783 0 9.93968V14.1837C0 14.9855 0.650034 15.6356 1.45189 15.6356H5.69588C6.49774 15.6356 7.14777 14.9855 7.14777 14.1837V9.93968C7.14777 9.13783 6.49774 8.48779 5.69588 8.48779Z" fill="url(#paint11_radial_9283_827)" fill-opacity="0.7"/>
<path d="M5.12815 10.7689H4.03494V14.1042H3.11252V10.7689H2.01929V10.0198H5.12815V10.7689Z" fill="white"/>
</g>
<defs>
<radialGradient id="paint0_radial_9283_827" cx="0" cy="0" r="1" gradientUnits="userSpaceOnUse" gradientTransform="translate(15.9917 8.11886) scale(6.02129 14.8626)">
<stop stop-color="#A98AFF"/>
<stop offset="0.14" stop-color="#8C75FF"/>
<stop offset="0.565" stop-color="#5F50E2"/>
<stop offset="0.9" stop-color="#3C2CB8"/>
</radialGradient>
<radialGradient id="paint1_radial_9283_827" cx="0" cy="0" r="1" gradientUnits="userSpaceOnUse" gradientTransform="translate(2.14984 5.53962) rotate(68.1539) scale(14.6315 14.7973)">
<stop stop-color="#85C2FF"/>
<stop offset="0.69" stop-color="#7588FF"/>
<stop offset="1" stop-color="#6459FE"/>
</radialGradient>
<linearGradient id="paint2_linear_9283_827" x1="7.41293" y1="6.25439" x2="7.41293" y2="16.9761" gradientUnits="userSpaceOnUse">
<stop offset="0.801159" stop-color="#6864F6" stop-opacity="0"/>
<stop offset="1" stop-color="#5149DE"/>
</linearGradient>
<radialGradient id="paint3_radial_9283_827" cx="0" cy="0" r="1" gradientUnits="userSpaceOnUse" gradientTransform="translate(10.4982 5.89701) rotate(113.326) scale(8.58564 6.89193)">
<stop stop-color="#BD96FF"/>
<stop offset="0.686685" stop-color="#BD96FF" stop-opacity="0"/>
</radialGradient>
<radialGradient id="paint4_radial_9283_827" cx="0" cy="0" r="1" gradientUnits="userSpaceOnUse" gradientTransform="translate(12.9554 3.38234) rotate(-90) scale(4.46736 5.63852)">
<stop offset="0.268201" stop-color="#6868F7"/>
<stop offset="1" stop-color="#3923B1"/>
</radialGradient>
<radialGradient id="paint5_radial_9283_827" cx="0" cy="0" r="1" gradientUnits="userSpaceOnUse" gradientTransform="translate(11.1093 2.92336) rotate(40.0516) scale(3.1925 4.6176)">
<stop offset="0.270711" stop-color="#A1D3FF"/>
<stop offset="0.813393" stop-color="#A1D3FF" stop-opacity="0"/>
</radialGradient>
<radialGradient id="paint6_radial_9283_827" cx="0" cy="0" r="1" gradientUnits="userSpaceOnUse" gradientTransform="translate(14.7344 2.845) rotate(-41.6581) scale(3.80295 9.32892)">
<stop stop-color="#E3ACFD"/>
<stop offset="0.816041" stop-color="#9FA2FF" stop-opacity="0"/>
</radialGradient>
<radialGradient id="paint7_radial_9283_827" cx="0" cy="0" r="1" gradientUnits="userSpaceOnUse" gradientTransform="translate(6.25415 1.91458) rotate(-90) scale(5.36083 6.76626)">
<stop offset="0.268201" stop-color="#8282FF"/>
<stop offset="1" stop-color="#3923B1"/>
</radialGradient>
<radialGradient id="paint8_radial_9283_827" cx="0" cy="0" r="1" gradientUnits="userSpaceOnUse" gradientTransform="translate(4.03887 1.36381) rotate(40.0516) scale(3.831 5.54109)">
<stop offset="0.270711" stop-color="#A1D3FF"/>
<stop offset="0.813393" stop-color="#A1D3FF" stop-opacity="0"/>
</radialGradient>
<radialGradient id="paint9_radial_9283_827" cx="0" cy="0" r="1" gradientUnits="userSpaceOnUse" gradientTransform="translate(8.38896 1.26976) rotate(-41.6581) scale(4.56354 11.1947)">
<stop stop-color="#E3ACFD"/>
<stop offset="0.816041" stop-color="#9FA2FF" stop-opacity="0"/>
</radialGradient>
<radialGradient id="paint10_radial_9283_827" cx="0" cy="0" r="1" gradientUnits="userSpaceOnUse" gradientTransform="translate(0 8.48779) rotate(45) scale(10.1085)">
<stop offset="0.046875" stop-color="#688EFF"/>
<stop offset="0.946875" stop-color="#230F94"/>
</radialGradient>
<radialGradient id="paint11_radial_9283_827" cx="0" cy="0" r="1" gradientUnits="userSpaceOnUse" gradientTransform="translate(3.57389 12.7765) rotate(90) scale(5.00344 5.83893)">
<stop offset="0.570647" stop-color="#6965F6" stop-opacity="0"/>
<stop offset="1" stop-color="#8F8FFF"/>
</radialGradient>
<clipPath id="clip0_9283_827">
<rect width="16.0825" height="16.976" fill="white"/>
</clipPath>
</defs>
</svg>
