<svg width="127" height="131" viewBox="0 0 127 131" fill="none" xmlns="http://www.w3.org/2000/svg">
<g clip-path="url(#clip0_9535_122)">
<path d="M18.1433 98.5775L68.9433 36.3892L127 76.8V118.264C127 125.299 121.314 131 114.3 131H39.9136C27.8904 131 18.1433 121.225 18.1433 109.168V98.5775Z" fill="url(#paint0_radial_9535_122)"/>
<path d="M18.1433 54.724C18.1433 45.6797 25.455 38.349 34.473 38.349H108.454L127 29.1108V74.5967C127 81.6314 121.314 87.3325 114.3 87.3325H39.9136C27.8904 87.3325 18.1433 97.1077 18.1433 109.165V54.7213V54.724Z" fill="url(#paint1_linear_9535_122)"/>
<path d="M18.1433 54.724C18.1433 45.6797 25.455 38.349 34.473 38.349H108.454L127 29.1108V74.5967C127 81.6314 121.314 87.3325 114.3 87.3325H39.9136C27.8904 87.3325 18.1433 97.1077 18.1433 109.165V54.7213V54.724Z" fill="url(#paint2_radial_9535_122)" fill-opacity="0.6"/>
<path d="M18.1433 54.724C18.1433 45.6797 25.455 38.349 34.473 38.349H108.454L127 29.1108V74.5967C127 81.6314 121.314 87.3325 114.3 87.3325H39.9136C27.8904 87.3325 18.1433 97.1077 18.1433 109.165V54.7213V54.724Z" fill="url(#paint3_radial_9535_122)" fill-opacity="0.1"/>
<path d="M18.1433 21.8325C18.1433 9.77522 27.8904 0 39.9136 0H114.3C121.314 0 127 5.70112 127 12.7358V30.9291C127 37.9638 121.314 43.6649 114.3 43.6649H39.9136C27.8904 43.6649 18.1433 53.4401 18.1433 65.4974V21.8325Z" fill="url(#paint4_linear_9535_122)"/>
<path d="M18.1433 21.8325C18.1433 9.77522 27.8904 0 39.9136 0H114.3C121.314 0 127 5.70112 127 12.7358V30.9291C127 37.9638 121.314 43.6649 114.3 43.6649H39.9136C27.8904 43.6649 18.1433 53.4401 18.1433 65.4974V21.8325Z" fill="url(#paint5_radial_9535_122)" fill-opacity="0.8"/>
<path d="M46.2635 61.8608H11.7932C5.28001 61.8608 0 67.1546 0 73.6849V108.258C0 114.789 5.28001 120.082 11.7932 120.082H46.2635C52.7768 120.082 58.0568 114.789 58.0568 108.258V73.6849C58.0568 67.1546 52.7768 61.8608 46.2635 61.8608Z" fill="url(#paint6_radial_9535_122)"/>
<path d="M46.2635 61.8608H11.7932C5.28001 61.8608 0 67.1546 0 73.6849V108.258C0 114.789 5.28001 120.082 11.7932 120.082H46.2635C52.7768 120.082 58.0568 114.789 58.0568 108.258V73.6849C58.0568 67.1546 52.7768 61.8608 46.2635 61.8608Z" fill="url(#paint7_radial_9535_122)" fill-opacity="0.65"/>
<path d="M48.9342 74.3373L41.7898 107.603L33.2473 107.609L29.0297 87.6469L24.6134 107.609H15.99L9.12256 74.3425H16.165L20.401 96.2955L24.6108 74.3425H33.2447L37.6531 96.2955L41.7872 74.3425L48.9316 74.3373H48.9342Z" fill="white"/>
</g>
<defs>
<radialGradient id="paint0_radial_9535_122" cx="0" cy="0" r="1" gradientUnits="userSpaceOnUse" gradientTransform="translate(124.288 130.866) scale(172.628 73.3295)">
<stop offset="0.18" stop-color="#1657F4"/>
<stop offset="0.57" stop-color="#0036C4"/>
</radialGradient>
<linearGradient id="paint1_linear_9535_122" x1="18.1433" y1="69.1392" x2="101.509" y2="69.1392" gradientUnits="userSpaceOnUse">
<stop stop-color="#66C0FF"/>
<stop offset="0.26" stop-color="#0094F0"/>
</linearGradient>
<radialGradient id="paint2_radial_9535_122" cx="0" cy="0" r="1" gradientTransform="matrix(-73.4103 77.4522 190.219 181.314 126.814 31.8315)" gradientUnits="userSpaceOnUse">
<stop offset="0.14" stop-color="#D471FF"/>
<stop offset="0.83" stop-color="#509DF5" stop-opacity="0"/>
</radialGradient>
<radialGradient id="paint3_radial_9535_122" cx="0" cy="0" r="1" gradientUnits="userSpaceOnUse" gradientTransform="translate(110.258 83.7273) rotate(90) scale(67.7615 368.849)">
<stop offset="0.28" stop-color="#4F006F" stop-opacity="0"/>
<stop offset="1" stop-color="#4F006F"/>
</radialGradient>
<linearGradient id="paint4_linear_9535_122" x1="18.1564" y1="31.9535" x2="126.985" y2="33.7467" gradientUnits="userSpaceOnUse">
<stop stop-color="#9DEAFF"/>
<stop offset="0.2" stop-color="#3BD5FF"/>
</linearGradient>
<radialGradient id="paint5_radial_9535_122" cx="0" cy="0" r="1" gradientTransform="matrix(-104.233 24.4153 58.3134 250.335 128.063 1.07115)" gradientUnits="userSpaceOnUse">
<stop offset="0.06" stop-color="#E4A7FE"/>
<stop offset="0.54" stop-color="#E4A7FE" stop-opacity="0"/>
</radialGradient>
<radialGradient id="paint6_radial_9535_122" cx="0" cy="0" r="1" gradientTransform="matrix(58.0459 58.218 58.056 -58.2078 0.442502 63.3763)" gradientUnits="userSpaceOnUse">
<stop offset="0.08" stop-color="#367AF2"/>
<stop offset="0.87" stop-color="#001A8F"/>
</radialGradient>
<radialGradient id="paint7_radial_9535_122" cx="0" cy="0" r="1" gradientUnits="userSpaceOnUse" gradientTransform="translate(28.5473 96.7975) rotate(90) scale(40.7588 46.3149)">
<stop offset="0.59" stop-color="#2763E5" stop-opacity="0"/>
<stop offset="0.97" stop-color="#58AAFE"/>
</radialGradient>
<clipPath id="clip0_9535_122">
<rect width="127" height="131" fill="white"/>
</clipPath>
</defs>
</svg>
