<svg xmlns="http://www.w3.org/2000/svg" fill="none" viewBox="0 0 320 26" height="26" width="320">
<path fill="white" d="M9.62236 16.9595C9.44858 17.1462 8.97321 17.2137 8.83821 17.4234C8.63571 17.7422 8.16751 18.4718 7.80129 18.8179C6.62076 19.9367 4.09453 20.5011 2.84793 19.4297C2.7675 19.4297 2.8149 19.4828 2.91112 19.7873C3.0016 20.3618 3.46979 21.7304 3.29745 22.0766C3.40947 22.4643 3.52724 22.3222 3.73836 22.5361C3.88197 22.6798 3.94373 23.0589 4.10889 23.1623L4.68336 23.1221C4.71783 23.2284 4.7523 23.3347 4.7882 23.4409L5.51777 23.3892C5.66139 23.4208 6.0707 23.6319 6.19134 23.6678L7.00278 23.609C7.62464 23.7756 8.16464 23.5156 8.68741 23.1637C8.97464 22.967 9.29922 22.9972 9.55773 22.776C9.99945 22.3726 10.3785 21.9054 10.6823 21.3901C11.2711 20.3244 11.0715 17.7709 10.5386 17.1404C10.3304 16.9121 10.0848 16.9092 9.6281 16.9595M14.5369 16.2601C14.0975 16.5961 13.9122 16.5128 13.6551 17.0327C13.6278 17.0327 13.6939 17.1117 13.6666 17.1117C13.9294 17.6345 14.5283 17.8456 14.9721 18.2147C15.1157 18.3296 15.4834 18.9759 15.66 19.0233C15.8597 19.2617 15.9889 19.9194 16.1182 19.9194C16.2618 20.1018 16.1081 20.537 16.2402 20.7065C16.2503 21.4849 16.1411 21.5394 16.0061 21.6888C16.0061 21.7434 16.0808 21.8841 16.0808 21.9387C16.1167 21.976 16.4298 22.2001 16.5648 22.1728C16.9957 22.1843 18.7191 23.5386 18.8627 23.8C20.1093 23.8962 20.0116 23.5127 20.8733 23.1494C21.1074 23.0503 21.2913 23.1494 21.4478 22.9857C21.6043 22.8219 21.6216 22.5002 21.7738 22.3351C21.7954 19.2703 17.6247 16.3663 14.5355 16.2601M17.9119 9.78723C16.3724 10.017 15.4245 10.5053 14.84 10.9132C14.5972 11.0688 14.3886 11.2721 14.2267 11.5106C14.1147 11.7125 14.0775 11.9475 14.1219 12.1742C14.136 12.3169 14.1787 12.4555 14.2472 12.5815C14.3158 12.7075 14.409 12.8186 14.5211 12.908C16.4169 12.7644 19.7086 12.6495 20.3491 14.2422C20.3836 14.4634 20.4324 14.5955 20.4396 14.6501C21.0658 14.495 20.6076 14.5496 21.5311 14.6961C21.7437 14.7291 22.265 14.6099 22.6125 14.5266C22.7134 14.4975 22.8005 14.4334 22.8581 14.3456C22.8412 14.2683 22.8335 14.1893 22.8351 14.1101C22.8351 14.1101 23.1583 14.1331 23.2918 14.0311C24.1679 13.8875 23.7083 13.4753 24.122 13.0129C23.8749 10.0357 20.8245 9.34202 17.9119 9.78723ZM6.15687 15.2145C6.49581 15.1269 7.07315 15.081 7.37618 14.9273C7.86017 14.6875 9.51895 13.5213 8.99188 12.582C8.82815 10.5901 6.42544 12.2732 5.40145 11.5767C4.36596 11.4431 3.20123 9.48564 2.89102 8.64691C2.84359 8.47283 2.76314 8.3095 2.65405 8.16579C2.65405 8.13851 2.54777 8.25627 2.54921 8.23042C2.24905 8.58085 2.29788 8.88963 2.25479 9.74989L1.84835 9.72261C1.8225 10.0357 1.79091 10.2037 1.64442 10.3631L1.55394 10.5211C1.29686 10.4349 1.42612 10.557 1.31984 10.3445C0.36766 10.389 0.438033 11.3498 0 11.8927C0.0201064 13.6793 3.55884 15.8867 6.15687 15.2145ZM13.0505 5.49164C13.1281 4.81664 13.029 3.82855 13.5618 3.36467C13.7183 2.64658 14.8543 2.81031 14.6762 2.35935C14.5671 2.07211 14.0328 2.21573 13.8145 2.26169C13.6508 2.30047 12.0911 2.79307 11.4966 2.85914L10.7411 2.6394C9.76597 2.77153 9.20156 3.5485 8.66012 4.16749C8.20342 4.68451 7.5873 5.95122 8.07703 6.70808L7.99517 7.20212L9.10533 8.82643C9.48879 9.10074 9.53619 9.30468 9.95124 9.57612C10.036 9.70394 10.1193 9.83176 10.2054 9.95814C10.5429 10.1807 11.5368 10.1822 11.7034 10.0386C13.3033 10.1822 13.1295 6.94936 13.6379 6.27148C13.5447 5.94852 13.3362 5.671 13.0519 5.49164"></path>
<path fill="white" d="M26.2217 7.65452H28.3371V19.5001H26.2217V7.65452Z"></path>
<path fill="white" d="M37.7196 19.5001H35.709V18.3942H35.6774C35.3595 18.7977 34.9542 19.1237 34.4919 19.3476C34.0297 19.5715 33.5226 19.6875 33.009 19.6868C31.0816 19.6868 30.2443 18.3282 30.2443 16.497V11.367H32.3613V15.71C32.3613 16.7053 32.3771 18.0467 33.7342 18.0467C35.2666 18.0467 35.6013 16.3893 35.6013 15.3467V11.367H37.7182L37.7196 19.5001Z"></path>
<path fill="white" d="M39.5508 11.367H41.5255V12.5045H41.5571C41.8163 12.0983 42.1736 11.7639 42.596 11.532C43.0184 11.3001 43.4923 11.1781 43.9742 11.1775C45.1102 11.1775 45.9159 11.6083 46.374 12.6136C46.8638 11.6342 47.9222 11.1775 48.9175 11.1775C50.9281 11.1775 51.4911 12.5519 51.4911 14.3686V19.5015H49.3756V14.6516C49.3756 13.8933 49.3756 12.819 48.1592 12.819C46.7532 12.819 46.5794 14.4936 46.5794 15.5477V19.4958H44.4639V14.6516C44.4639 13.8933 44.4639 12.819 43.2475 12.819C41.8415 12.819 41.6677 14.4936 41.6677 15.5477V19.4958H39.5508V11.367Z"></path>
<path fill="white" d="M53.3552 7.8599H55.4707V9.88203H53.3552V7.8599ZM53.3552 11.3656H55.4707V19.5001H53.3552V11.3656Z"></path>
<path fill="white" d="M57.3822 11.367H59.3929V12.4729H59.4245C60.088 11.5408 60.9885 11.1803 62.0929 11.1803C64.0202 11.1803 64.8575 12.5389 64.8575 14.3715V19.5044H62.7363V15.1571C62.7363 14.1618 62.7205 12.819 61.3633 12.819C59.8309 12.819 59.4963 14.4778 59.4963 15.5204V19.5001H57.3822V11.367Z"></path>
<path fill="white" d="M74.1869 19.5001H72.1763V18.3942H72.1447C71.8265 18.7977 71.4208 19.1236 70.9584 19.3475C70.4959 19.5714 69.9886 19.6874 69.4748 19.6868C67.5475 19.6868 66.7116 18.3282 66.7116 16.497V11.367H68.8271V15.71C68.8271 16.7053 68.8429 18.0467 70.2015 18.0467C71.7339 18.0467 72.0685 16.3893 72.0685 15.3467V11.367H74.184L74.1869 19.5001Z"></path>
<path fill="white" d="M80.8838 13.0718C80.2794 12.8392 79.637 12.7213 78.9895 12.7242C78.415 12.7242 77.7429 12.9296 77.7429 13.6247C77.7429 14.9172 81.4224 14.0986 81.4224 17.0356C81.4224 18.9313 79.732 19.6896 78.01 19.6896C77.1985 19.677 76.3919 19.5602 75.6102 19.3421L75.7365 17.6043C76.3798 17.9447 77.0942 18.1287 77.8219 18.1414C78.3576 18.1414 79.2107 17.9361 79.2107 17.1462C79.2107 15.552 75.5312 16.6421 75.5312 13.6994C75.5312 11.9458 77.0636 11.1717 78.7209 11.1717C79.499 11.1787 80.2734 11.2795 81.0274 11.4719L80.8838 13.0718Z"></path>
<path fill="white" d="M132.833 0C134.275 0.000143147 135.422 1.18023 135.422 2.58984V23.4102H135.456C135.455 24.8527 134.275 26 132.865 26H112.012C110.57 25.9998 109.423 24.8198 109.422 23.4102V2.58984C109.423 1.18026 110.603 0.000182227 112.012 0H132.833ZM113.586 20.1309C113.521 20.0328 113.389 20.0659 113.324 20.0986C113.062 20.1317 112.93 20.3933 112.799 20.5898C112.668 20.8193 112.603 21.1475 112.799 21.377C112.865 21.5081 112.996 21.6063 113.127 21.6719C113.291 21.7046 113.488 21.7378 113.652 21.7051C113.75 21.6723 113.882 21.7702 113.98 21.6719C114.111 21.6719 114.275 21.6392 114.406 21.6064C114.439 21.5737 114.472 21.5742 114.504 21.5742C114.636 21.4759 114.8 21.5081 114.931 21.377C114.997 21.2789 115.16 21.2459 115.193 21.1152C115.062 21.0825 114.963 21.2134 114.799 21.1807C114.668 21.2461 114.537 21.246 114.439 21.3115L113.947 21.377C113.849 21.3769 113.75 21.3442 113.652 21.377C113.357 21.3442 112.996 21.3112 112.898 20.9834C112.833 20.7868 112.898 20.5579 113.062 20.4268C113.16 20.2956 113.324 20.3609 113.456 20.3281C113.488 20.2626 113.586 20.1964 113.586 20.1309ZM125.816 19.3447C125.783 19.574 125.718 19.7707 125.685 20C125.685 20.1639 125.619 20.2951 125.652 20.459C125.619 20.5901 125.619 20.7874 125.75 20.8857C125.816 20.9182 125.881 20.8528 125.947 20.8525C126.111 20.6232 126.406 20.6889 126.635 20.6562C126.898 20.689 127.16 20.8852 127.226 21.1475C127.161 21.2456 127.062 21.2457 126.997 21.2783C126.898 21.2783 126.8 21.3114 126.702 21.3115C126.571 21.3443 126.439 21.2784 126.308 21.2783C126.243 21.2783 126.21 21.2135 126.144 21.2461L125.915 21.1152C125.816 21.148 125.947 21.2454 125.849 21.2783C125.784 21.4421 125.98 21.4425 126.045 21.5078C126.242 21.5734 126.406 21.6069 126.603 21.6396C126.865 21.6396 127.127 21.6066 127.258 21.4102C127.389 21.2135 127.521 21.0165 127.39 20.7871C127.226 20.656 127.095 20.4596 126.898 20.4268C126.767 20.394 126.636 20.3278 126.472 20.3604C126.276 20.3604 126.111 20.5242 125.915 20.5898C125.882 20.557 125.914 20.4917 125.881 20.459C125.849 20.3279 125.881 20.1638 125.881 20.0654C125.914 19.9015 125.947 19.7045 125.98 19.5078C126.013 19.4421 126.045 19.3111 125.915 19.2129L125.816 19.3447ZM116.931 20.3281C116.767 20.197 116.57 20.1971 116.406 20.2627C116.111 20.4266 116.013 20.754 115.98 21.0488C115.98 21.18 115.98 21.2792 116.045 21.3447C116.046 21.4427 116.143 21.4756 116.176 21.541C116.34 21.6722 116.57 21.6392 116.767 21.6064C116.931 21.5409 117.128 21.4421 117.226 21.2783C117.324 21.2453 117.324 21.1148 117.422 21.082C117.554 21.3115 117.783 21.541 118.045 21.541C118.144 21.5082 118.275 21.5734 118.374 21.5078C118.57 21.4421 118.767 21.2459 118.898 21.082C118.865 21.0167 118.8 21.0816 118.767 21.082C118.636 21.1804 118.439 21.2133 118.275 21.2461C118.045 21.2461 117.848 21.1478 117.717 20.9512C117.652 20.8528 117.685 20.6882 117.62 20.5898C117.587 20.5898 117.553 20.5577 117.553 20.5898C117.455 20.9176 117.095 21.2131 116.767 21.3115C116.636 21.3443 116.505 21.3439 116.374 21.2783C116.275 21.18 116.177 21.0818 116.209 20.918C116.242 20.7541 116.341 20.59 116.472 20.5244C116.669 20.394 116.866 20.6557 116.997 20.4268C116.997 20.394 116.996 20.3934 116.931 20.3281ZM121.849 20.6562C121.784 20.689 121.75 20.6563 121.685 20.6562C121.226 20.7546 120.897 21.0817 120.471 21.2129C120.242 21.2454 120.046 21.1149 119.915 20.9512C119.849 20.8529 119.849 20.7219 119.75 20.6562C119.685 20.689 119.684 20.7539 119.652 20.8193C119.586 21.0159 119.685 21.1799 119.816 21.2783C119.881 21.4095 120.046 21.5078 120.209 21.5078C120.308 21.5406 120.373 21.5078 120.439 21.5078C120.636 21.475 120.799 21.344 120.963 21.2129C121.029 21.1801 121.095 21.213 121.127 21.1475C121.357 21.0819 121.553 20.9509 121.783 20.9834C122.078 21.1473 122.275 21.6717 122.668 21.5078C122.963 21.3766 123.193 21.0494 123.521 21.0166C123.947 20.9183 124.078 21.4759 124.439 21.5742C124.603 21.6069 124.734 21.5412 124.833 21.4102C124.833 21.3774 124.832 21.3443 124.799 21.3115C124.373 21.3113 124.242 20.6885 123.783 20.6885C123.389 20.7541 123.094 20.984 122.799 21.1807C122.373 21.3769 122.242 20.7222 121.849 20.6562ZM131.849 20.3604C131.587 20.262 131.258 20.3281 131.029 20.5576C130.996 20.5903 131.029 20.6236 131.062 20.6562C131.226 20.5907 131.423 20.4917 131.586 20.5244C131.717 20.5244 131.848 20.6556 131.947 20.7539C131.98 20.8195 131.947 20.853 131.98 20.8857C131.947 21.0821 131.751 21.1806 131.62 21.2461C131.292 21.3117 130.963 21.1807 130.734 20.9512C130.57 20.82 130.635 20.6233 130.504 20.4922C130.406 20.5578 130.406 20.6562 130.34 20.7217C130.275 21.0166 130.472 21.2463 130.702 21.4102C130.833 21.4757 130.964 21.5415 131.095 21.5742C131.292 21.5743 131.456 21.6066 131.62 21.4756C131.718 21.4427 131.784 21.3443 131.849 21.3115C132.046 21.1148 132.307 20.8848 132.176 20.5898C132.111 20.4917 132.013 20.3931 131.849 20.3604ZM128.931 20.3936C128.833 20.4263 128.865 20.5243 128.799 20.5898C128.799 20.8849 128.8 21.1805 128.833 21.4756C128.865 21.5084 128.931 21.5733 128.997 21.5078C129.03 21.4427 129.127 21.4424 129.094 21.3115C128.996 21.1804 129.062 20.9509 129.029 20.7871C129.029 20.6561 129.095 20.4593 128.931 20.3936ZM128.963 19.7373C128.865 19.8029 128.865 19.9344 128.799 20L128.865 20.1309C128.93 20.1636 128.996 20.2291 129.062 20.1963C129.128 20.1636 129.225 20.1312 129.193 20.0332C129.095 19.9676 129.062 19.8029 128.963 19.7373ZM118.176 4.52441C116.406 4.8524 115.521 6.72125 114.603 8.06543C113.685 9.7375 113.259 12.0655 114.57 13.6064C115.094 14.4261 115.947 15.2136 116.898 15.5742C118.013 15.7382 119.325 16.0327 120.538 15.8359C121.259 15.6395 122.243 16.2947 122.931 15.6719C123.849 15.6063 124.898 15.4101 125.816 15.1807C125.98 14.9513 126.144 14.918 126.406 14.9834C127.389 14.4261 128.635 14.459 129.488 13.6396C130.045 12.9184 131.16 12.8198 131.456 11.8691C130.472 11.738 129.717 12.5569 128.635 12.4258C127.881 12.8848 126.93 12.8193 126.176 13.2783L122.799 13.8037C122.176 13.8037 121.356 13.7702 120.701 13.9014C118.57 13.803 116.111 13.5737 115.357 11.1807C115.095 9.73804 115.39 8.2297 116.603 7.24609C117.324 6.45937 118.439 6.78722 119.324 6.65625C119.619 6.23002 120.34 5.93433 120.242 5.37695C119.815 4.62317 118.963 4.75389 118.176 4.52441Z"></path>
<path fill="white" d="M222.389 20.234C223.186 20.234 223.749 20.6721 223.914 21.4289H222.879C222.799 21.207 222.64 21.0648 222.372 21.0648C222.025 21.0648 221.786 21.3379 221.786 21.867C221.786 22.3962 222.025 22.6693 222.372 22.6693C222.64 22.6693 222.793 22.5385 222.879 22.3052H223.914C223.749 23.0392 223.186 23.5 222.389 23.5C221.457 23.5 220.796 22.8742 220.796 21.867C220.796 20.8656 221.457 20.234 222.389 20.234ZM232.142 20.234C233.07 20.234 233.724 20.8486 233.724 21.8159C233.724 21.9069 233.718 22.0037 233.707 22.1003H231.505C231.539 22.5156 231.795 22.7091 232.108 22.7091C232.381 22.7091 232.535 22.5727 232.615 22.4018H233.65C233.497 23.0221 232.933 23.5 232.142 23.5C231.209 23.5 230.538 22.8742 230.538 21.867C230.538 20.8601 231.198 20.234 232.142 20.234ZM225.639 20.234C226.111 20.234 226.447 20.4504 226.617 20.7291V20.2796H227.59V23.4546H226.617V23.005C226.441 23.2839 226.105 23.5 225.633 23.5C224.859 23.5 224.239 22.8628 224.239 21.8614C224.239 20.8601 224.859 20.234 225.639 20.234ZM197.256 20.234C198.075 20.234 198.531 20.6893 198.593 21.3152H197.694C197.666 21.099 197.501 20.9567 197.228 20.9567C197 20.9567 196.875 21.0478 196.875 21.2014C196.875 21.3133 196.959 21.383 197.09 21.4364L197.128 21.4513L197.169 21.4654C197.176 21.4676 197.184 21.4699 197.191 21.4722L197.235 21.4854L197.305 21.5045L197.378 21.5231L197.587 21.5739L197.641 21.5876L197.722 21.6094L197.777 21.625L197.831 21.6416L197.885 21.6593C198.263 21.7877 198.603 22.0095 198.61 22.5327C198.61 23.0847 198.121 23.5 197.324 23.5C196.477 23.5 195.907 23.0277 195.862 22.4133H196.824C196.846 22.6353 197.046 22.7831 197.313 22.7831C197.563 22.7831 197.694 22.6693 197.694 22.5271C197.694 22.3854 197.562 22.3113 197.37 22.2534L197.325 22.2403L197.278 22.2277L197.229 22.2153L196.967 22.1532L196.884 22.1327L196.829 22.1181L196.774 22.1027C196.361 21.9831 195.964 21.7768 195.964 21.2184C195.964 20.6779 196.425 20.234 197.256 20.234ZM215.254 20.234C216.181 20.234 216.836 20.8486 216.836 21.8159C216.836 21.9069 216.83 22.0037 216.819 22.1003H214.617C214.651 22.5156 214.907 22.7091 215.22 22.7091C215.493 22.7091 215.647 22.5727 215.726 22.4018H216.762C216.608 23.0221 216.045 23.5 215.254 23.5C214.321 23.5 213.649 22.8742 213.649 21.867C213.649 20.8601 214.309 20.234 215.254 20.234ZM206.44 20.234C206.912 20.234 207.248 20.4504 207.419 20.7291V20.2796H208.392V23.4546H207.419V23.005C207.242 23.2839 206.907 23.5 206.434 23.5C205.661 23.5 205.04 22.8628 205.04 21.8614C205.04 20.8601 205.661 20.234 206.44 20.234ZM230.265 20.2455V21.2753H229.997C229.536 21.2753 229.269 21.4346 229.269 21.9808V23.4546H228.296V20.2796H229.269V20.8088C229.491 20.4731 229.838 20.2455 230.265 20.2455ZM219.317 20.2455V21.2753H219.049C218.588 21.2753 218.321 21.4346 218.321 21.9808V23.4546H217.348V20.2796H218.321V20.8088C218.543 20.4731 218.89 20.2455 219.317 20.2455ZM211.066 20.2455V21.2753H210.799C210.338 21.2753 210.07 21.4346 210.07 21.9808V23.4546H209.097V20.2796H210.07V20.8088C210.292 20.4731 210.639 20.2455 211.066 20.2455ZM203.259 20.2455C204.044 20.2455 204.551 20.7463 204.551 21.5997V23.4546H203.583V21.7305C203.583 21.3152 203.344 21.0876 202.975 21.0876C202.605 21.0876 202.366 21.3152 202.366 21.7305V23.4546H201.398V21.7305C201.398 21.3152 201.159 21.0876 200.79 21.0876C200.42 21.0876 200.181 21.3152 200.181 21.7305V23.4546H199.208V20.2796H200.181V20.6779C200.369 20.4219 200.693 20.2455 201.108 20.2455C201.586 20.2455 201.973 20.4559 202.189 20.8371C202.4 20.5016 202.798 20.2455 203.259 20.2455ZM212.659 19.5058V20.2796H213.297V21.0876H212.659V22.3622C212.659 22.5499 212.739 22.6295 212.955 22.6295H213.302V23.4546H212.807C212.147 23.4546 211.687 23.1758 211.687 22.3506V21.0876H211.299V20.2796H211.687V19.5058H212.659ZM173.81 5.85324L173.841 5.85356C174.651 5.87018 175.305 6.52348 175.322 7.33337L175.322 7.36542V21.9034C175.322 22.7279 174.662 23.3984 173.841 23.4153L173.81 23.4156L173.778 23.4153C172.968 23.3986 172.315 22.7452 172.298 21.9354L172.297 21.9034V7.36542C172.297 6.54078 172.957 5.8704 173.778 5.85356L173.81 5.85324ZM225.923 21.0818C225.559 21.0818 225.229 21.355 225.229 21.8614C225.229 22.3677 225.559 22.6523 225.923 22.6523C226.293 22.6523 226.617 22.3735 226.617 21.867C226.617 21.3606 226.293 21.0818 225.923 21.0818ZM206.725 21.0818C206.361 21.0818 206.03 21.355 206.03 21.8614C206.03 22.3677 206.361 22.6523 206.725 22.6523C207.094 22.6523 207.419 22.3735 207.419 21.867C207.419 21.3606 207.094 21.0818 206.725 21.0818ZM232.131 21.0136C231.812 21.0136 231.567 21.207 231.511 21.5598H232.728C232.728 21.2128 232.455 21.0136 232.131 21.0136ZM215.243 21.0136C214.924 21.0136 214.679 21.207 214.623 21.5598H215.84C215.84 21.2128 215.567 21.0136 215.243 21.0136ZM178.234 2.60994L178.265 2.61027C179.075 2.62689 179.729 3.28028 179.746 4.09008L179.746 4.12213V18.6931C179.746 19.5177 179.086 20.1881 178.265 20.205L178.234 20.2053L178.202 20.205C177.392 20.1884 176.739 19.535 176.722 18.7252L176.721 18.6931V4.12213C176.721 3.29759 177.382 2.62711 178.202 2.61027L178.234 2.60994ZM169.474 2.5C170.257 2.54524 170.881 3.18634 170.898 3.97672L170.898 4.00973V18.5805C170.898 19.2661 170.442 19.845 169.817 20.0305C169.69 20.0682 169.556 20.0896 169.417 20.0925L169.386 20.0928L169.354 20.0925C169.341 20.0922 169.328 20.0918 169.315 20.0912L169.287 20.0896L169.254 20.0872L169.217 20.0835L169.183 20.0793L169.153 20.075L169.105 20.0668C169.09 20.064 169.075 20.061 169.06 20.0578L169.039 20.0528L169.005 20.0444L168.982 20.0383L168.929 20.0227L168.891 20.0101L168.86 19.9991L168.837 19.9904L168.795 19.973L168.759 19.9575L168.737 19.9469L168.698 19.9276L168.646 19.9L168.603 19.8749L168.583 19.8626L168.551 19.842L168.533 19.8295L168.514 19.8168C168.502 19.8079 168.489 19.7988 168.477 19.7896L168.447 19.7662L168.4 19.7271L168.366 19.6976L168.327 19.6609L168.298 19.6316L168.273 19.6051L168.236 19.5627L168.203 19.5233L168.189 19.5058L168.167 19.4762L168.145 19.4459L168.116 19.4025L168.104 19.383L168.08 19.3446L168.063 19.3137L168.052 19.2946L168.042 19.2753C168.036 19.2625 168.029 19.2496 168.023 19.2366C168.012 19.2132 168.001 19.1895 167.991 19.1654L167.982 19.1454L167.969 19.11L167.961 19.0893L167.949 19.0553L167.938 19.0192L167.922 18.9632C167.913 18.9259 167.904 18.888 167.897 18.8496C167.883 18.7723 167.875 18.693 167.874 18.6122L167.873 18.5805V4.00973C167.873 3.20426 168.503 2.54587 169.297 2.5H169.474ZM164.962 5.3861L164.993 5.38642L165.038 5.38799L165.088 5.39129C165.112 5.39331 165.137 5.39592 165.161 5.39909L165.213 5.4069C165.238 5.41104 165.263 5.41581 165.287 5.42117L165.324 5.42969L165.372 5.44254C165.395 5.44882 165.417 5.45559 165.439 5.46285L165.476 5.47594L165.5 5.48459L165.554 5.50663L165.581 5.51808L165.597 5.52547C165.612 5.53249 165.627 5.53975 165.642 5.54725L165.662 5.55755L165.705 5.58131L165.758 5.61232L165.771 5.62034C165.791 5.63354 165.812 5.64724 165.832 5.66142L165.851 5.67539L165.901 5.71322L165.931 5.73767L165.967 5.76863L165.973 5.77437C166 5.79795 166.025 5.82245 166.049 5.84781L166.075 5.87472C166.092 5.89288 166.108 5.91147 166.124 5.93045L166.154 5.96831C166.169 5.98675 166.183 6.00556 166.196 6.02469L166.227 6.06972L166.248 6.10307C166.386 6.32576 166.468 6.58692 166.474 6.86675L166.474 6.89838V15.9177C166.474 16.5266 166.114 17.0515 165.595 17.2912C165.412 17.3761 165.208 17.4252 164.993 17.4296L164.962 17.43L164.93 17.4296C164.899 17.429 164.868 17.4274 164.837 17.4249C164.802 17.422 164.767 17.4179 164.732 17.4126L164.689 17.4055L164.636 17.3948C164.615 17.3901 164.593 17.3849 164.572 17.3793L164.545 17.3718L164.505 17.3596L164.469 17.348L164.43 17.3339L164.421 17.3306C164.406 17.3247 164.391 17.3186 164.376 17.3123L164.355 17.3034L164.301 17.2781L164.262 17.2589L164.211 17.2308L164.198 17.2231C164.183 17.2146 164.169 17.2059 164.155 17.1969L164.121 17.1751L164.067 17.1368L164.011 17.0936L163.968 17.0572L163.95 17.0416L163.925 17.0185L163.879 16.9733L163.86 16.9538L163.833 16.9245L163.815 16.9033L163.779 16.86L163.76 16.8362L163.733 16.7991L163.714 16.7728L163.686 16.7298L163.662 16.6906L163.642 16.6563L163.629 16.6333C163.616 16.609 163.604 16.5843 163.592 16.5592C163.581 16.5367 163.571 16.5139 163.562 16.4907L163.552 16.4667L163.537 16.4251C163.532 16.4128 163.528 16.4004 163.524 16.388C163.51 16.3461 163.498 16.3035 163.488 16.2602L163.479 16.2143L163.472 16.1793L163.47 16.1644C163.466 16.1444 163.463 16.1242 163.461 16.1039C163.459 16.0873 163.457 16.0707 163.456 16.054V6.76209C163.524 5.99074 164.172 5.3861 164.962 5.3861ZM182.658 5.2729C182.886 5.2729 183.103 5.32352 183.297 5.41416C183.803 5.65028 184.156 6.15787 184.17 6.74949L184.17 6.78508V15.8044C184.17 16.4282 183.792 16.9637 183.253 17.1949L183.226 17.2064C183.177 17.2259 183.128 17.2431 183.078 17.2576L183.055 17.264L183.026 17.2716C182.923 17.2974 182.815 17.3125 182.705 17.3159L182.658 17.3167C181.833 17.3167 181.163 16.6567 181.146 15.836L181.145 15.8044V6.78508C181.145 5.96045 181.805 5.29006 182.626 5.27322L182.658 5.2729ZM202.745 5.6849C205.799 5.6849 208.226 7.94505 208.226 11.1668C208.226 14.3886 205.783 16.6638 202.745 16.6638C199.706 16.6638 197.232 14.3886 197.232 11.1668C197.232 7.94505 199.706 5.6849 202.745 5.6849ZM224.644 5.7156C227.209 5.7156 229.072 7.02865 229.637 9.2276H226.751C226.354 8.50993 225.621 8.12813 224.644 8.12813C222.964 8.12813 221.85 9.31919 221.85 11.1821C221.85 13.1671 222.98 14.3276 224.858 14.3276C226.156 14.3276 227.057 13.6407 227.454 12.4342H224.14V10.5102H229.821V12.9382C229.271 14.7859 227.484 16.6335 224.659 16.6335C221.453 16.6335 219.193 14.3886 219.193 11.1821C219.193 7.97544 221.437 5.7156 224.644 5.7156ZM195.964 5.83758V7.82276L191.352 14.4192H195.964V16.5569H188.39V14.5721L192.971 7.97544H188.39V5.83758H195.964ZM214.061 5.83758C216.687 5.83758 218.001 7.34947 218.001 9.21226C218.001 10.5562 217.268 11.8234 215.619 12.3121L218.092 16.5569H215.145L212.916 12.5107H212.29V16.5569H209.679V5.83758H214.061ZM233.884 5.83758V16.5569H231.273V5.83758H233.884ZM202.745 8.05189C201.004 8.05189 199.905 9.258 199.905 11.1668C199.905 13.0452 201.004 14.2817 202.745 14.2817C204.455 14.2817 205.57 13.0452 205.57 11.1668C205.57 9.258 204.455 8.05189 202.745 8.05189ZM213.908 8.00594H212.29V10.663H213.908C214.886 10.663 215.344 10.1592 215.344 9.31919C215.344 8.52518 214.886 8.00594 213.908 8.00594Z" clip-rule="evenodd" fill-rule="evenodd"></path>
<path fill="white" d="M283.521 17.7043H277.94V3.19833H283.465C284.957 3.19833 286.246 3.48873 287.332 4.06953C288.423 4.64581 289.263 5.47687 289.854 6.56271C290.448 7.64402 290.746 8.94023 290.746 10.4513C290.746 11.9624 290.451 13.261 289.861 14.3471C289.27 15.4284 288.434 16.2594 287.353 16.8402C286.272 17.4163 284.995 17.7043 283.521 17.7043ZM281.878 14.361H283.38C284.097 14.361 284.709 14.2453 285.214 14.014C285.724 13.7827 286.111 13.3838 286.376 12.8173C286.645 12.2503 286.78 11.4616 286.78 10.4513C286.78 9.44099 286.643 8.65246 286.369 8.08571C286.1 7.51896 285.703 7.12005 285.179 6.88898C284.659 6.65716 284.022 6.54138 283.266 6.54163H281.878V14.361ZM291.49 6.37191V3.19795H304.097V6.37191H299.734V17.7047H295.853V6.37153L291.49 6.37191ZM305.579 17.7043V3.19833H309.518V8.86471H314.73V3.19833H318.669V17.7043H314.73V12.0379H309.518V17.7043H305.579ZM262.244 22.9454V19.6612H264.281V20.0876H262.739V21.0886H264.135V21.5131H262.74V22.9454H262.244ZM265.566 19.6612V22.9454H265.071V19.6612H265.566ZM266.468 22.9454V19.6612H267.639C267.894 19.6612 268.105 19.7051 268.273 19.7929C268.442 19.8805 268.568 20.0017 268.651 20.1565C268.734 20.3108 268.776 20.4889 268.776 20.6908C268.776 20.8916 268.734 21.0684 268.65 21.2215C268.563 21.3762 268.431 21.5001 268.271 21.576C268.103 21.6603 267.892 21.7024 267.638 21.7024H266.751V21.276H267.593C267.753 21.276 267.883 21.2531 267.984 21.2072C268.086 21.161 268.16 21.0941 268.207 21.0066C268.254 20.919 268.277 20.8137 268.277 20.6905C268.277 20.5663 268.253 20.4589 268.205 20.3683C268.156 20.2758 268.078 20.2024 267.982 20.1598C267.882 20.1107 267.75 20.0861 267.586 20.0861H266.964V22.9454H266.468ZM268.09 21.4634L268.901 22.9454H268.337L267.541 21.4634H268.09ZM271.351 20.5238C271.345 20.4528 271.323 20.3841 271.286 20.3231C271.249 20.262 271.199 20.21 271.139 20.1711C271.016 20.0866 270.859 20.0443 270.671 20.0443C270.537 20.0443 270.42 20.0656 270.321 20.1083C270.231 20.1442 270.152 20.2041 270.093 20.2814C270.04 20.3534 270.011 20.4407 270.012 20.5302C270.012 20.6084 270.03 20.6758 270.067 20.7322C270.104 20.7887 270.153 20.8364 270.213 20.8752C270.274 20.9126 270.339 20.944 270.408 20.9693C270.478 20.9942 270.545 21.0146 270.609 21.0307L270.929 21.1138C271.034 21.1394 271.142 21.1742 271.252 21.2181C271.362 21.262 271.464 21.3197 271.558 21.3912C271.652 21.4632 271.728 21.552 271.786 21.6576C271.845 21.7635 271.874 21.8902 271.874 22.0377C271.874 22.2236 271.826 22.3888 271.73 22.5334C271.634 22.6776 271.496 22.7914 271.314 22.8747C271.134 22.9582 270.915 23 270.659 23C270.413 23 270.2 22.961 270.02 22.883C269.841 22.8047 269.7 22.694 269.598 22.551C269.497 22.4065 269.441 22.2354 269.43 22.0377H269.927C269.937 22.1564 269.975 22.2552 270.042 22.3343C270.111 22.4126 270.198 22.4709 270.304 22.5093C270.411 22.5469 270.528 22.5656 270.655 22.5653C270.795 22.5653 270.92 22.5434 271.029 22.4995C271.139 22.4543 271.226 22.3924 271.289 22.3136C271.352 22.2333 271.383 22.1397 271.383 22.0328C271.383 21.9357 271.355 21.8561 271.3 21.7939C271.238 21.7263 271.162 21.6737 271.077 21.6399C270.974 21.5964 270.869 21.5606 270.761 21.5327L270.373 21.4266C270.11 21.3551 269.901 21.2497 269.747 21.1105C269.594 20.9717 269.518 20.7879 269.518 20.5591C269.518 20.3697 269.569 20.2045 269.672 20.0635C269.78 19.919 269.923 19.8056 270.089 19.735C270.265 19.6557 270.463 19.6161 270.683 19.6161C270.905 19.6161 271.101 19.6551 271.271 19.7331C271.442 19.8114 271.577 19.9189 271.675 20.0556C271.773 20.1913 271.825 20.3474 271.829 20.5238H271.351ZM272.485 20.0876V19.6612H275.027V20.0876H274.002V22.9454H273.508V20.0876H272.485ZM279.873 20.7289H279.372C279.339 20.5332 279.232 20.3579 279.072 20.24C278.995 20.1829 278.909 20.1396 278.817 20.1121C278.721 20.0829 278.621 20.0682 278.521 20.0684C278.332 20.0684 278.162 20.1161 278.012 20.2114C277.864 20.3062 277.746 20.4456 277.66 20.6295C277.574 20.8139 277.531 21.0384 277.531 21.3031C277.531 21.5703 277.574 21.796 277.659 21.9801C277.746 22.1638 277.864 22.3027 278.014 22.3967C278.163 22.4908 278.332 22.5379 278.519 22.5379C278.623 22.5379 278.721 22.5241 278.814 22.4965C278.908 22.4674 278.993 22.4251 279.069 22.3696C279.145 22.3142 279.209 22.2463 279.262 22.1661C279.315 22.0848 279.352 21.9917 279.372 21.8868L279.873 21.8887C279.847 22.0452 279.795 22.196 279.717 22.3343C279.642 22.4681 279.542 22.5868 279.424 22.6843C279.302 22.7831 279.164 22.8596 279.016 22.9101C278.863 22.9635 278.697 22.9902 278.516 22.9902C278.231 22.9902 277.978 22.9229 277.756 22.7881C277.533 22.6526 277.358 22.4586 277.23 22.2059C277.102 21.9538 277.039 21.6529 277.039 21.3031C277.039 20.9526 277.103 20.6517 277.231 20.4003C277.359 20.1482 277.535 19.9546 277.757 19.8196C277.98 19.6842 278.232 19.6164 278.516 19.6164C278.69 19.6164 278.853 19.6415 279.003 19.6917C279.155 19.7409 279.292 19.8136 279.412 19.91C279.533 20.0048 279.633 20.1212 279.712 20.2592C279.791 20.3962 279.845 20.5525 279.873 20.7289ZM280.646 22.9454V19.6612H281.142V22.5187H282.63V22.9454H280.646ZM283.821 22.9454H283.295L284.477 19.6612H285.049L286.231 22.9454H285.705L284.777 20.2577H284.751L283.821 22.9454ZM283.909 21.6591H285.615V22.0761H283.909V21.6591ZM288.651 20.5238C288.645 20.4527 288.623 20.384 288.586 20.3228C288.549 20.2617 288.499 20.2098 288.439 20.1711C288.315 20.0866 288.159 20.0443 287.971 20.0443C287.836 20.0443 287.72 20.0656 287.621 20.1083C287.531 20.1442 287.451 20.204 287.392 20.2814C287.339 20.3535 287.311 20.4408 287.312 20.5302C287.312 20.6084 287.33 20.6758 287.366 20.7322C287.404 20.7887 287.453 20.8364 287.512 20.8752C287.573 20.9126 287.639 20.944 287.708 20.9693C287.777 20.9942 287.844 21.0146 287.908 21.0307L288.229 21.1138C288.339 21.1411 288.447 21.1759 288.551 21.2181C288.662 21.262 288.764 21.3197 288.858 21.3912C288.952 21.4632 289.028 21.552 289.085 21.6576C289.144 21.7635 289.174 21.8902 289.174 22.0377C289.174 22.2236 289.126 22.3888 289.029 22.5334C288.934 22.6776 288.796 22.7914 288.614 22.8747C288.434 22.9582 288.215 23 287.958 23C287.712 23 287.5 22.961 287.32 22.883C287.14 22.8047 287 22.694 286.898 22.551C286.797 22.4065 286.74 22.2354 286.73 22.0377H287.227C287.237 22.1564 287.275 22.2552 287.342 22.3343C287.411 22.4126 287.498 22.4709 287.604 22.5093C287.711 22.5469 287.828 22.5656 287.955 22.5653C288.095 22.5653 288.22 22.5434 288.329 22.4995C288.439 22.4543 288.526 22.3924 288.588 22.3136C288.652 22.2333 288.683 22.1397 288.683 22.0328C288.683 21.9357 288.655 21.8561 288.6 21.7939C288.538 21.7263 288.462 21.6737 288.377 21.6399C288.274 21.5964 288.169 21.5606 288.061 21.5327L287.673 21.4266C287.41 21.3551 287.201 21.2497 287.047 21.1105C286.894 20.9717 286.818 20.7879 286.818 20.5591C286.818 20.3697 286.869 20.2045 286.972 20.0635C287.079 19.919 287.223 19.8056 287.389 19.735C287.564 19.6557 287.762 19.6161 287.982 19.6161C288.205 19.6161 288.401 19.6551 288.571 19.7331C288.742 19.8114 288.876 19.9189 288.975 20.0556C289.073 20.1913 289.125 20.3474 289.129 20.5238H288.651ZM291.738 20.5238C291.732 20.4528 291.709 20.3842 291.673 20.3231C291.636 20.262 291.586 20.2101 291.526 20.1711C291.402 20.0866 291.246 20.0443 291.058 20.0443C290.923 20.0443 290.807 20.0656 290.708 20.1083C290.618 20.1442 290.538 20.204 290.479 20.2814C290.426 20.3535 290.398 20.4408 290.399 20.5302C290.399 20.6084 290.417 20.6758 290.453 20.7322C290.491 20.7887 290.539 20.8364 290.599 20.8752C290.66 20.9126 290.726 20.944 290.795 20.9693C290.864 20.9942 290.931 21.0146 290.995 21.0307L291.316 21.1138C291.421 21.1394 291.528 21.1742 291.638 21.2181C291.749 21.262 291.851 21.3197 291.945 21.3912C292.039 21.4632 292.115 21.552 292.173 21.6576C292.231 21.7635 292.261 21.8902 292.261 22.0377C292.261 22.2236 292.213 22.3888 292.116 22.5334C292.021 22.6776 291.883 22.7914 291.701 22.8747C291.52 22.9582 291.302 23 291.045 23C290.799 23 290.586 22.961 290.407 22.883C290.227 22.8047 290.087 22.694 289.985 22.551C289.883 22.4065 289.827 22.2354 289.817 22.0377H290.314C290.324 22.1564 290.362 22.2552 290.429 22.3343C290.498 22.4126 290.585 22.4709 290.691 22.5093C290.798 22.5469 290.915 22.5656 291.042 22.5653C291.182 22.5653 291.307 22.5434 291.416 22.4995C291.526 22.4543 291.612 22.3924 291.675 22.3136C291.739 22.2333 291.77 22.1397 291.77 22.0328C291.77 21.9357 291.742 21.8561 291.687 21.7939C291.625 21.7263 291.549 21.6737 291.464 21.6399C291.361 21.5964 291.256 21.5606 291.148 21.5327L290.76 21.4266C290.496 21.3551 290.288 21.2497 290.134 21.1105C289.981 20.9717 289.905 20.7879 289.905 20.5591C289.905 20.3697 289.956 20.2045 290.059 20.0635C290.166 19.919 290.31 19.8056 290.476 19.735C290.651 19.6557 290.849 19.6161 291.069 19.6161C291.291 19.6161 291.488 19.6551 291.658 19.7331C291.829 19.8114 291.964 19.9189 292.062 20.0556C292.16 20.1913 292.212 20.3474 292.216 20.5238H291.738ZM294.409 22.9454V19.6612H294.905V22.5187H296.393V22.9454H294.409ZM299.864 21.3031C299.864 21.6539 299.8 21.9554 299.672 22.2078C299.543 22.4587 299.368 22.6521 299.144 22.7881C298.921 22.9229 298.669 22.9902 298.385 22.9902C298.101 22.9902 297.847 22.9229 297.624 22.7881C297.401 22.6526 297.226 22.4586 297.098 22.2059C296.97 21.9538 296.905 21.6529 296.905 21.3031C296.905 20.9526 296.969 20.6517 297.098 20.4003C297.226 20.1482 297.401 19.9546 297.624 19.8196C297.847 19.6842 298.101 19.6164 298.385 19.6164C298.669 19.6164 298.922 19.6842 299.144 19.8196C299.367 19.9544 299.543 20.1479 299.672 20.4003C299.8 20.6517 299.864 20.9524 299.864 21.3031ZM299.373 21.3035C299.373 21.0363 299.33 20.8113 299.243 20.6284C299.158 20.4447 299.04 20.3057 298.891 20.2114C298.74 20.1157 298.564 20.0661 298.385 20.0688C298.196 20.0688 298.027 20.1164 297.879 20.2118C297.73 20.3059 297.612 20.4447 297.526 20.6284C297.44 20.8113 297.398 21.0363 297.398 21.3035C297.398 21.5707 297.44 21.7964 297.526 21.9805C297.612 22.1632 297.73 22.302 297.879 22.3971C298.027 22.4912 298.196 22.5382 298.385 22.5382C298.573 22.5382 298.742 22.4912 298.891 22.3971C299.04 22.302 299.158 22.1632 299.243 21.9805C299.33 21.7964 299.373 21.5707 299.373 21.3035ZM302.885 20.6987C302.856 20.606 302.814 20.518 302.76 20.4372C302.711 20.3608 302.648 20.2936 302.576 20.2385C302.502 20.1821 302.419 20.1392 302.33 20.1117C302.233 20.0818 302.132 20.0672 302.03 20.0684C301.845 20.0684 301.678 20.1161 301.53 20.2114C301.381 20.3062 301.264 20.4456 301.177 20.6295C301.092 20.8127 301.049 21.0367 301.049 21.3016C301.049 21.5676 301.092 21.7926 301.179 21.9768C301.266 22.1609 301.384 22.3004 301.535 22.3952C301.686 22.4906 301.857 22.5382 302.05 22.5382C302.228 22.5382 302.384 22.5019 302.516 22.4291C302.65 22.3564 302.753 22.2537 302.826 22.1213C302.9 21.9876 302.937 21.8304 302.937 21.6497L303.065 21.6738H302.125V21.2647H303.416V21.6384C303.416 21.9144 303.357 22.1539 303.24 22.3569C303.123 22.5591 302.961 22.7151 302.755 22.825C302.55 22.9354 302.315 22.9906 302.05 22.9906C301.752 22.9906 301.491 22.9221 301.267 22.7851C301.044 22.6481 300.869 22.4541 300.744 22.2029C300.619 21.9508 300.557 21.6515 300.557 21.305C300.557 21.0426 300.593 20.8074 300.665 20.5994C300.731 20.4037 300.835 20.2231 300.972 20.0684C301.105 19.9219 301.26 19.8102 301.438 19.7335C301.624 19.6542 301.825 19.6142 302.027 19.6161C302.205 19.6161 302.37 19.6424 302.523 19.6951C302.677 19.747 302.814 19.8213 302.933 19.9179C303.178 20.1121 303.342 20.3904 303.394 20.6987H302.885ZM304.721 19.6612V22.9454H304.226V19.6612H304.721ZM307.415 20.5238C307.409 20.4528 307.386 20.3841 307.35 20.3231C307.313 20.262 307.263 20.21 307.203 20.1711C307.079 20.0866 306.923 20.0443 306.735 20.0443C306.6 20.0443 306.484 20.0656 306.385 20.1083C306.295 20.1441 306.215 20.2039 306.156 20.2814C306.103 20.3535 306.075 20.4408 306.076 20.5302C306.076 20.6084 306.094 20.6758 306.13 20.7322C306.168 20.7887 306.216 20.8364 306.276 20.8752C306.337 20.9126 306.402 20.944 306.472 20.9693C306.541 20.9942 306.608 21.0146 306.672 21.0307L306.993 21.1138C307.098 21.1394 307.205 21.1742 307.315 21.2181C307.426 21.262 307.528 21.3197 307.622 21.3912C307.716 21.4632 307.792 21.552 307.849 21.6576C307.908 21.7635 307.938 21.8902 307.938 22.0377C307.938 22.2236 307.89 22.3888 307.793 22.5334C307.698 22.6776 307.559 22.7914 307.378 22.8747C307.197 22.9582 306.978 23 306.722 23C306.476 23 306.264 22.961 306.084 22.883C305.915 22.8138 305.769 22.6988 305.662 22.551C305.56 22.4065 305.504 22.2354 305.493 22.0377H305.991C306 22.1564 306.039 22.2552 306.106 22.3343C306.175 22.4126 306.262 22.4709 306.368 22.5093C306.475 22.5469 306.592 22.5656 306.719 22.5653C306.859 22.5653 306.983 22.5434 307.092 22.4995C307.203 22.4543 307.289 22.3924 307.352 22.3136C307.415 22.2338 307.449 22.1346 307.447 22.0328C307.447 21.9357 307.419 21.8561 307.363 21.7939C307.302 21.7263 307.226 21.6737 307.141 21.6399C307.038 21.5964 306.932 21.5606 306.824 21.5327L306.436 21.4266C306.174 21.3551 305.965 21.2497 305.811 21.1105C305.658 20.9717 305.582 20.7879 305.582 20.5591C305.582 20.3697 305.633 20.2045 305.736 20.0635C305.843 19.919 305.987 19.8056 306.153 19.735C306.34 19.6534 306.542 19.6129 306.746 19.6161C306.969 19.6161 307.165 19.6551 307.334 19.7331C307.506 19.8114 307.641 19.9189 307.739 20.0556C307.837 20.1913 307.889 20.3474 307.893 20.5238H307.415ZM308.548 20.0876V19.6612H311.09V20.0876H310.065V22.9454H309.572V20.0876H308.548ZM312.328 19.6612V22.9454H311.833V19.6612H312.328ZM315.958 20.7289H315.458C315.425 20.5331 315.318 20.3578 315.158 20.24C315.081 20.1829 314.995 20.1396 314.903 20.1121C314.807 20.0829 314.707 20.0682 314.606 20.0684C314.417 20.0684 314.248 20.1161 314.098 20.2114C313.95 20.3062 313.832 20.4456 313.745 20.6295C313.66 20.8139 313.617 21.0384 313.617 21.3031C313.617 21.5703 313.66 21.796 313.745 21.9801C313.832 22.1638 313.95 22.3027 314.1 22.3967C314.249 22.4908 314.418 22.5379 314.605 22.5379C314.709 22.5379 314.807 22.5241 314.9 22.4965C314.994 22.4674 315.079 22.4251 315.155 22.3696C315.314 22.2535 315.423 22.0807 315.458 21.8868L315.958 21.8887C315.933 22.0452 315.88 22.196 315.803 22.3343C315.727 22.4681 315.628 22.5868 315.509 22.6843C315.388 22.7831 315.25 22.8596 315.102 22.9101C314.941 22.9649 314.772 22.992 314.601 22.9902C314.317 22.9902 314.064 22.9229 313.842 22.7881C313.619 22.6526 313.444 22.4586 313.315 22.2059C313.188 21.9538 313.125 21.6529 313.125 21.3031C313.125 20.9526 313.189 20.6517 313.317 20.4003C313.445 20.1482 313.62 19.9546 313.843 19.8196C314.066 19.6842 314.318 19.6164 314.601 19.6164C314.776 19.6164 314.938 19.6415 315.089 19.6917C315.241 19.7409 315.377 19.8136 315.498 19.91C315.619 20.0048 315.719 20.1212 315.798 20.2592C315.877 20.3962 315.931 20.5525 315.958 20.7289ZM318.523 20.5238C318.517 20.4527 318.495 20.384 318.458 20.3229C318.422 20.2618 318.371 20.2099 318.312 20.1711C318.187 20.0866 318.031 20.0443 317.843 20.0443C317.709 20.0443 317.592 20.0656 317.493 20.1083C317.395 20.1502 317.319 20.2079 317.264 20.2814C317.211 20.3535 317.183 20.4408 317.184 20.5302C317.182 20.6014 317.201 20.6717 317.239 20.7322C317.276 20.7887 317.325 20.8364 317.385 20.8752C317.446 20.9126 317.511 20.944 317.58 20.9693C317.65 20.9942 317.716 21.0146 317.781 21.0307L318.101 21.1138C318.206 21.1394 318.314 21.1742 318.424 21.2181C318.534 21.262 318.636 21.3197 318.73 21.3912C318.824 21.4632 318.9 21.552 318.958 21.6576C319.016 21.7635 319.046 21.8902 319.046 22.0377C319.046 22.2236 318.998 22.3888 318.902 22.5334C318.806 22.6776 318.668 22.7914 318.486 22.8747C318.306 22.9582 318.087 23 317.83 23C317.584 23 317.372 22.961 317.192 22.883C317.012 22.8047 316.872 22.694 316.77 22.551C316.669 22.4065 316.613 22.2354 316.602 22.0377H317.099C317.109 22.1564 317.147 22.2552 317.215 22.3343C317.283 22.4126 317.37 22.4709 317.476 22.5093C317.583 22.5469 317.7 22.5656 317.827 22.5653C317.967 22.5653 318.092 22.5434 318.201 22.4995C318.311 22.4543 318.397 22.3924 318.461 22.3136C318.524 22.2333 318.555 22.1397 318.555 22.0328C318.555 21.9357 318.527 21.8561 318.472 21.7939C318.41 21.7267 318.334 21.6741 318.249 21.6399C318.146 21.5965 318.041 21.5606 317.933 21.5327L317.545 21.4266C317.282 21.3551 317.074 21.2497 316.92 21.1105C316.766 20.9717 316.69 20.7879 316.69 20.5591C316.69 20.3697 316.741 20.2045 316.844 20.0635C316.952 19.919 317.095 19.8057 317.261 19.735C317.436 19.6557 317.634 19.6161 317.854 19.6161C318.077 19.6161 318.273 19.6551 318.443 19.7331C318.614 19.8114 318.749 19.9189 318.847 20.0556C318.945 20.1913 318.997 20.3474 319.001 20.5238H318.523Z"></path>
<path fill="white" d="M269.222 17.6768C273.275 17.6768 276.56 14.3915 276.56 10.3384C276.56 6.28535 273.275 3 269.222 3C265.169 3 261.883 6.28535 261.883 10.3384C261.883 14.3915 265.169 17.6768 269.222 17.6768ZM269.222 13.9135C269.691 13.9135 270.156 13.8211 270.59 13.6414C271.024 13.4617 271.418 13.1984 271.75 12.8664C272.082 12.5344 272.345 12.1403 272.525 11.7066C272.704 11.2728 272.797 10.8079 272.797 10.3384C272.797 9.86892 272.704 9.40403 272.525 8.97027C272.345 8.53652 272.082 8.1424 271.75 7.81042C271.418 7.47844 271.024 7.2151 270.59 7.03543C270.156 6.85576 269.691 6.76329 269.222 6.76329C268.274 6.76329 267.364 7.13995 266.694 7.81042C266.023 8.48089 265.647 9.39023 265.647 10.3384C265.647 11.2866 266.023 12.1959 266.694 12.8664C267.364 13.5369 268.274 13.9135 269.222 13.9135Z" clip-rule="evenodd" fill-rule="evenodd"></path>
</svg>
