<svg xmlns="http://www.w3.org/2000/svg" fill="none" viewBox="0 0 287 21" height="21" width="287">
<path fill="white" d="M30.8757 8.51543C29.4275 8.74714 28.6744 9.84777 28.6744 11.7594C28.6744 13.671 29.6592 14.9454 31.2232 14.9454C32.7873 14.9454 32.5556 14.7137 33.9459 14.0186V15.5827C32.3239 16.3357 31.3391 16.5674 30.0067 16.5674C28.6744 16.5674 27.5738 16.1619 26.7628 15.3509C25.9518 14.5399 25.4884 13.3814 25.4884 12.1649C25.4884 9.44228 27.5158 7.53065 30.4702 7.53065C33.4245 7.53065 33.7721 8.4575 33.7721 9.73192C33.7721 11.0063 33.1349 11.1801 32.208 11.1801C31.2812 11.1801 31.3391 11.0643 30.8177 10.7746V8.4575L30.8757 8.51543ZM23.6347 12.1649C24.967 10.485 25.4304 9.84777 25.4304 9.03678C25.4304 8.22579 24.7932 7.58858 23.9243 7.58858C23.0554 7.58858 22.9395 7.82029 22.7078 8.10993V11.4698L20.5645 14.3662V7.82029H18.537L15.1192 13.4972V7.82029H13.9607L10.8905 8.57336V9.38435L12.5704 9.55813V16.5095H14.7717L18.0156 11.1222V16.5095H20.3907L23.6926 12.2808L23.6347 12.1649ZM4.28668 9.55813C4.80803 9.50021 5.03974 9.44228 5.27146 9.44228C6.71966 9.44228 7.47272 10.3691 7.47272 12.1649C7.47272 13.9607 6.54587 15.3509 4.7501 15.3509C2.95433 15.3509 4.51839 15.3509 4.28668 15.3509V9.55813ZM4.28668 16.3357C4.86596 16.3936 5.38731 16.3936 5.73488 16.3936C8.63128 16.3936 10.485 14.5399 10.485 11.7594C10.485 8.97885 9.09471 7.64651 7.24101 7.64651C5.38731 7.64651 5.85074 7.82029 4.28668 8.74714V7.58858H3.41776L0 8.63128V9.44228H1.39027V19.1163L0.115856 19.4059V20.2169H5.67695V19.4059L4.28668 19.1163V16.3357Z"></path>
<path fill="white" d="M29.3117 5.21353H20.0432L21.6072 2.60676H30.8757L29.3117 5.21353ZM41.7083 0H32.4398L30.8757 2.60676H40.1442L41.7083 0Z"></path>
<path fill="white" d="M115.278 8.48966C108.926 4.25107 100.643 1.68475 91.5792 1.68475C82.5154 1.68475 74.2313 4.25107 67.8794 8.48966C74.1957 6.38967 81.5813 5.08721 91.5792 5.08721C101.577 5.08721 108.961 6.38967 115.278 8.48966Z" clip-rule="evenodd" fill-rule="evenodd"></path>
<path fill="white" d="M87.9451 10.6936C87.4788 10.6936 87.2397 11.0723 87.1773 11.5342C87.109 12.0436 86.8416 13.8124 86.7822 14.2624C86.7466 14.5312 86.7258 14.8134 86.4659 14.9277C86.206 15.0421 85.8867 14.8668 85.6164 14.6307L81.3333 10.9892C81.1117 10.7976 80.8286 10.6921 80.5357 10.6921C79.9313 10.6921 79.3476 11.0679 79.3476 11.9872V17.6842C79.3422 17.7776 79.3559 17.8711 79.3879 17.9591C79.4199 18.047 79.4696 18.1274 79.5338 18.1955C79.5981 18.2635 79.6756 18.3176 79.7616 18.3546C79.8476 18.3916 79.9402 18.4106 80.0338 18.4104C80.2206 18.4154 80.4022 18.3481 80.5405 18.2225C80.6789 18.0968 80.7634 17.9226 80.7763 17.7361C80.7763 17.7361 81.2219 15.0213 81.2709 14.7183C81.3347 14.3664 81.3897 14.0901 81.7283 13.9847C82.0357 13.8896 82.3224 14.0678 82.7605 14.448C83.1986 14.8282 86.8001 18.0822 86.8001 18.0822C86.9142 18.1941 87.0504 18.281 87.2 18.3375C87.3495 18.394 87.5092 18.4189 87.6689 18.4104C88.0238 18.4104 88.6684 18.2619 88.6684 17.1807V11.506C88.6669 10.9817 88.3416 10.6936 87.9451 10.6936ZM113.788 16.7634C110.639 17.4465 107.041 16.7173 107.041 14.4911C107.041 12.807 108.602 12.1223 109.832 12.0243C111.122 11.9203 112.131 12.1921 112.653 12.7297C112.977 13.0669 112.887 13.5258 112.249 13.5629C111.663 13.5985 110.564 13.6327 109.649 13.6683C109.129 13.6877 108.851 13.9654 108.851 14.3396C108.851 14.6367 109.074 14.9753 109.671 14.9782C110.528 14.9782 112.705 14.9961 113.785 14.999C114.498 14.999 114.85 14.601 114.85 13.7812C114.85 12.4817 113.672 10.5139 110.225 10.5139C107.106 10.5139 104.842 12.0688 104.842 14.6114C104.842 18.2188 110.149 19.3193 114.037 17.9782C114.406 17.852 114.74 17.5876 114.632 17.1748C114.534 16.8064 114.235 16.6668 113.788 16.7634ZM77.2655 16.7634C74.1185 17.4421 70.5155 16.7173 70.5155 14.4911C70.5155 12.807 72.0764 12.1223 73.3061 12.0243C74.5952 11.9203 75.6051 12.1921 76.1278 12.7297C76.4516 13.0669 76.361 13.5258 75.7254 13.5629C75.1313 13.5985 74.0383 13.6327 73.1219 13.6683C72.6021 13.6877 72.3244 13.9654 72.3244 14.3396C72.3244 14.6367 72.5472 14.9753 73.1457 14.9782C74.0026 14.9782 76.1798 14.9961 77.2595 14.999C77.9724 14.999 78.3244 14.601 78.3244 13.7812C78.3244 12.4817 77.1467 10.5139 73.6996 10.5139C70.5809 10.5139 68.316 12.0688 68.316 14.6114C68.316 18.2188 73.6239 19.3193 77.512 17.9782C77.8803 17.852 78.2145 17.5876 78.106 17.1748C78.011 16.8064 77.714 16.6668 77.2655 16.7634ZM101.648 13.2971C101.717 15.2634 101.904 16.8941 101.954 17.4644C102.023 18.2069 102.4 18.4119 102.786 18.4119C103.172 18.4119 103.544 18.2203 103.61 17.4718C103.667 16.8406 103.854 14.8951 103.944 12.9718C103.948 12.9523 103.947 12.9321 103.94 12.9134C103.933 12.8946 103.922 12.8779 103.907 12.8649C103.892 12.8518 103.874 12.8429 103.854 12.839C103.835 12.8351 103.815 12.8363 103.796 12.8426L101.748 13.1753C101.72 13.1805 101.694 13.1957 101.676 13.218C101.658 13.2402 101.648 13.2683 101.648 13.2971ZM102.792 10.5095C102.633 10.4992 102.473 10.5227 102.323 10.5786C102.174 10.6345 102.038 10.7214 101.924 10.8336C101.81 10.9458 101.722 11.0808 101.664 11.2297C101.606 11.3786 101.581 11.5381 101.589 11.6976C101.589 11.7807 101.599 12.0139 101.613 12.302C101.614 12.3191 101.618 12.3358 101.626 12.3511C101.633 12.3664 101.644 12.38 101.657 12.391C101.67 12.402 101.685 12.4102 101.702 12.4151C101.718 12.4199 101.735 12.4214 101.752 12.4193L103.891 12.0733C103.92 12.0688 103.946 12.0544 103.965 12.0327C103.984 12.011 103.994 11.9833 103.995 11.9545C103.995 11.855 104.004 11.751 104.005 11.702C104.012 11.5419 103.985 11.3822 103.926 11.2332C103.867 11.0842 103.777 10.9491 103.663 10.8368C103.549 10.7245 103.412 10.6373 103.262 10.5809C103.112 10.5245 102.952 10.5002 102.792 10.5095ZM99.648 13.6446C98.9351 13.6446 96.7356 13.6609 95.3277 13.6654C94.6446 13.6654 94.4738 14.0337 94.4738 14.3367C94.4738 14.601 94.6564 14.9426 95.2936 14.9753C96.2648 15.0272 97.5005 15.0837 98.0708 15.1134C98.8386 15.1535 98.8475 15.5485 98.5891 15.8857C98.0678 16.5629 96.8069 17.0084 95.4837 17.0084C93.7653 17.0084 91.8733 16.0297 91.8733 14.4837C91.8733 13.0297 93.4921 11.4273 98.3039 12.1075C98.7257 12.1669 99.143 12.0911 99.247 11.7005C99.3569 11.2832 99.0866 11.0159 98.5401 10.8718C97.5487 10.6209 96.5285 10.5021 95.5059 10.5184C92.2683 10.5184 89.6723 12.0644 89.6723 14.5624C89.6723 17.2282 92.2594 18.5322 95.4837 18.5322C99.0851 18.5322 100.839 16.5718 100.839 14.8594C100.839 13.9773 100.396 13.6446 99.648 13.6446Z"></path>
<path fill="white" d="M141.448 13.179H144.854C146.96 13.179 147.943 13.5952 147.943 14.8501V15.178C147.943 16.0357 147.493 16.4329 146.544 16.6064C147.619 16.7514 148.117 17.1298 148.117 18.06V18.2302C148.117 18.6905 147.991 19.0436 147.739 19.3053C147.24 19.8381 146.276 20.0368 144.847 20.0368H141.448V13.1758V13.179ZM142.533 16.1838H144.945C145.333 16.1838 145.658 16.1555 145.948 16.1208C146.518 16.0388 146.853 15.8055 146.853 15.2789V14.9573C146.853 14.2164 146.276 14.0713 144.92 14.0713H142.533V16.1838ZM142.533 19.091H144.721C145.292 19.091 145.733 19.0625 146.058 19.0185C146.726 18.9112 146.988 18.6654 146.988 18.1703V17.9999C146.988 17.7194 146.906 17.5207 146.761 17.3852C146.462 17.1235 145.84 17.0604 144.838 17.0604H142.533V19.091Z"></path>
<path fill="white" d="M151.664 20.2133C149.93 20.2133 149.063 19.2642 149.063 17.6371V14.8814H150.192V17.4291C150.192 18.6303 150.744 19.2735 152.09 19.2735C153.329 19.2735 154.042 18.5231 154.042 17.2493V14.8814H155.18V20.0397H154.114V18.6839C153.771 19.633 152.922 20.21 151.667 20.21L151.664 20.2133Z"></path>
<path fill="white" d="M157.46 13.832L156.445 14.3397V13.1794H157.605V13.6019C157.605 13.6996 157.548 13.791 157.46 13.8352V13.832Z"></path>
<path fill="white" d="M156.447 14.8814H157.604V20.0397H156.447V14.8814Z"></path>
<path fill="white" d="M179.829 13.832L178.814 14.3397V13.1794H179.974V13.6019C179.974 13.6996 179.918 13.791 179.829 13.8352V13.832Z"></path>
<path fill="white" d="M178.817 14.8814H179.974V20.0397H178.817V14.8814Z"></path>
<path fill="white" d="M158.865 13.1794H159.994V20.0403H158.865V13.1794Z"></path>
<path fill="white" d="M164.037 20.2138C163.431 20.2138 162.902 20.0939 162.432 19.9143C161.502 19.5263 160.94 18.7476 160.94 17.4928C160.94 16.8873 161.076 16.3891 161.328 15.9761C161.861 15.1279 162.819 14.6928 164.065 14.6928C165.213 14.6928 166.108 15.0996 166.578 15.8847V13.1794H167.681V20.0403H166.625V18.9305C166.209 19.7439 165.329 20.2169 164.037 20.2169V20.2138ZM166.641 17.4739C166.641 16.263 165.73 15.5946 164.336 15.5946C162.942 15.5946 162.079 16.2725 162.079 17.4928C162.079 18.7129 162.838 19.2805 164.346 19.2805C165.853 19.2805 166.641 18.6466 166.641 17.4739Z"></path>
<path fill="white" d="M180.92 18.2967H182.204C182.421 19.1101 183.187 19.3277 184.408 19.3277C184.877 19.3277 185.24 19.293 185.502 19.2204C186.035 19.0754 186.233 18.8233 186.233 18.5078C186.233 18.3534 186.17 18.2179 186.053 18.1389C185.811 17.9592 185.231 17.8773 184.02 17.8395C183.332 17.811 182.79 17.7574 182.368 17.6597C181.519 17.4517 181.157 17.0543 181.157 16.3859C181.157 15.4021 182.068 14.6864 183.932 14.6864C185.795 14.6864 186.886 15.2287 187.274 16.4836H186.063C185.836 15.771 185.079 15.5156 183.932 15.5156C183.506 15.5156 183.181 15.5503 182.929 15.6228C182.44 15.7679 182.251 16.0107 182.251 16.3008C182.251 16.4552 182.305 16.5719 182.415 16.6697C182.633 16.8494 183.209 16.9314 184.395 16.9755C185.145 17.0039 185.722 17.0669 186.158 17.1741C187.015 17.3822 187.349 17.77 187.349 18.4858C187.349 18.8106 187.242 19.1101 187.025 19.3624C186.599 19.8857 185.722 20.2105 184.36 20.2105C182.428 20.2105 181.207 19.6587 180.927 18.2935L180.92 18.2967Z"></path>
<path fill="white" d="M191.398 20.2136C190.613 20.2136 189.989 20.1065 189.491 19.889C188.498 19.438 188.053 18.634 188.053 17.5304C188.053 16.9692 188.198 16.49 188.46 16.058C189.002 15.2004 190.049 14.6833 191.487 14.6833C192.193 14.6833 192.789 14.7905 193.293 15.0175C194.296 15.4684 194.839 16.2819 194.839 17.4201V17.871H189.119C189.264 18.839 190.014 19.3245 191.487 19.3245C192.59 19.3245 193.186 19.0818 193.502 18.5741H194.747C194.186 19.7849 193.038 20.2105 191.395 20.2105L191.398 20.2136ZM189.141 17.0512H193.741C193.596 16.0485 192.865 15.5598 191.518 15.5598C190.172 15.5598 189.33 16.0643 189.141 17.0512Z"></path>
<path fill="white" d="M176.936 14.8814L175.59 18.7502L173.673 14.8814H172.824L170.904 18.7502L169.558 14.8814H168.391L170.27 20.0397H171.257L173.247 16.0733L175.24 20.0397H176.223L178.102 14.8814H176.936Z"></path>
<path fill="white" d="M164.062 6.88015H158.935C158.796 6.88015 158.686 6.9905 158.686 7.12922V8.3526C158.686 8.49134 158.796 8.60169 158.935 8.60169H163.822C163.967 8.60169 164.103 8.51972 164.166 8.38728L164.919 6.88015H164.059H164.062Z"></path>
<path fill="white" d="M165.677 5.37296L164.923 6.88011H167.051C167.181 6.88011 167.282 6.77606 167.282 6.64993V5.39187C167.282 5.2626 167.178 5.16171 167.051 5.16171H166.023C165.878 5.16171 165.743 5.24369 165.68 5.37612L165.677 5.37296Z"></path>
<path fill="white" d="M164.062 1.72155H158.935C158.797 1.72155 158.686 1.6112 158.686 1.47247V0.249089C158.686 0.110356 158.8 0 158.935 0H163.823C163.968 0 164.103 0.0819787 164.166 0.214406L164.92 1.72155H164.059H164.062Z"></path>
<path fill="white" d="M165.677 3.22886L164.923 1.72172H167.051C167.181 1.72172 167.282 1.82576 167.282 1.95189V3.20995C167.282 3.33921 167.178 3.44011 167.051 3.44011H166.023C165.878 3.44011 165.743 3.35814 165.68 3.2257L165.677 3.22886Z"></path>
<path fill="white" d="M158.935 3.44018H164.689C164.818 3.44018 164.923 3.54424 164.923 3.6735V4.92526C164.923 5.05453 164.818 5.15858 164.689 5.15858H158.935C158.796 5.15858 158.686 5.04823 158.686 4.90949V3.68612C158.686 3.54738 158.796 3.43702 158.935 3.43702V3.44018Z"></path>
<path fill="white" d="M170.722 5.38222V0.249089C170.722 0.110356 170.612 0 170.473 0H169.25C169.111 0 169.001 0.110356 169.001 0.249089V5.14259C169.001 5.28762 169.083 5.42321 169.215 5.48628L170.722 6.23984V5.37907V5.38222Z"></path>
<path fill="white" d="M172.229 6.99628L170.721 6.24272V8.37101C170.721 8.50027 170.826 8.60117 170.952 8.60117H172.21C172.339 8.60117 172.44 8.49713 172.44 8.37101V7.34313C172.44 7.19807 172.358 7.06251 172.225 6.99944L172.229 6.99628Z"></path>
<path fill="white" d="M175.882 5.38254V0.249407C175.882 0.110674 175.993 0.000317708 176.131 0.000317708H177.355C177.494 0.000317708 177.604 0.110674 177.604 0.249407V5.1429C177.604 5.28795 177.522 5.42352 177.39 5.48659L175.882 6.24017V5.37938V5.38254Z"></path>
<path fill="white" d="M174.375 6.99661L175.882 6.24303V8.37132C175.882 8.5006 175.778 8.6015 175.652 8.6015H174.394C174.265 8.6015 174.164 8.49744 174.164 8.37132V7.34344C174.164 7.1984 174.246 7.06282 174.378 6.99975L174.375 6.99661Z"></path>
<path fill="white" d="M174.161 0.249089V6.00967C174.161 6.13894 174.057 6.243 173.927 6.243H172.676C172.546 6.243 172.442 6.13894 172.442 6.00967V0.249089C172.442 0.110356 172.553 0 172.691 0H173.915C174.053 0 174.164 0.110356 174.164 0.249089H174.161Z"></path>
<path fill="white" d="M271.461 10.6387V7.38026C271.483 7.17575 271.457 6.96908 271.386 6.77611C271.316 6.58312 271.203 6.40898 271.055 6.26696V6.17382H273.219V10.3964C273.219 12.4951 273.753 13.4249 275.073 13.4249C276.393 13.4249 276.936 12.4183 276.936 10.3964V7.38026C276.956 7.17547 276.929 6.96891 276.857 6.77611C276.786 6.58329 276.673 6.40926 276.526 6.26696V6.17867L278.684 6.17425V10.6391C278.684 13.8975 276.453 14.3458 275.073 14.3458C273.693 14.3458 271.462 13.9606 271.462 10.6391L271.461 10.6387ZM279.974 13.867V12.1721H280.071C280.071 12.1721 280.702 13.3913 282.702 13.3913C283.956 13.3913 284.437 12.8618 284.437 12.2572C284.437 10.2609 280.198 10.3796 279.951 8.27693C279.776 6.76026 281.32 5.99551 283.02 5.99551C283.876 6.01749 284.717 6.22839 285.483 6.61332V8.096H285.382C285.132 7.68137 284.772 7.34502 284.343 7.12452C283.914 6.90399 283.433 6.80799 282.954 6.84722C282.314 6.88517 281.651 7.10225 281.651 7.67547C281.651 9.30245 286.11 9.13657 286.11 11.7622C286.11 13.439 284.773 14.3277 282.523 14.3277C282.47 14.3277 282.418 14.3277 282.365 14.3277C281.547 14.3283 280.736 14.1721 279.975 13.8675L279.974 13.867ZM252.619 9.94189C252.622 8.90258 253.032 7.90669 253.761 7.1719C254.49 6.43715 255.477 6.02325 256.508 6.02069C259.669 6.02069 260.238 8.67193 260.089 10.2177H254.596C254.459 11.9678 255.409 13.3508 256.817 13.3508C258.764 13.3508 259.541 12.3949 259.541 12.3949H259.66L259.51 13.4911C259.51 13.4911 258.618 14.3153 256.698 14.3153C253.784 14.3171 252.619 12.1893 252.619 9.94235L252.619 9.94189ZM254.636 9.2919H258.424C258.512 8.30653 258.023 6.89176 256.671 6.89176C255.374 6.89221 254.685 8.18781 254.637 9.29233L254.636 9.2919ZM267.859 14.1516V7.36304C267.865 7.15984 267.829 6.95767 267.753 6.7691C267.678 6.58053 267.565 6.40963 267.422 6.26696V6.17382H269.609V14.1516H267.859ZM261.418 14.1516V7.35911C261.423 7.15651 261.387 6.95494 261.312 6.76699C261.237 6.57907 261.124 6.40884 260.981 6.26696V6.17382H263.033C263.12 6.84474 263.172 7.5198 263.188 8.19619C264.063 6.78147 265.188 5.84731 266.437 6.27623V7.80126H266.318C266.318 7.80126 264.897 6.79031 263.581 9.24115C263.287 9.85205 263.14 10.5244 263.152 11.2035C263.152 12.7113 263.206 14.1521 263.206 14.1521L261.418 14.1516ZM250.49 14.1472L248.394 10.9228L246.085 14.1472H244.548L247.807 10.1757L245.497 7.15123C244.813 6.32339 244.552 6.30181 244.526 6.30181V6.17425H246.959L248.892 8.92297L250.972 6.17867H252.376L249.462 9.70887L252.808 14.1481L250.49 14.1472ZM268.698 5.23347C268.44 5.2382 268.191 5.13995 268.005 4.96016C267.819 4.78034 267.711 4.53355 267.704 4.27367C267.71 4.01357 267.818 3.76641 268.004 3.58644C268.19 3.40649 268.44 3.30849 268.698 3.31393C268.956 3.30836 269.206 3.4062 269.393 3.58607C269.58 3.76592 269.689 4.01314 269.696 4.27367C269.689 4.53324 269.58 4.77955 269.394 4.95919C269.209 5.13884 268.96 5.2374 268.703 5.23347H268.698Z"></path>
<path fill="white" d="M224.667 17.507C226.181 16.3089 226.942 15.7419 227.347 15.4008C228.788 14.1983 227.791 13.9684 226.485 14.2027C225.347 14.4115 224.468 15.0681 223.285 16.2105C221.818 14.5209 221.009 12.3514 221.01 10.1055C221.011 9.63286 221.046 9.16095 221.115 8.69342C227.156 6.27612 228.711 6.15252 228.504 7.73406C228.229 9.83631 227.308 10.4497 227.308 11.6693C227.308 13.6771 229.214 13.784 232.732 13.6516C234.994 13.5664 234.001 14.7548 236.701 16.6571C235.849 17.5196 234.835 18.2036 233.72 18.67C232.604 19.1363 231.408 19.3757 230.201 19.3745C228.204 19.3758 226.261 18.7201 224.667 17.507ZM234.241 12.0882C232.804 11.6659 230.593 11.6875 230.509 10.6319C230.403 9.23795 231.832 8.36817 231.832 7.4768C231.832 6.39831 230.809 6.22357 230.847 5.74613C230.891 5.22189 231.861 5.40941 231.861 4.24576C231.861 3.38043 231.473 3.01815 230.927 3.01815C229.904 3.01815 229.596 3.78115 229.646 4.20964C229.701 4.70385 230.001 4.73384 230.031 5.20293C230.056 5.55242 229.765 5.63758 229.004 5.46769C227.169 5.05818 222.41 7.25792 221.311 7.76228C221.616 6.58486 222.148 5.47966 222.877 4.50977C223.606 3.53989 224.517 2.72436 225.558 2.10985C226.6 1.49533 227.751 1.09388 228.946 0.92839C230.142 0.7629 231.358 0.836608 232.525 1.14536C233.816 1.4863 235.018 2.10688 236.047 2.9639C237.076 3.82092 237.908 4.89385 238.484 6.10799C237.731 6.32573 236.96 6.47823 236.181 6.56382C235.133 6.6329 234.081 6.59732 233.04 6.45748C231.721 6.29995 232.956 7.69836 235.724 7.69836C236.801 7.65086 237.866 7.44692 238.886 7.0929C239.373 8.52164 239.506 10.0486 239.275 11.5412C239.043 13.0338 238.454 14.4468 237.559 15.6576C235.405 12.2973 234.998 12.3074 234.241 12.0868V12.0882Z"></path>
</svg>
