<svg xmlns="http://www.w3.org/2000/svg" fill="none" viewBox="0 0 289 24" height="24" width="289">
<path fill="white" d="M8.58175 15.2199C8.42676 15.3864 8.0028 15.4466 7.8824 15.6336C7.7018 15.918 7.28424 16.5687 6.95762 16.8773C5.90475 17.8751 3.65173 18.3785 2.53994 17.423C2.46821 17.423 2.51048 17.4704 2.5963 17.7419C2.67699 18.2543 3.09455 19.4749 2.94085 19.7836C3.04076 20.1294 3.14579 20.0026 3.33407 20.1935C3.46216 20.3216 3.51724 20.6597 3.66453 20.7519L4.17688 20.7161C4.20762 20.8109 4.23836 20.9056 4.27038 21.0004L4.92106 20.9543C5.04914 20.9825 5.41419 21.1708 5.52178 21.2028L6.24546 21.1503C6.80007 21.2989 7.28168 21.067 7.74791 20.7532C8.00408 20.5777 8.29355 20.6046 8.52411 20.4074C8.91806 20.0476 9.25609 19.631 9.52702 19.1714C10.0522 18.221 9.87413 15.9436 9.39893 15.3813C9.21321 15.1776 8.99418 15.1751 8.58687 15.2199M12.9648 14.5961C12.5729 14.8959 12.4077 14.8216 12.1784 15.2852C12.1541 15.2852 12.213 15.3557 12.1886 15.3557C12.423 15.8219 12.9572 16.0102 13.3529 16.3394C13.481 16.4418 13.8089 17.0182 13.9665 17.0605C14.1445 17.2731 14.2598 17.8598 14.3751 17.8598C14.5032 18.0224 14.3661 18.4105 14.4839 18.5617C14.4929 19.2559 14.3956 19.3046 14.2752 19.4378C14.2752 19.4864 14.3418 19.612 14.3418 19.6606C14.3738 19.6939 14.653 19.8938 14.7734 19.8694C15.1577 19.8797 16.6947 21.0875 16.8228 21.3206C17.9346 21.4065 17.8475 21.0645 18.616 20.7404C18.8248 20.652 18.9887 20.7404 19.1283 20.5944C19.2679 20.4484 19.2833 20.1615 19.4191 20.0142C19.4383 17.2808 15.7187 14.6909 12.9636 14.5961M15.9749 8.82331C14.6018 9.02824 13.7564 9.46373 13.2351 9.8275C13.0186 9.96629 12.8326 10.1476 12.6882 10.3603C12.5882 10.5404 12.5551 10.75 12.5947 10.9521C12.6073 11.0794 12.6453 11.203 12.7065 11.3154C12.7676 11.4278 12.8507 11.5268 12.9508 11.6066C14.6415 11.4785 17.5772 11.3761 18.1485 12.7965C18.1792 12.9938 18.2228 13.1116 18.2292 13.1603C18.7876 13.022 18.379 13.0706 19.2026 13.2013C19.3922 13.2307 19.8571 13.1244 20.1671 13.0501C20.257 13.0242 20.3347 12.967 20.3861 12.8887C20.3711 12.8198 20.3642 12.7493 20.3656 12.6787C20.3656 12.6787 20.6538 12.6992 20.773 12.6082C21.5543 12.4802 21.1444 12.1125 21.5133 11.7001C21.293 9.04489 18.5724 8.42624 15.9749 8.82331ZM5.49104 13.6637C5.79332 13.5855 6.30822 13.5445 6.57849 13.4075C7.01013 13.1936 8.48953 12.1535 8.01945 11.3159C7.87343 9.5393 5.73056 11.0405 4.81731 10.4193C3.89381 10.3001 2.85503 8.55433 2.57837 7.8063C2.53607 7.65105 2.46432 7.50538 2.36703 7.37722C2.36703 7.35288 2.27224 7.45791 2.27352 7.43486C2.00582 7.74738 2.04937 8.02277 2.01095 8.79L1.64846 8.76567C1.62541 9.04489 1.59723 9.19475 1.46658 9.33693L1.38589 9.47782C1.15661 9.40097 1.27189 9.50985 1.17711 9.32028C0.3279 9.35998 0.390662 10.2169 0 10.701C0.017932 12.2944 3.17397 14.2631 5.49104 13.6637ZM11.6392 4.99226C11.7083 4.39026 11.6199 3.50903 12.0951 3.09531C12.2348 2.45488 13.2479 2.6009 13.0891 2.19871C12.9917 1.94254 12.5153 2.07062 12.3206 2.11161C12.1746 2.14619 10.7835 2.58553 10.2533 2.64445L9.57954 2.44848C8.70983 2.56631 8.20646 3.25926 7.72357 3.81131C7.31626 4.27242 6.76677 5.40213 7.20354 6.07715L7.13053 6.51776L8.12064 7.96641C8.46263 8.21106 8.5049 8.39294 8.87506 8.63502C8.95063 8.74902 9.02492 8.86301 9.10178 8.97573C9.40278 9.17426 10.2891 9.17554 10.4377 9.04746C11.8646 9.17554 11.7096 6.29233 12.163 5.68777C12.0799 5.39973 11.894 5.15222 11.6404 4.99226"></path>
<path fill="white" d="M23.3859 6.92123H25.2726V17.4857H23.3859V6.92123Z"></path>
<path fill="white" d="M33.6404 17.4858H31.8472V16.4995H31.819C31.5356 16.8593 31.1741 17.1501 30.7618 17.3498C30.3495 17.5495 29.8973 17.6529 29.4392 17.6523C27.7203 17.6523 26.9736 16.4406 26.9736 14.8075V10.2323H28.8615V14.1056C28.8615 14.9932 28.8756 16.1895 30.086 16.1895C31.4527 16.1895 31.7512 14.7114 31.7512 13.7815V10.2323H33.6391L33.6404 17.4858Z"></path>
<path fill="white" d="M35.2736 10.2323H37.0347V11.2467H37.0629C37.2941 10.8844 37.6127 10.5862 37.9895 10.3793C38.3662 10.1725 38.7889 10.0638 39.2186 10.0632C40.2318 10.0632 40.9503 10.4474 41.3589 11.344C41.7957 10.4705 42.7397 10.0632 43.6273 10.0632C45.4205 10.0632 45.9226 11.289 45.9226 12.9092V17.487H44.0359V13.1616C44.0359 12.4853 44.0359 11.5272 42.951 11.5272C41.6971 11.5272 41.5421 13.0207 41.5421 13.9608V17.4819H39.6554V13.1616C39.6554 12.4853 39.6554 11.5272 38.5705 11.5272C37.3165 11.5272 37.1615 13.0207 37.1615 13.9608V17.4819H35.2736V10.2323Z"></path>
<path fill="white" d="M47.5851 7.1044H49.4718V8.90785H47.5851V7.1044ZM47.5851 10.231H49.4718V17.4858H47.5851V10.231Z"></path>
<path fill="white" d="M51.1766 10.2323H52.9698V11.2185H52.998C53.5898 10.3872 54.3929 10.0657 55.3779 10.0657C57.0968 10.0657 57.8435 11.2774 57.8435 12.9118V17.4896H55.9517V13.6124C55.9517 12.7248 55.9376 11.5272 54.7272 11.5272C53.3605 11.5272 53.0621 13.0066 53.0621 13.9365V17.4857H51.1766V10.2323Z"></path>
<path fill="white" d="M66.164 17.4858H64.3708V16.4995H64.3426C64.0588 16.8593 63.697 17.15 63.2846 17.3497C62.8721 17.5494 62.4197 17.6528 61.9615 17.6523C60.2426 17.6523 59.4971 16.4406 59.4971 14.8075V10.2323H61.3838V14.1056C61.3838 14.9932 61.3979 16.1895 62.6096 16.1895C63.9763 16.1895 64.2747 14.7114 64.2747 13.7815V10.2323H66.1614L66.164 17.4858Z"></path>
<path fill="white" d="M72.1366 11.7526C71.5976 11.5452 71.0247 11.4401 70.4472 11.4427C69.9348 11.4427 69.3354 11.6258 69.3354 12.2458C69.3354 13.3985 72.6169 12.6684 72.6169 15.2878C72.6169 16.9785 71.1094 17.6548 69.5736 17.6548C68.8499 17.6436 68.1305 17.5394 67.4333 17.3448L67.546 15.795C68.1197 16.0985 68.7569 16.2627 69.4058 16.2741C69.8836 16.2741 70.6444 16.0909 70.6444 15.3864C70.6444 13.9647 67.3629 14.9368 67.3629 12.3124C67.3629 10.7484 68.7295 10.058 70.2076 10.058C70.9016 10.0643 71.5923 10.1542 72.2647 10.3257L72.1366 11.7526Z"></path>
<path fill="white" d="M119.847 0C121.144 0 122.176 1.06148 122.176 2.3291V21.0479H122.206C122.206 22.3448 121.145 23.3768 119.877 23.377H101.128C99.8313 23.377 98.7993 22.3155 98.7993 21.0479V2.3291C98.7993 1.06148 99.8608 0 101.128 0H119.847ZM102.543 18.1006C102.484 18.0121 102.366 18.0418 102.307 18.0713C102.072 18.1009 101.953 18.3359 101.835 18.5127C101.718 18.719 101.659 19.0144 101.835 19.2207C101.894 19.3386 102.012 19.4274 102.13 19.4863C102.278 19.5158 102.455 19.545 102.602 19.5156C102.69 19.4862 102.809 19.5744 102.897 19.4863C103.015 19.4863 103.162 19.4562 103.28 19.4268C103.309 19.3973 103.339 19.3975 103.369 19.3975C103.486 19.3091 103.634 19.3383 103.751 19.2207C103.81 19.1323 103.958 19.1023 103.988 18.9844C103.87 18.955 103.781 19.0732 103.634 19.0439C103.516 19.1029 103.398 19.1032 103.31 19.1621L102.868 19.2207C102.779 19.2207 102.69 19.1912 102.602 19.2207C102.337 19.1912 102.013 19.1616 101.924 18.8672C101.865 18.6903 101.924 18.4832 102.072 18.3652C102.16 18.2479 102.308 18.3068 102.425 18.2773C102.455 18.2184 102.543 18.1595 102.543 18.1006ZM113.539 17.3926C113.509 17.5989 113.451 17.7761 113.421 17.9824C113.421 18.1298 113.363 18.2481 113.392 18.3955C113.363 18.5134 113.362 18.6899 113.48 18.7783C113.539 18.8078 113.598 18.7492 113.657 18.749C113.804 18.5427 114.07 18.6017 114.276 18.5723C114.512 18.6017 114.748 18.7788 114.807 19.0146C114.748 19.1031 114.659 19.1024 114.6 19.1318C114.512 19.1319 114.424 19.162 114.335 19.1621C114.218 19.1916 114.099 19.1318 113.981 19.1318C113.922 19.1317 113.892 19.0731 113.833 19.1025L113.627 18.9844C113.539 19.0138 113.656 19.1022 113.569 19.1318C113.51 19.2792 113.687 19.2799 113.746 19.3389C113.922 19.3978 114.07 19.4266 114.247 19.4561C114.482 19.4561 114.719 19.4269 114.836 19.25C114.954 19.0732 115.071 18.8966 114.954 18.6904C114.806 18.5726 114.689 18.3959 114.512 18.3662C114.394 18.3367 114.276 18.2772 114.128 18.3066C113.952 18.3067 113.804 18.4537 113.627 18.5127C113.598 18.4832 113.627 18.425 113.598 18.3955C113.569 18.2776 113.598 18.1295 113.598 18.041C113.628 17.8937 113.657 17.7167 113.686 17.54C113.715 17.4811 113.745 17.3638 113.627 17.2754L113.539 17.3926ZM105.55 18.2773C105.403 18.1594 105.226 18.1598 105.079 18.2188C104.813 18.3661 104.724 18.6605 104.695 18.9258C104.695 19.0437 104.695 19.1324 104.754 19.1914C104.755 19.2797 104.843 19.3093 104.873 19.3682C105.02 19.4858 105.226 19.4562 105.403 19.4268C105.55 19.3678 105.728 19.2792 105.816 19.1318C105.904 19.1021 105.904 18.9845 105.993 18.9551C106.111 19.1614 106.316 19.3681 106.552 19.3682C106.641 19.3387 106.759 19.3976 106.847 19.3389C107.024 19.2799 107.201 19.1025 107.319 18.9551C107.289 18.8965 107.23 18.9551 107.201 18.9551C107.083 19.0435 106.906 19.0731 106.758 19.1025C106.552 19.1024 106.375 19.0145 106.257 18.8379C106.198 18.7495 106.228 18.6011 106.169 18.5127C106.14 18.5127 106.11 18.484 106.11 18.5127C106.021 18.8075 105.698 19.0737 105.403 19.1621C105.285 19.1916 105.167 19.1907 105.049 19.1318C104.961 19.0434 104.872 18.955 104.902 18.8076C104.931 18.6604 105.019 18.5131 105.137 18.4541C105.314 18.3363 105.491 18.5718 105.609 18.3662C105.609 18.3367 105.609 18.3362 105.55 18.2773ZM109.972 18.5723C109.913 18.6017 109.884 18.5723 109.825 18.5723C109.412 18.6607 109.117 18.9553 108.734 19.0732C108.528 19.1027 108.351 18.9851 108.233 18.8379C108.174 18.7495 108.174 18.6313 108.085 18.5723C108.026 18.6017 108.026 18.6608 107.997 18.7197C107.938 18.8963 108.026 19.0434 108.144 19.1318C108.203 19.2496 108.35 19.3387 108.498 19.3389C108.586 19.3683 108.646 19.3389 108.705 19.3389C108.881 19.3093 109.029 19.1911 109.176 19.0732C109.235 19.0439 109.294 19.0733 109.324 19.0146C109.53 18.9557 109.706 18.8379 109.913 18.8672C110.178 19.0146 110.356 19.4863 110.709 19.3389C110.975 19.2209 111.181 18.9262 111.475 18.8965C111.858 18.808 111.977 19.309 112.301 19.3975C112.448 19.4268 112.566 19.3678 112.655 19.25C112.655 19.2207 112.655 19.1914 112.625 19.1621C112.242 19.1621 112.124 18.6017 111.711 18.6016C111.358 18.6605 111.092 18.8671 110.827 19.0439C110.444 19.2204 110.326 18.6314 109.972 18.5723ZM118.963 18.3066C118.728 18.2182 118.432 18.277 118.226 18.4834C118.197 18.5128 118.226 18.5428 118.255 18.5723C118.403 18.5134 118.58 18.4249 118.727 18.4541C118.845 18.4541 118.964 18.5717 119.052 18.6602C119.082 18.7191 119.052 18.7488 119.082 18.7783C119.052 18.955 118.875 19.0436 118.757 19.1025C118.463 19.1615 118.168 19.044 117.961 18.8379C117.814 18.72 117.872 18.5427 117.754 18.4248C117.666 18.4838 117.666 18.572 117.607 18.6309C117.548 18.896 117.725 19.1026 117.931 19.25C118.049 19.309 118.168 19.368 118.286 19.3975C118.462 19.3975 118.61 19.4274 118.757 19.3096C118.846 19.2801 118.905 19.1916 118.963 19.1621C119.14 18.9852 119.376 18.778 119.258 18.5127C119.199 18.4243 119.111 18.3361 118.963 18.3066ZM116.339 18.3359C116.251 18.3654 116.281 18.4538 116.222 18.5127C116.222 18.7779 116.222 19.0434 116.251 19.3086C116.281 19.3381 116.34 19.3978 116.399 19.3389C116.428 19.28 116.516 19.2797 116.487 19.1621C116.398 19.0443 116.457 18.8378 116.428 18.6904C116.428 18.5725 116.487 18.3949 116.339 18.3359ZM116.369 17.7471C116.281 17.8061 116.281 17.9235 116.222 17.9824L116.281 18.1006C116.34 18.1301 116.399 18.1886 116.458 18.1592C116.516 18.1297 116.605 18.1001 116.576 18.0117C116.487 17.9528 116.457 17.806 116.369 17.7471ZM106.67 4.06836C105.079 4.36313 104.283 6.04331 103.458 7.25195C102.632 8.75541 102.248 10.8488 103.427 12.2344C103.899 12.9713 104.666 13.6787 105.521 14.0029C106.523 14.1503 107.702 14.415 108.792 14.2383C109.441 14.0614 110.326 14.6509 110.945 14.0908C111.77 14.0319 112.713 13.8557 113.539 13.6494C113.686 13.4431 113.834 13.4127 114.07 13.4717C114.954 12.9708 116.074 13.0003 116.84 12.2637C117.341 11.6152 118.344 11.5266 118.61 10.6719C117.726 10.554 117.047 11.2905 116.075 11.1729C115.397 11.5855 114.542 11.5269 113.864 11.9395L110.827 12.4111C110.267 12.4111 109.529 12.3811 108.94 12.499C107.024 12.4106 104.813 12.2044 104.135 10.0527C103.899 8.75564 104.165 7.39903 105.255 6.51465C105.904 5.80755 106.906 6.10212 107.702 5.98438C107.967 5.60123 108.616 5.33589 108.528 4.83496C108.145 4.15698 107.378 4.27466 106.67 4.06836Z"></path>
<path fill="white" d="M200.872 18.1309C201.582 18.1309 202.083 18.5211 202.23 19.195H201.308C201.237 18.9975 201.095 18.8708 200.857 18.8708C200.548 18.8708 200.335 19.114 200.335 19.5852C200.335 20.0565 200.548 20.2997 200.857 20.2997C201.095 20.2997 201.232 20.1832 201.308 19.9754H202.23C202.083 20.6291 201.582 21.0395 200.872 21.0395C200.041 21.0395 199.453 20.4822 199.453 19.5852C199.453 18.6934 200.041 18.1309 200.872 18.1309ZM209.558 18.1309C210.384 18.1309 210.966 18.6782 210.966 19.5397C210.966 19.6208 210.961 19.7069 210.951 19.793H208.99C209.021 20.1629 209.249 20.3352 209.527 20.3352C209.771 20.3352 209.907 20.2137 209.978 20.0615H210.901C210.764 20.6139 210.262 21.0395 209.558 21.0395C208.727 21.0395 208.129 20.4822 208.129 19.5852C208.129 18.6885 208.717 18.1309 209.558 18.1309ZM203.766 18.1309C204.186 18.1309 204.485 18.3236 204.637 18.5718V18.1716H205.504V20.999H204.637V20.5987C204.48 20.847 204.181 21.0395 203.761 21.0395C203.071 21.0395 202.519 20.472 202.519 19.5802C202.519 18.6885 203.071 18.1309 203.766 18.1309ZM178.49 18.1309C179.219 18.1309 179.625 18.5364 179.68 19.0938H178.88C178.854 18.9012 178.707 18.7745 178.464 18.7745C178.261 18.7745 178.15 18.8557 178.15 18.9924C178.15 19.0921 178.225 19.1542 178.341 19.2018L178.376 19.215L178.412 19.2275C178.419 19.2296 178.425 19.2316 178.431 19.2336L178.471 19.2454L178.533 19.2624L178.598 19.2789L178.784 19.3242L178.832 19.3363L178.905 19.3558L178.953 19.3697L179.002 19.3844L179.05 19.4002C179.386 19.5146 179.689 19.7121 179.695 20.1781C179.695 20.6696 179.26 21.0395 178.55 21.0395C177.795 21.0395 177.288 20.6189 177.248 20.0718H178.104C178.125 20.2694 178.302 20.4011 178.54 20.4011C178.763 20.4011 178.88 20.2997 178.88 20.173C178.88 20.0469 178.762 19.9808 178.591 19.9293L178.551 19.9177L178.509 19.9064L178.466 19.8954L178.232 19.8401L178.159 19.8218L178.109 19.8089L178.06 19.7951C177.692 19.6886 177.339 19.5049 177.339 19.0076C177.339 18.5262 177.75 18.1309 178.49 18.1309ZM194.518 18.1309C195.344 18.1309 195.927 18.6782 195.927 19.5397C195.927 19.6208 195.921 19.7069 195.911 19.793H193.95C193.981 20.1629 194.209 20.3352 194.487 20.3352C194.73 20.3352 194.867 20.2137 194.938 20.0615H195.86C195.724 20.6139 195.222 21.0395 194.518 21.0395C193.687 21.0395 193.089 20.4822 193.089 19.5852C193.089 18.6885 193.676 18.1309 194.518 18.1309ZM186.668 18.1309C187.089 18.1309 187.388 18.3236 187.54 18.5718V18.1716H188.406V20.999H187.54V20.5987C187.383 20.847 187.084 21.0395 186.663 21.0395C185.974 21.0395 185.422 20.472 185.422 19.5802C185.422 18.6885 185.974 18.1309 186.668 18.1309ZM207.885 18.1412V19.0583H207.647C207.237 19.0583 206.999 19.2002 206.999 19.6866V20.999H206.132V18.1716H206.999V18.6428C207.197 18.3439 207.505 18.1412 207.885 18.1412ZM198.136 18.1412V19.0583H197.898C197.487 19.0583 197.249 19.2002 197.249 19.6866V20.999H196.383V18.1716H197.249V18.6428C197.447 18.3439 197.756 18.1412 198.136 18.1412ZM190.788 18.1412V19.0583H190.55C190.139 19.0583 189.901 19.2002 189.901 19.6866V20.999H189.035V18.1716H189.901V18.6428C190.099 18.3439 190.408 18.1412 190.788 18.1412ZM183.835 18.1412C184.535 18.1412 184.986 18.5871 184.986 19.3472V20.999H184.124V19.4637C184.124 19.0938 183.911 18.8911 183.582 18.8911C183.253 18.8911 183.04 19.0938 183.04 19.4637V20.999H182.178V19.4637C182.178 19.0938 181.966 18.8911 181.637 18.8911C181.307 18.8911 181.094 19.0938 181.094 19.4637V20.999H180.228V18.1716H181.094V18.5262C181.261 18.2983 181.55 18.1412 181.92 18.1412C182.346 18.1412 182.69 18.3286 182.883 18.6681C183.07 18.3692 183.425 18.1412 183.835 18.1412ZM192.207 17.4824V18.1716H192.774V18.8911H192.207V20.0262C192.207 20.1933 192.278 20.2643 192.471 20.2643H192.78V20.999H192.339C191.751 20.999 191.341 20.7507 191.341 20.0159V18.8911H190.996V18.1716H191.341V17.4824H192.207ZM157.609 5.32402L157.637 5.32431C158.359 5.33911 158.941 5.92091 158.956 6.64217L158.956 6.67071V19.6176C158.956 20.3519 158.368 20.949 157.637 20.964L157.609 20.9643L157.581 20.964C156.86 20.9492 156.278 20.3673 156.263 19.6462L156.262 19.6176V6.67071C156.262 5.93632 156.85 5.33931 157.581 5.32431L157.609 5.32402ZM204.019 18.886C203.695 18.886 203.401 19.1292 203.401 19.5802C203.401 20.0311 203.695 20.2845 204.019 20.2845C204.349 20.2845 204.637 20.0362 204.637 19.5852C204.637 19.1343 204.349 18.886 204.019 18.886ZM186.922 18.886C186.598 18.886 186.303 19.1292 186.303 19.5802C186.303 20.0311 186.598 20.2845 186.922 20.2845C187.251 20.2845 187.54 20.0362 187.54 19.5852C187.54 19.1343 187.251 18.886 186.922 18.886ZM209.548 18.8252C209.264 18.8252 209.046 18.9975 208.995 19.3116H210.08C210.08 19.0026 209.837 18.8252 209.548 18.8252ZM194.508 18.8252C194.224 18.8252 194.006 18.9975 193.955 19.3116H195.04C195.04 19.0026 194.796 18.8252 194.508 18.8252ZM161.549 2.43568L161.577 2.43597C162.298 2.45077 162.88 3.03265 162.895 3.75383L162.896 3.78237V16.7587C162.896 17.493 162.308 18.0901 161.577 18.1051L161.549 18.1054L161.521 18.1051C160.8 18.0903 160.218 17.5084 160.203 16.7872L160.202 16.7587V3.78237C160.202 3.04807 160.79 2.45096 161.521 2.43597L161.549 2.43568ZM153.748 2.33777C154.446 2.37805 155.001 2.94899 155.016 3.65287L155.016 3.68227V16.6584C155.016 17.269 154.61 17.7845 154.053 17.9497C153.94 17.9833 153.821 18.0024 153.697 18.0049L153.669 18.0052L153.641 18.0049C153.629 18.0047 153.618 18.0043 153.606 18.0037L153.581 18.0024L153.552 18.0002L153.519 17.9969L153.489 17.9932L153.462 17.9893L153.419 17.982C153.406 17.9795 153.393 17.9768 153.38 17.974L153.36 17.9696L153.33 17.9621L153.31 17.9566L153.263 17.9427L153.229 17.9315L153.202 17.9217L153.181 17.914L153.143 17.8985L153.112 17.8847L153.091 17.8752L153.057 17.8581L153.011 17.8335L152.972 17.8111L152.955 17.8002L152.926 17.7818L152.91 17.7707L152.893 17.7593C152.882 17.7514 152.871 17.7434 152.86 17.7351L152.833 17.7143L152.791 17.6795L152.762 17.6533L152.727 17.6205L152.701 17.5945L152.679 17.5709L152.645 17.5331L152.616 17.498L152.604 17.4824L152.584 17.456L152.565 17.4291L152.539 17.3905L152.528 17.373L152.507 17.3389L152.491 17.3114L152.482 17.2943L152.473 17.2771C152.467 17.2657 152.461 17.2543 152.456 17.2427C152.446 17.2219 152.436 17.2007 152.427 17.1793L152.42 17.1615L152.407 17.1299L152.401 17.1115L152.39 17.0813L152.38 17.0491L152.366 16.9992C152.357 16.966 152.35 16.9322 152.344 16.898C152.331 16.8292 152.324 16.7586 152.323 16.6866L152.323 16.6584V3.68227C152.323 2.96495 152.883 2.37861 153.59 2.33777H153.748ZM149.73 4.90801L149.758 4.9083L149.797 4.90969L149.842 4.91263C149.864 4.91443 149.885 4.91675 149.907 4.91958L149.953 4.92653C149.975 4.93022 149.997 4.93447 150.019 4.93924L150.052 4.94683L150.095 4.95827C150.115 4.96386 150.135 4.96989 150.154 4.97636L150.188 4.98802L150.209 4.99572L150.257 5.01535L150.281 5.02554L150.295 5.03213C150.309 5.03838 150.322 5.04485 150.335 5.05152L150.353 5.0607L150.392 5.08186L150.438 5.10947L150.45 5.11661C150.468 5.12836 150.487 5.14057 150.504 5.15319L150.522 5.16564L150.566 5.19933L150.593 5.2211L150.625 5.24868L150.63 5.25379C150.654 5.27478 150.676 5.2966 150.698 5.31918L150.721 5.34315C150.736 5.35932 150.75 5.37588 150.764 5.39278L150.791 5.4265C150.804 5.44293 150.817 5.45967 150.829 5.47671L150.856 5.51681L150.875 5.54652C150.998 5.74483 151.071 5.9774 151.076 6.22661L151.076 6.25479V14.287C151.076 14.8293 150.756 15.2967 150.294 15.5102C150.13 15.5858 149.949 15.6295 149.758 15.6335L149.73 15.6338L149.701 15.6335C149.673 15.6329 149.646 15.6315 149.618 15.6292C149.587 15.6267 149.556 15.623 149.525 15.6183L149.487 15.612L149.44 15.6025C149.42 15.5983 149.401 15.5937 149.383 15.5886L149.358 15.582L149.322 15.5711L149.291 15.5608L149.256 15.5482L149.248 15.5453C149.235 15.5401 149.221 15.5346 149.208 15.529L149.189 15.521L149.141 15.4985L149.107 15.4815L149.061 15.4564L149.049 15.4496C149.036 15.442 149.024 15.4342 149.011 15.4262L148.981 15.4068L148.932 15.3727L148.883 15.3342L148.844 15.3018L148.828 15.2879L148.806 15.2673L148.765 15.2271L148.748 15.2097L148.725 15.1836L148.708 15.1647L148.676 15.1262L148.66 15.105L148.635 15.0719L148.619 15.0485L148.593 15.0102L148.572 14.9753L148.554 14.9448L148.543 14.9243C148.531 14.9026 148.52 14.8807 148.51 14.8583C148.5 14.8383 148.491 14.8179 148.483 14.7973L148.474 14.7759L148.46 14.7389C148.457 14.7279 148.453 14.7169 148.449 14.7058C148.437 14.6686 148.426 14.6306 148.417 14.5921L148.409 14.5511L148.403 14.52L148.401 14.5067C148.398 14.4889 148.395 14.4709 148.393 14.4528C148.391 14.4381 148.39 14.4232 148.388 14.4084V6.13341C148.45 5.44648 149.027 4.90801 149.73 4.90801ZM165.489 4.8072C165.692 4.8072 165.885 4.85228 166.058 4.933C166.508 5.14328 166.823 5.59531 166.835 6.12218L166.836 6.15389V14.1861C166.836 14.7416 166.499 15.2186 166.019 15.4244L165.995 15.4347C165.952 15.4521 165.908 15.4673 165.863 15.4803L165.842 15.4859L165.816 15.4927C165.725 15.5157 165.629 15.5292 165.531 15.5322L165.489 15.5329C164.754 15.5329 164.157 14.9451 164.142 14.2143L164.142 14.1861V6.15389C164.142 5.4195 164.73 4.82248 165.461 4.80749L165.489 4.8072ZM183.377 5.17411C186.097 5.17411 188.259 7.1869 188.259 10.0561C188.259 12.9253 186.083 14.9515 183.377 14.9515C180.671 14.9515 178.468 12.9253 178.468 10.0561C178.468 7.1869 180.671 5.17411 183.377 5.17411ZM202.88 5.20145C205.165 5.20145 206.824 6.37079 207.327 8.32909H204.757C204.403 7.68996 203.75 7.34994 202.88 7.34994C201.384 7.34994 200.392 8.41066 200.392 10.0697C200.392 11.8374 201.398 12.871 203.07 12.871C204.226 12.871 205.029 12.2592 205.382 11.1848H202.432V9.47128H207.49V11.6336C207.001 13.2791 205.41 14.9245 202.894 14.9245C200.038 14.9245 198.026 12.9253 198.026 10.0697C198.026 7.21397 200.024 5.20145 202.88 5.20145ZM177.339 5.31008V7.078L173.232 12.9525H177.339V14.8562H170.594V13.0887L174.673 7.21397H170.594V5.31008H177.339ZM193.455 5.31008C195.794 5.31008 196.964 6.6565 196.964 8.31542C196.964 9.51229 196.311 10.6408 194.842 11.076L197.045 14.8562H194.421L192.435 11.2529H191.878V14.8562H189.553V5.31008H193.455ZM211.108 5.31008V14.8562H208.783V5.31008H211.108ZM183.377 7.28205C181.827 7.28205 180.848 8.35616 180.848 10.0561C180.848 11.7289 181.827 12.83 183.377 12.83C184.9 12.83 185.893 11.7289 185.893 10.0561C185.893 8.35616 184.9 7.28205 183.377 7.28205ZM193.319 7.24113H191.878V9.60743H193.319C194.19 9.60743 194.598 9.15869 194.598 8.41066C194.598 7.70354 194.19 7.24113 193.319 7.24113Z" clip-rule="evenodd" fill-rule="evenodd"></path>
<path fill="white" d="M256.513 15.8676H251.555V2.98148H256.462C257.788 2.98148 258.933 3.23945 259.898 3.75539C260.867 4.26732 261.614 5.00558 262.138 5.97016C262.666 6.93073 262.93 8.08219 262.931 9.42453C262.931 10.7669 262.669 11.9205 262.144 12.8853C261.62 13.8458 260.877 14.5841 259.917 15.1C258.956 15.6117 257.822 15.8676 256.513 15.8676ZM255.053 12.8976H256.387C257.025 12.8976 257.568 12.7949 258.017 12.5894C258.47 12.3839 258.814 12.0296 259.049 11.5263C259.288 11.0226 259.407 10.322 259.407 9.42453C259.407 8.52704 259.286 7.82656 259.042 7.32309C258.803 6.81963 258.451 6.46527 257.985 6.26C257.524 6.05407 256.957 5.95122 256.286 5.95144H255.053V12.8976ZM263.591 5.80067V2.98114H274.791V5.80067H270.915V15.8679H267.467V5.80034L263.591 5.80067ZM276.107 15.8676V2.98148H279.606V8.01511H284.237V2.98148H287.735V15.8676H284.237V10.834H279.606V15.8676H276.107ZM237.612 20.5235V17.606H239.421V17.9847H238.052V18.874H239.291V19.2511H238.052V20.5235H237.612ZM240.563 17.606V20.5235H240.123V17.606H240.563ZM241.364 20.5235V17.606H242.404C242.63 17.606 242.818 17.645 242.967 17.723C243.117 17.8008 243.229 17.9084 243.303 18.0459C243.377 18.183 243.414 18.3412 243.414 18.5206C243.414 18.6989 243.377 18.8561 243.302 18.992C243.225 19.1294 243.108 19.2395 242.966 19.3069C242.816 19.3818 242.629 19.4192 242.403 19.4192H241.615V19.0405H242.363C242.505 19.0405 242.621 19.0201 242.711 18.9793C242.801 18.9383 242.867 18.8789 242.909 18.8011C242.95 18.7233 242.971 18.6297 242.971 18.5203C242.971 18.41 242.95 18.3146 242.907 18.2341C242.864 18.152 242.794 18.0867 242.709 18.0489C242.62 18.0052 242.503 17.9834 242.357 17.9834H241.804V20.5235H241.364ZM242.805 19.207L243.525 20.5235H243.024L242.317 19.207H242.805ZM245.702 18.3722C245.696 18.3091 245.676 18.2482 245.644 18.1939C245.611 18.1397 245.567 18.0935 245.514 18.059C245.403 17.9839 245.265 17.9463 245.098 17.9463C244.978 17.9463 244.874 17.9652 244.787 18.0031C244.706 18.0351 244.636 18.0882 244.584 18.1569C244.536 18.2209 244.511 18.2984 244.512 18.3779C244.512 18.4474 244.528 18.5073 244.56 18.5574C244.594 18.6076 244.637 18.6499 244.69 18.6844C244.744 18.7177 244.802 18.7455 244.864 18.768C244.926 18.7901 244.985 18.8083 245.042 18.8225L245.327 18.8964C245.42 18.9191 245.515 18.95 245.614 18.989C245.711 19.028 245.802 19.0793 245.885 19.1428C245.969 19.2067 246.036 19.2856 246.088 19.3795C246.14 19.4735 246.166 19.5861 246.166 19.7171C246.166 19.8823 246.123 20.029 246.038 20.1574C245.953 20.2855 245.83 20.3866 245.669 20.4606C245.509 20.5348 245.314 20.5719 245.086 20.5719C244.868 20.5719 244.679 20.5373 244.519 20.468C244.36 20.3984 244.235 20.3001 244.145 20.1731C244.054 20.0447 244.005 19.8927 243.995 19.7171H244.436C244.445 19.8225 244.479 19.9103 244.539 19.9805C244.6 20.0501 244.677 20.1019 244.771 20.136C244.866 20.1694 244.97 20.186 245.083 20.1858C245.208 20.1858 245.318 20.1663 245.415 20.1273C245.513 20.0872 245.59 20.0321 245.646 19.9622C245.702 19.8908 245.73 19.8077 245.73 19.7128C245.73 19.6265 245.705 19.5558 245.656 19.5005C245.601 19.4405 245.534 19.3937 245.458 19.3638C245.367 19.3251 245.273 19.2933 245.177 19.2685L244.833 19.1742C244.599 19.1107 244.414 19.0171 244.277 18.8934C244.141 18.7701 244.073 18.6069 244.073 18.4036C244.073 18.2354 244.119 18.0886 244.21 17.9634C244.306 17.835 244.433 17.7342 244.581 17.6715C244.737 17.6011 244.912 17.5659 245.108 17.5659C245.305 17.5659 245.479 17.6005 245.631 17.6698C245.782 17.7394 245.902 17.8349 245.989 17.9563C246.077 18.0769 246.122 18.2155 246.126 18.3722H245.702ZM246.709 17.9847V17.606H248.967V17.9847H248.056V20.5235H247.618V17.9847H246.709ZM253.271 18.5544H252.827C252.798 18.3806 252.702 18.2249 252.561 18.1201C252.492 18.0694 252.416 18.031 252.334 18.0065C252.249 17.9806 252.16 17.9675 252.071 17.9677C251.903 17.9677 251.752 18.01 251.619 18.0947C251.487 18.179 251.383 18.3028 251.306 18.4661C251.23 18.63 251.192 18.8294 251.192 19.0646C251.192 19.3019 251.23 19.5024 251.305 19.666C251.382 19.8291 251.487 19.9525 251.62 20.036C251.753 20.1196 251.903 20.1614 252.069 20.1614C252.161 20.1614 252.248 20.1491 252.331 20.1246C252.415 20.0988 252.49 20.0612 252.558 20.012C252.625 19.9627 252.682 19.9024 252.729 19.8311C252.776 19.7589 252.809 19.6762 252.827 19.5831L253.272 19.5847C253.249 19.7238 253.202 19.8577 253.133 19.9805C253.066 20.0994 252.978 20.2048 252.873 20.2914C252.765 20.3793 252.642 20.4472 252.511 20.492C252.375 20.5395 252.227 20.5632 252.066 20.5632C251.814 20.5632 251.588 20.5034 251.391 20.3837C251.194 20.2634 251.038 20.091 250.924 19.8665C250.811 19.6426 250.754 19.3752 250.754 19.0646C250.754 18.7532 250.811 18.4859 250.925 18.2626C251.039 18.0386 251.195 17.8666 251.392 17.7467C251.59 17.6264 251.814 17.5662 252.066 17.5662C252.221 17.5662 252.365 17.5885 252.499 17.6331C252.634 17.6767 252.755 17.7414 252.863 17.827C252.97 17.9112 253.059 18.0146 253.129 18.1372C253.199 18.2589 253.247 18.3977 253.271 18.5544ZM253.959 20.5235V17.606H254.399V20.1444H255.721V20.5235H253.959ZM256.779 20.5235H256.312L257.361 17.606H257.87L258.92 20.5235H258.453L257.628 18.1359H257.605L256.779 20.5235ZM256.857 19.3808H258.373V19.7512H256.857V19.3808ZM261.07 18.3722C261.064 18.3091 261.045 18.248 261.012 18.1937C260.979 18.1394 260.935 18.0933 260.882 18.059C260.771 17.9839 260.633 17.9463 260.466 17.9463C260.346 17.9463 260.242 17.9652 260.155 18.0031C260.074 18.035 260.004 18.0882 259.951 18.1569C259.904 18.221 259.879 18.2985 259.88 18.3779C259.88 18.4474 259.896 18.5073 259.928 18.5574C259.962 18.6076 260.005 18.6499 260.058 18.6844C260.112 18.7177 260.17 18.7455 260.232 18.768C260.294 18.7901 260.353 18.8083 260.41 18.8225L260.695 18.8964C260.792 18.9206 260.888 18.9516 260.981 18.989C261.079 19.028 261.17 19.0793 261.253 19.1428C261.337 19.2067 261.404 19.2856 261.456 19.3795C261.508 19.4735 261.534 19.5861 261.534 19.7171C261.534 19.8823 261.491 20.029 261.406 20.1574C261.321 20.2855 261.198 20.3866 261.037 20.4606C260.877 20.5348 260.682 20.5719 260.454 20.5719C260.236 20.5719 260.047 20.5373 259.887 20.468C259.728 20.3984 259.603 20.3001 259.513 20.1731C259.422 20.0447 259.372 19.8927 259.363 19.7171H259.804C259.813 19.8225 259.847 19.9103 259.907 19.9805C259.968 20.0501 260.045 20.1019 260.139 20.136C260.234 20.1694 260.338 20.186 260.451 20.1858C260.576 20.1858 260.686 20.1663 260.783 20.1273C260.881 20.0872 260.958 20.0321 261.014 19.9622C261.07 19.8908 261.098 19.8077 261.098 19.7128C261.098 19.6265 261.073 19.5558 261.024 19.5005C260.969 19.4405 260.902 19.3937 260.826 19.3638C260.735 19.3251 260.641 19.2933 260.545 19.2685L260.201 19.1742C259.967 19.1107 259.782 19.0171 259.645 18.8934C259.509 18.7701 259.441 18.6069 259.441 18.4036C259.441 18.2354 259.487 18.0886 259.578 17.9634C259.674 17.835 259.801 17.7342 259.949 17.6715C260.104 17.6011 260.28 17.5659 260.475 17.5659C260.673 17.5659 260.847 17.6005 260.998 17.6698C261.15 17.7394 261.27 17.8349 261.357 17.9563C261.445 18.0769 261.49 18.2155 261.494 18.3722H261.07ZM263.812 18.3722C263.806 18.3092 263.786 18.2482 263.754 18.194C263.721 18.1397 263.677 18.0935 263.624 18.059C263.514 17.9839 263.375 17.9463 263.208 17.9463C263.088 17.9463 262.984 17.9652 262.897 18.0031C262.817 18.035 262.746 18.0882 262.694 18.1569C262.647 18.221 262.622 18.2985 262.622 18.3779C262.622 18.4474 262.638 18.5073 262.671 18.5574C262.704 18.6076 262.747 18.6499 262.8 18.6844C262.855 18.7177 262.913 18.7455 262.974 18.768C263.036 18.7901 263.095 18.8083 263.152 18.8225L263.437 18.8964C263.53 18.9191 263.626 18.95 263.723 18.989C263.822 19.028 263.912 19.0793 263.996 19.1428C264.079 19.2067 264.147 19.2856 264.198 19.3795C264.25 19.4735 264.276 19.5861 264.276 19.7171C264.276 19.8823 264.233 20.029 264.148 20.1574C264.064 20.2855 263.941 20.3866 263.779 20.4606C263.619 20.5348 263.424 20.5719 263.196 20.5719C262.978 20.5719 262.789 20.5373 262.629 20.468C262.47 20.3984 262.345 20.3001 262.255 20.1731C262.164 20.0447 262.114 19.8927 262.105 19.7171H262.547C262.555 19.8225 262.59 19.9103 262.649 19.9805C262.71 20.0501 262.788 20.1019 262.882 20.136C262.977 20.1694 263.081 20.186 263.194 20.1858C263.318 20.1858 263.429 20.1663 263.526 20.1273C263.623 20.0872 263.7 20.0321 263.756 19.9622C263.812 19.8908 263.84 19.8077 263.84 19.7128C263.84 19.6265 263.816 19.5558 263.766 19.5005C263.712 19.4405 263.644 19.3937 263.568 19.3638C263.477 19.3251 263.383 19.2933 263.288 19.2685L262.943 19.1742C262.709 19.1107 262.524 19.0171 262.387 18.8934C262.251 18.7701 262.183 18.6069 262.183 18.4036C262.183 18.2354 262.229 18.0886 262.32 17.9634C262.416 17.835 262.544 17.7342 262.691 17.6715C262.846 17.6011 263.022 17.5659 263.218 17.5659C263.415 17.5659 263.589 17.6005 263.741 17.6698C263.893 17.7394 264.012 17.8349 264.1 17.9563C264.187 18.0769 264.233 18.2155 264.237 18.3722H263.812ZM266.185 20.5235V17.606H266.625V20.1444H267.947V20.5235H266.185ZM271.03 19.0646C271.03 19.3761 270.973 19.644 270.86 19.8682C270.746 20.0911 270.589 20.2629 270.391 20.3837C270.193 20.5034 269.969 20.5632 269.717 20.5632C269.464 20.5632 269.239 20.5034 269.04 20.3837C268.843 20.2634 268.687 20.091 268.573 19.8665C268.459 19.6426 268.402 19.3752 268.402 19.0646C268.402 18.7532 268.459 18.4859 268.573 18.2626C268.687 18.0386 268.843 17.8666 269.04 17.7467C269.239 17.6264 269.464 17.5662 269.717 17.5662C269.969 17.5662 270.193 17.6264 270.391 17.7467C270.589 17.8664 270.745 18.0383 270.86 18.2626C270.973 18.4859 271.03 18.753 271.03 19.0646ZM270.594 19.0649C270.594 18.8275 270.556 18.6276 270.479 18.4651C270.403 18.302 270.299 18.1785 270.166 18.0947C270.032 18.0097 269.876 17.9657 269.717 17.968C269.549 17.968 269.399 18.0104 269.267 18.0951C269.135 18.1786 269.03 18.302 268.953 18.4651C268.878 18.6276 268.84 18.8275 268.84 19.0649C268.84 19.3022 268.878 19.5027 268.953 19.6663C269.03 19.8285 269.135 19.9519 269.267 20.0364C269.399 20.12 269.549 20.1617 269.717 20.1617C269.884 20.1617 270.034 20.12 270.166 20.0364C270.299 19.9519 270.403 19.8285 270.479 19.6663C270.556 19.5027 270.594 19.3022 270.594 19.0649ZM273.714 18.5277C273.688 18.4453 273.651 18.3671 273.603 18.2953C273.559 18.2275 273.504 18.1678 273.439 18.1188C273.374 18.0687 273.3 18.0306 273.221 18.0061C273.135 17.9796 273.045 17.9666 272.955 17.9677C272.791 17.9677 272.642 18.01 272.51 18.0947C272.378 18.179 272.274 18.3028 272.197 18.4661C272.121 18.6288 272.083 18.8279 272.083 19.0632C272.083 19.2995 272.122 19.4994 272.198 19.663C272.276 19.8265 272.381 19.9505 272.515 20.0347C272.649 20.1194 272.801 20.1617 272.972 20.1617C273.131 20.1617 273.269 20.1294 273.387 20.0648C273.505 20.0002 273.597 19.909 273.662 19.7913C273.727 19.6725 273.76 19.5329 273.76 19.3724L273.874 19.3938H273.039V19.0305H274.186V19.3624C274.186 19.6076 274.134 19.8203 274.029 20.0006C273.925 20.1802 273.782 20.3189 273.599 20.4165C273.417 20.5145 273.208 20.5636 272.972 20.5636C272.708 20.5636 272.476 20.5027 272.277 20.381C272.078 20.2594 271.924 20.087 271.812 19.8639C271.701 19.6399 271.646 19.374 271.646 19.0662C271.646 18.8331 271.678 18.6242 271.742 18.4394C271.801 18.2655 271.893 18.1051 272.015 17.9677C272.133 17.8375 272.271 17.7384 272.429 17.6702C272.594 17.5998 272.772 17.5642 272.952 17.5659C273.11 17.5659 273.257 17.5893 273.392 17.6361C273.529 17.6822 273.651 17.7482 273.757 17.834C273.975 18.0065 274.12 18.2537 274.166 18.5277H273.714ZM275.345 17.606V20.5235H274.905V17.606H275.345ZM277.738 18.3722C277.733 18.3091 277.713 18.2482 277.68 18.1939C277.648 18.1397 277.603 18.0935 277.55 18.059C277.44 17.9839 277.301 17.9463 277.134 17.9463C277.014 17.9463 276.911 17.9652 276.824 18.0031C276.743 18.0349 276.672 18.0881 276.62 18.1569C276.573 18.221 276.548 18.2985 276.548 18.3779C276.548 18.4474 276.565 18.5073 276.597 18.5574C276.63 18.6076 276.674 18.6499 276.727 18.6844C276.781 18.7177 276.839 18.7455 276.9 18.768C276.962 18.7901 277.022 18.8083 277.079 18.8225L277.363 18.8964C277.456 18.9191 277.552 18.95 277.65 18.989C277.748 19.028 277.838 19.0793 277.922 19.1428C278.005 19.2067 278.073 19.2856 278.124 19.3795C278.176 19.4735 278.203 19.5861 278.203 19.7171C278.203 19.8823 278.16 20.029 278.074 20.1574C277.99 20.2855 277.867 20.3866 277.705 20.4606C277.545 20.5348 277.35 20.5719 277.123 20.5719C276.904 20.5719 276.715 20.5373 276.556 20.468C276.406 20.4065 276.276 20.3044 276.181 20.1731C276.091 20.0447 276.041 19.8927 276.031 19.7171H276.473C276.482 19.8225 276.516 19.9103 276.576 19.9805C276.636 20.0501 276.714 20.1019 276.808 20.136C276.903 20.1694 277.007 20.186 277.12 20.1858C277.244 20.1858 277.355 20.1663 277.452 20.1273C277.55 20.0872 277.627 20.0321 277.682 19.9622C277.738 19.8913 277.768 19.8031 277.767 19.7128C277.767 19.6265 277.742 19.5558 277.692 19.5005C277.638 19.4405 277.57 19.3937 277.495 19.3638C277.403 19.3251 277.31 19.2933 277.214 19.2685L276.869 19.1742C276.635 19.1107 276.45 19.0171 276.313 18.8934C276.178 18.7701 276.11 18.6069 276.11 18.4036C276.11 18.2354 276.155 18.0886 276.247 17.9634C276.342 17.835 276.47 17.7342 276.617 17.6715C276.783 17.5991 276.963 17.5631 277.144 17.5659C277.342 17.5659 277.516 17.6005 277.667 17.6698C277.819 17.7394 277.939 17.8349 278.026 17.9563C278.113 18.0769 278.159 18.2155 278.162 18.3722H277.738ZM278.745 17.9847V17.606H281.003V17.9847H280.093V20.5235H279.654V17.9847H278.745ZM282.103 17.606V20.5235H281.663V17.606H282.103ZM285.328 18.5544H284.883C284.854 18.3805 284.758 18.2248 284.617 18.1201C284.548 18.0694 284.472 18.031 284.39 18.0065C284.305 17.9806 284.216 17.9675 284.126 17.9677C283.958 17.9677 283.808 18.01 283.675 18.0947C283.543 18.179 283.439 18.3028 283.362 18.4661C283.286 18.63 283.248 18.8294 283.248 19.0646C283.248 19.3019 283.286 19.5024 283.362 19.666C283.438 19.8291 283.543 19.9525 283.676 20.036C283.809 20.1196 283.959 20.1614 284.125 20.1614C284.217 20.1614 284.305 20.1491 284.387 20.1246C284.471 20.0988 284.546 20.0612 284.614 20.012C284.755 19.9088 284.852 19.7553 284.883 19.5831L285.328 19.5847C285.305 19.7238 285.258 19.8577 285.189 19.9805C285.122 20.0994 285.034 20.2048 284.928 20.2914C284.821 20.3793 284.698 20.4472 284.567 20.492C284.424 20.5407 284.273 20.5648 284.122 20.5632C283.87 20.5632 283.645 20.5034 283.447 20.3837C283.249 20.2634 283.094 20.091 282.98 19.8665C282.867 19.6426 282.81 19.3752 282.81 19.0646C282.81 18.7532 282.867 18.4859 282.981 18.2626C283.095 18.0386 283.251 17.8666 283.448 17.7467C283.646 17.6264 283.871 17.5662 284.122 17.5662C284.277 17.5662 284.421 17.5885 284.555 17.6331C284.69 17.6767 284.811 17.7414 284.919 17.827C285.026 17.9112 285.115 18.0146 285.185 18.1372C285.255 18.2589 285.303 18.3977 285.328 18.5544ZM287.606 18.3722C287.601 18.3091 287.581 18.2481 287.548 18.1938C287.516 18.1395 287.471 18.0934 287.418 18.059C287.308 17.9839 287.169 17.9463 287.002 17.9463C286.882 17.9463 286.779 17.9652 286.691 18.0031C286.604 18.0404 286.536 18.0916 286.488 18.1569C286.441 18.221 286.416 18.2985 286.416 18.3779C286.415 18.4412 286.432 18.5036 286.465 18.5574C286.498 18.6076 286.541 18.6499 286.595 18.6844C286.649 18.7177 286.707 18.7455 286.768 18.768C286.83 18.7901 286.889 18.8083 286.946 18.8225L287.231 18.8964C287.324 18.9191 287.42 18.95 287.518 18.989C287.616 19.028 287.706 19.0793 287.79 19.1428C287.873 19.2067 287.941 19.2856 287.992 19.3795C288.044 19.4735 288.07 19.5861 288.07 19.7171C288.07 19.8823 288.028 20.029 287.942 20.1574C287.858 20.2855 287.734 20.3866 287.573 20.4606C287.413 20.5348 287.218 20.5719 286.99 20.5719C286.772 20.5719 286.583 20.5373 286.423 20.468C286.264 20.3984 286.139 20.3001 286.049 20.1731C285.959 20.0447 285.909 19.8927 285.899 19.7171H286.341C286.35 19.8225 286.384 19.9103 286.444 19.9805C286.504 20.0501 286.582 20.1019 286.676 20.136C286.771 20.1694 286.875 20.186 286.988 20.1858C287.112 20.1858 287.223 20.1663 287.32 20.1273C287.417 20.0872 287.494 20.0321 287.55 19.9622C287.606 19.8908 287.634 19.8077 287.634 19.7128C287.634 19.6265 287.61 19.5558 287.56 19.5005C287.505 19.4408 287.438 19.3941 287.362 19.3638C287.271 19.3251 287.177 19.2933 287.082 19.2685L286.737 19.1742C286.503 19.1107 286.318 19.0171 286.181 18.8934C286.045 18.7701 285.977 18.6069 285.977 18.4036C285.977 18.2354 286.023 18.0886 286.115 17.9634C286.21 17.835 286.338 17.7343 286.485 17.6715C286.641 17.6011 286.816 17.5659 287.012 17.5659C287.209 17.5659 287.384 17.6005 287.535 17.6698C287.687 17.7394 287.807 17.8349 287.894 17.9563C287.981 18.0769 288.027 18.2155 288.03 18.3722H287.606Z"></path>
<path fill="white" d="M243.81 15.8432C247.41 15.8432 250.329 12.9247 250.329 9.32424C250.329 5.72378 247.41 2.8053 243.81 2.8053C240.209 2.8053 237.291 5.72378 237.291 9.32424C237.291 12.9247 240.209 15.8432 243.81 15.8432ZM243.81 12.5001C244.227 12.5001 244.64 12.418 245.025 12.2584C245.411 12.0988 245.761 11.8649 246.056 11.5699C246.351 11.275 246.585 10.9249 246.744 10.5396C246.904 10.1543 246.986 9.74131 246.986 9.32424C246.986 8.90718 246.904 8.4942 246.744 8.10888C246.585 7.72356 246.351 7.37345 246.056 7.07855C245.761 6.78364 245.411 6.5497 245.025 6.3901C244.64 6.23049 244.227 6.14835 243.81 6.14835C242.968 6.14835 242.16 6.48295 241.564 7.07855C240.969 7.67414 240.634 8.48194 240.634 9.32424C240.634 10.1665 240.969 10.9743 241.564 11.5699C242.16 12.1655 242.968 12.5001 243.81 12.5001Z" clip-rule="evenodd" fill-rule="evenodd"></path>
</svg>
