<?xml version="1.0" encoding="UTF-8"?>
<svg xmlns="http://www.w3.org/2000/svg" viewBox="0 0 1061 312.21">
  <polygon fill="#75A3FD" points="457.65 179.35 456.5 163.95 426.18 246.19 404.44 254.34 363.07 138.65 346.57 135.72 348.01 125.59 377.4 126.39 402.81 125.59 404.25 135.71 389.61 138.59 415.48 215.92 417.33 229.77 446.83 148.47 443.04 138.63 431.81 135.68 433.25 125.59 457.37 126.39 482.78 125.59 484.23 135.71 469.59 138.59 495.45 215.92 497.3 229.73 529.31 138.56 517.57 135.69 519.01 125.59 538.14 126.39 564.07 125.59 565.52 135.72 548.48 138.65 506.15 246.19 484.42 254.34 457.65 179.35"/>
  <path fill="#75A3FD" d="M610.47,254.46c-16.88,0-32.09-6.46-42.82-18.18-10.54-11.52-16.34-27.56-16.34-45.19,0-38.09,22.52-62.01,65.13-69.16h.01c34.36,0,59.23,26.76,59.23,63.63s-22.52,62.02-65.14,68.89h-.04s-.04,0-.04,0ZM609.94,135.81c-19.33,0-31.33,19.06-31.33,49.75s16.52,55.01,38.44,55.01c19.33,0,31.33-18.96,31.33-49.48,0-32.54-15.81-55.27-38.44-55.27Z"/>
  <path fill="#75A3FD" d="M708.05,249.99l-30.67.8-1.45-10.14,18.48-2.64v-94.78l-18.35,1.57-1.44-10.38,31.74-8.27,12.17-.84,1.29,21.74,38.34-25.13h.15c33.92,0,39.96,11.37,39.96,43.38v72.7l19.8,2.64-1.45,10.15-30.7-.8-25.67.8-1.45-10.12,13.22-2.64v-74.83c0-12.94-5.52-19.23-16.86-19.23-8.92,0-17.95,5.84-26.68,11.49l-.41.26-7.66,5.11v77.18l14.53,2.64-1.45,10.13-25.44-.8Z"/>
  <polygon fill="#75A3FD" points="924.07 249.99 908.34 250.79 859.48 189.77 857.24 185.13 857.24 238.02 871.78 240.66 870.33 250.79 845.15 249.99 814.22 250.79 812.77 240.65 831.25 238 831.25 80.85 812.9 81.37 811.47 71.01 843.47 62.75 857.24 61.64 857.24 177.7 863.84 174.87 905.49 138.14 898.34 135.67 898.34 125.59 920.69 126.39 940.82 125.59 942.56 135.72 927.99 138.41 879.18 178.14 884.17 181.23 935.14 237.99 947.01 240.68 945.57 250.79 924.07 249.99"/>
  <path fill="#75A3FD" d="M986.64,254.46c-23.8,0-39.17-13.41-39.17-34.17,0-9.8,3.72-16.88,9.3-24.5l.09-.13,59-19.67v-12.79c0-15.4-1.01-24.76-15.02-24.76-7.2,0-15.82,2.46-21.14,4.6l-4.5,20.13h-23.52v-20.03l48.01-21.22h.11c33.42,0,42.07,8.7,42.07,42.33v51.56c0,11.29,1.83,15.32,4.25,19.23h13.32l1.16,10.11-34.8,6.74-8.07-20.04-30.92,22.6h-.16ZM978.25,203.08c-3.18,3.45-4.79,8.27-4.79,14.31,0,16.38,11.3,17.65,14.76,17.65,7.55,0,14.08-4.9,16.54-6.74l11.11-7.49v-33.19l-37.62,15.46Z"/>
  <path fill="#75A3FD" d="M284.43,5.62c0-4.31-4.67-7.01-8.41-4.87l-44.31,25.45c-1.74,1-2.82,2.86-2.82,4.87v250.08c0,2,1.08,3.86,2.82,4.86l44.31,25.45c3.74,2.14,8.41-.56,8.41-4.87V5.62Z"/>
  <path fill="#75A3FD" d="M0,5.62C0,1.31,4.67-1.39,8.41.75l44.31,25.45c1.74,1,2.82,2.86,2.82,4.87v250.08c0,2-1.08,3.86-2.82,4.86l-44.31,25.45c-3.74,2.14-8.41-.56-8.41-4.87V5.62Z"/>
  <path fill="#75A3FD" d="M199.1,14.38c0-5.55-7.19-7.73-10.27-3.13l-30.76,45.89c-.62.93-.95,2.01-.95,3.13v191.66c0,1.11.32,2.2.95,3.13l30.76,45.89c3.08,4.6,10.27,2.42,10.27-3.13V14.38Z"/>
  <path fill="#75A3FD" d="M85.33,14.38c0-5.55,7.18-7.73,10.27-3.13l30.76,45.89c.62.93.95,2.01.95,3.13v191.66c0,1.11-.32,2.2-.95,3.13l-30.76,45.89c-3.09,4.6-10.27,2.42-10.27-3.13V14.38Z"/>
</svg>
