<svg width="62" height="63" viewBox="0 0 62 63" fill="none" xmlns="http://www.w3.org/2000/svg">
<g filter="url(#filter0_d_8625_1253)">
<rect x="1" width="60" height="60" rx="30" fill="white" shape-rendering="crispEdges"/>
<path d="M48.6591 26.2602C49.5945 23.4526 49.2724 20.3771 47.7765 17.8233C45.5268 13.9064 41.0043 11.8912 36.5874 12.8395C34.6225 10.6259 31.7994 9.3671 28.8398 9.38514C24.325 9.37483 20.3192 12.2816 18.9302 16.5774C16.0299 17.1714 13.5264 18.9868 12.0614 21.5599C9.79495 25.4665 10.3116 30.3911 13.3395 33.7411C12.4041 36.5486 12.7262 39.6242 14.2221 42.178C16.4718 46.0949 20.9943 48.1101 25.4112 47.1618C27.3748 49.3754 30.1992 50.6342 33.1588 50.6149C37.6761 50.6265 41.6833 47.7171 43.0723 43.4175C45.9726 42.8235 48.4761 41.008 49.9411 38.435C52.2049 34.5283 51.687 29.6077 48.6603 26.2576L48.6591 26.2602ZM33.1613 47.9207C31.3536 47.9233 29.6026 47.2906 28.2149 46.1323C28.278 46.0988 28.3876 46.0382 28.4584 45.9944L36.6686 41.2528C37.0886 41.0145 37.3463 40.5674 37.3437 40.0842V28.5099L40.8136 30.5135C40.8509 30.5315 40.8754 30.5676 40.8806 30.6088V40.1937C40.8754 44.456 37.4236 47.9117 33.1613 47.9207ZM16.5607 40.8302C15.6549 39.266 15.3289 37.4325 15.6395 35.6532C15.7 35.6892 15.807 35.7549 15.883 35.7988L24.0931 40.5403C24.5093 40.7838 25.0247 40.7838 25.4421 40.5403L35.4651 34.7525V38.7597C35.4677 38.8009 35.4484 38.8408 35.4162 38.8666L27.1171 43.6584C23.4205 45.787 18.6996 44.5217 16.562 40.8302H16.5607ZM14.3999 22.9089C15.3019 21.3421 16.7256 20.1439 18.4213 19.5215C18.4213 19.5924 18.4174 19.7174 18.4174 19.805V29.2894C18.4148 29.7713 18.6725 30.2184 19.0913 30.4568L29.1143 36.2433L25.6444 38.2468C25.6096 38.27 25.5658 38.2739 25.5272 38.2572L17.2268 33.4615C13.538 31.3252 12.2727 26.6055 14.3987 22.9102L14.3999 22.9089ZM42.9086 29.5432L32.8856 23.7554L36.3555 21.7532C36.3902 21.73 36.4341 21.7261 36.4727 21.7428L44.773 26.5347C48.4684 28.6697 49.7349 33.3971 47.5999 37.0924C46.6967 38.6566 45.2742 39.8549 43.5799 40.4785V30.7106C43.5838 30.2287 43.3274 29.7829 42.9099 29.5432H42.9086ZM46.3617 24.3456C46.3012 24.3082 46.1942 24.2438 46.1182 24.2L37.9081 19.4584C37.4919 19.2149 36.9765 19.2149 36.559 19.4584L26.536 25.2462V21.2391C26.5335 21.1978 26.5528 21.1579 26.585 21.1321L34.884 16.3442C38.5806 14.2117 43.3068 15.4809 45.4379 19.1788C46.3385 20.7404 46.6645 22.5688 46.3591 24.3456H46.3617ZM24.6497 31.4875L21.1786 29.484C21.1412 29.4659 21.1167 29.4299 21.1116 29.3886V19.8037C21.1142 15.5363 24.5763 12.078 28.8437 12.0806C30.6488 12.0806 32.396 12.7145 33.7837 13.869C33.7205 13.9025 33.6123 13.9631 33.5402 14.0069L25.33 18.7484C24.91 18.9868 24.6523 19.4326 24.6549 19.9158L24.6497 31.485V31.4875ZM26.5347 27.4237L30.9993 24.8455L35.4638 27.4224V32.5776L30.9993 35.1545L26.5347 32.5776V27.4237Z" fill="#0E1A16"/>
</g>
<defs>
<filter id="filter0_d_8625_1253" x="0" y="0" width="62" height="63" filterUnits="userSpaceOnUse" color-interpolation-filters="sRGB">
<feFlood flood-opacity="0" result="BackgroundImageFix"/>
<feColorMatrix in="SourceAlpha" type="matrix" values="0 0 0 0 0 0 0 0 0 0 0 0 0 0 0 0 0 0 127 0" result="hardAlpha"/>
<feOffset dy="2"/>
<feGaussianBlur stdDeviation="0.5"/>
<feComposite in2="hardAlpha" operator="out"/>
<feColorMatrix type="matrix" values="0 0 0 0 0 0 0 0 0 0 0 0 0 0 0 0 0 0 0.14 0"/>
<feBlend mode="normal" in2="BackgroundImageFix" result="effect1_dropShadow_8625_1253"/>
<feBlend mode="normal" in="SourceGraphic" in2="effect1_dropShadow_8625_1253" result="shape"/>
</filter>
</defs>
</svg>
