<svg width="83" height="83" viewBox="0 0 83 83" fill="none" xmlns="http://www.w3.org/2000/svg">
<g clip-path="url(#clip0_9308_431)">
<path d="M0.0213666 2.97443C0.00959106 1.33516 1.3352 0 2.9745 0H79.6961C81.3429 0 82.6716 1.34698 82.649 2.99367L81.5991 79.6357C81.5762 81.3056 80.1743 82.6243 78.5061 82.5451L3.35934 78.9766C1.79275 78.9022 0.557551 77.6162 0.546285 76.0479L0.0213666 2.97443Z" fill="#BEE6C4"/>
<path d="M40.7073 24.8857C45.6052 24.8732 50.3171 26.7302 53.886 30.0674L54.2278 30.3955C54.478 30.6535 54.6183 30.9989 54.6184 31.3584C54.6184 31.7199 54.4765 32.0676 54.2239 32.3262C53.9712 32.5846 53.6272 32.7339 53.2659 32.7422C52.9045 32.7504 52.5535 32.6167 52.2893 32.3701C49.1975 29.3378 45.0371 27.6434 40.7063 27.6533H40.6135C36.3838 27.6653 32.3206 29.303 29.2649 32.2275L29.0803 32.4043L29.261 32.585L33.0002 36.3301C33.194 36.5236 33.3257 36.7705 33.3792 37.0391C33.4326 37.3076 33.4058 37.586 33.301 37.8389C33.1962 38.0918 33.018 38.3079 32.7903 38.46C32.5627 38.6118 32.2953 38.6925 32.0217 38.6924H22.219C21.852 38.6924 21.5 38.5466 21.2405 38.2871C20.9812 38.0277 20.8353 37.6763 20.8352 37.3096V27.5068L20.8391 27.4043C20.8566 27.1666 20.9347 26.9365 21.0676 26.7373C21.2197 26.5096 21.4367 26.3324 21.6897 26.2275C21.9426 26.1228 22.2211 26.095 22.4895 26.1484C22.7579 26.202 23.0041 26.3347 23.1975 26.5283L26.9426 30.2773L27.1165 30.4512L27.2932 30.2803C30.7542 26.94 35.337 25.0216 40.134 24.8926L40.5989 24.8857H40.7073Z" fill="#173630" stroke="#BEE6C4" stroke-width="0.5"/>
<path d="M41.3656 56.0587C36.5063 56.6728 31.602 55.4087 27.6502 52.5352L27.2706 52.2516C26.9907 52.0263 26.809 51.7007 26.7647 51.344C26.7203 50.9852 26.8184 50.6227 27.0374 50.335C27.2563 50.0475 27.5794 49.8571 27.937 49.8045C28.2946 49.7519 28.6594 49.8415 28.9519 50.0538C32.3928 52.6833 36.7298 53.8539 41.0266 53.312L41.1186 53.3006C45.3148 52.7691 49.1461 50.6447 51.8194 47.3669L51.9809 47.1688L51.7794 47.0117L47.6084 43.7543C47.3924 43.586 47.2313 43.3572 47.1453 43.0972C47.0592 42.8373 47.0516 42.5577 47.1245 42.2939C47.1975 42.03 47.3478 41.7936 47.5551 41.6148C47.7623 41.4361 48.0178 41.3232 48.2893 41.2897L58.0178 40.0855C58.382 40.0404 58.7493 40.1418 59.0387 40.3675C59.3278 40.593 59.5158 40.9239 59.561 41.2878L60.7652 51.0163L60.7739 51.1186C60.7857 51.3566 60.7365 51.5945 60.629 51.8086C60.5061 52.0533 60.3125 52.2558 60.0743 52.3909C59.8362 52.5259 59.5632 52.5877 59.2903 52.5677C59.0173 52.5475 58.7567 52.4461 58.541 52.2776L54.3637 49.0171L54.1698 48.8659L54.0154 49.0572C50.9909 52.7973 46.6785 55.2642 41.9336 55.9815L41.4732 56.0454L41.3656 56.0587Z" fill="#173630" stroke="#BEE6C4" stroke-width="0.5"/>
</g>
<defs>
<clipPath id="clip0_9308_431">
<rect width="82.69" height="82.69" fill="white"/>
</clipPath>
</defs>
</svg>
