<svg width="59" height="72" viewBox="0 0 59 72" fill="none" xmlns="http://www.w3.org/2000/svg">
<path d="M0 4.90479C0 2.39015 2.19961 0.441957 4.69584 0.74569L54.2181 6.77138C56.3208 7.02724 57.9018 8.81226 57.9018 10.9305V60.1962C57.9018 62.3145 56.3208 64.0995 54.2181 64.3553L4.69584 70.381C2.19961 70.6848 0 68.7366 0 66.2219V4.90479Z" fill="#BEE6C4"/>
<path d="M45.2859 18.3827C45.2859 17.8903 44.7535 17.5821 44.3265 17.8273L39.2678 20.7321C39.0689 20.8463 38.9463 21.0582 38.9463 21.2875V49.8373C38.9463 50.0667 39.0689 50.2786 39.2678 50.3928L44.3265 53.2976C44.7535 53.5428 45.2859 53.2346 45.2859 52.7422V18.3827Z" fill="#173630"/>
<path d="M12.8137 18.3827C12.8137 17.8903 13.3462 17.582 13.7732 17.8272L18.8318 20.7321C19.0307 20.8463 19.1534 21.0581 19.1534 21.2875V49.8373C19.1534 50.0667 19.0307 50.2785 18.8318 50.3927L13.7732 53.2976C13.3462 53.5428 12.8137 53.2345 12.8137 52.7421V18.3827Z" fill="#173630"/>
<path d="M35.5441 19.3824C35.5441 18.7495 34.7239 18.5001 34.3715 19.0258L30.8597 24.2657C30.789 24.3712 30.7512 24.4953 30.7512 24.6223V46.5026C30.7512 46.6296 30.789 46.7537 30.8597 46.8592L34.3715 52.099C34.7239 52.6248 35.5441 52.3753 35.5441 51.7424V19.3824Z" fill="#173630"/>
<path d="M22.5558 19.3824C22.5558 18.7495 23.376 18.5 23.7284 19.0258L27.2402 24.2656C27.3109 24.3711 27.3487 24.4952 27.3487 24.6222V46.5026C27.3487 46.6295 27.3109 46.7537 27.2402 46.8591L23.7284 52.099C23.376 52.6247 22.5558 52.3753 22.5558 51.7424V19.3824Z" fill="#173630"/>
</svg>
