<svg width="208" height="56" viewBox="0 0 208 56" fill="none" xmlns="http://www.w3.org/2000/svg">
<path d="M0 48.7657C0 51.2523 2.00871 53.2718 4.49527 53.2851L202.204 54.3449C204.802 54.3589 206.876 52.1847 206.741 49.5901L204.381 4.33085C204.255 1.91056 202.242 0.0206493 199.818 0.0469926L4.47037 2.17047C1.99363 2.1974 0 4.21282 0 6.6897V48.7657Z" fill="white"/>
<path d="M201.054 54.3384L201.056 54.0239L202.205 54.0298C202.497 54.0314 202.782 54.0035 203.057 53.9487L203.117 54.2573C203.733 54.1346 204.302 53.8869 204.799 53.5425L204.62 53.2837C205.09 52.9576 205.49 52.5381 205.794 52.0532L206.061 52.2202C206.381 51.708 206.601 51.1278 206.695 50.5073L206.386 50.4604C206.428 50.1839 206.442 49.8984 206.427 49.6069L206.368 48.4751L206.682 48.4585L206.563 46.1968L206.25 46.2124L206.132 43.9487L206.445 43.9341L206.328 41.6694L206.014 41.686L205.896 39.4233L206.21 39.4067L206.092 37.144L205.777 37.1606L205.659 34.897L205.974 34.8813L205.855 32.6187L205.542 32.6343L205.424 30.3716L205.737 30.356L205.619 28.0933L205.306 28.1079L205.188 25.8452L205.502 25.8286L205.384 23.5659L205.069 23.5825L204.951 21.3198L205.266 21.3032L205.147 19.0405L204.834 19.0562L204.716 16.7935L205.029 16.7778L204.911 14.5151L204.598 14.5308L204.479 12.2681L204.793 12.2524L204.676 9.98779L204.361 10.0044L204.243 7.7417L204.558 7.7251L204.439 5.4624L204.125 5.479L204.066 4.34717C204.052 4.07409 204.012 3.80808 203.949 3.55225L204.254 3.47803C204.113 2.9072 203.864 2.38108 203.53 1.92041L203.276 2.104C202.961 1.66865 202.565 1.29633 202.11 1.00928L202.278 0.743652C201.798 0.439926 201.256 0.225499 200.678 0.120605L200.622 0.429199C200.363 0.382165 200.095 0.358844 199.821 0.361816L198.659 0.374512L198.655 0.0600586H198.654L196.33 0.0854492L196.333 0.399902L194.008 0.425293L194.004 0.11084L191.679 0.13623L191.683 0.450684L189.356 0.475098L189.354 0.161621L187.027 0.187012L187.031 0.500488L184.705 0.525879L184.702 0.212402L182.377 0.237793L182.38 0.55127L180.055 0.57666L180.051 0.262207H180.05L177.725 0.287598L177.729 0.602051L175.403 0.627441L175.399 0.312988L173.074 0.338379L173.078 0.652832L170.752 0.678223L170.749 0.36377L168.423 0.38916L168.427 0.702637L166.101 0.728027L166.098 0.414551L163.771 0.439941L163.775 0.753418L161.45 0.778809L161.446 0.465332L159.12 0.489746L159.124 0.804199L156.799 0.82959L156.795 0.515137H156.794L154.47 0.540527L154.473 0.85498L152.147 0.880371L152.145 0.565918L149.818 0.591309L149.822 0.904785L147.496 0.930176L147.493 0.616699L145.167 0.64209L145.171 0.955566L142.846 0.980957L142.842 0.66748L140.516 0.691895L140.52 1.00635L138.194 1.03174L138.19 0.717285H138.189L135.865 0.742676L135.868 1.05713L133.543 1.08252L133.54 0.768066L131.214 0.793457L131.218 1.10791L128.892 1.13232L128.889 0.818848L126.562 0.844238L126.566 1.15771L124.24 1.18311L124.237 0.869629L121.912 0.89502L121.915 1.2085L119.59 1.23389L119.586 0.919434H119.585L117.26 0.944824L117.264 1.25928L114.938 1.28467L114.935 0.970215L112.609 0.995605L112.613 1.31006L110.287 1.33545L110.284 1.021L107.958 1.04639L107.962 1.35986L105.636 1.38525L105.633 1.07178L103.308 1.09717L103.311 1.41064L100.985 1.43604L100.981 1.12158H100.98L98.6553 1.14697L98.6592 1.46143L96.334 1.48682L96.3301 1.17236H96.3291L94.0049 1.19775L94.0088 1.51221L91.6826 1.5376L91.6797 1.22314L89.3535 1.24854L89.3574 1.56299L87.0312 1.5874L87.0283 1.27393L84.7021 1.29932L84.7061 1.61279L82.3809 1.63818L82.377 1.32373H82.376L80.0508 1.34912L80.0547 1.66357L77.7295 1.68896L77.7256 1.37451H77.7246L75.3994 1.3999L75.4033 1.71436L73.0781 1.73975L73.0752 1.42529L70.749 1.45068L70.7529 1.76514L68.4268 1.79053L68.4238 1.47607L66.0977 1.50146L66.1016 1.81494L63.7764 1.84033L63.7725 1.52686L61.4463 1.55127L61.4502 1.86572L59.125 1.89111L59.1211 1.57666H59.1201L56.7949 1.60205L56.7988 1.9165L54.4736 1.94189L54.4697 1.62744H54.4688L52.1445 1.65283L52.1484 1.96729L49.8223 1.99268L49.8193 1.67822L47.4932 1.70361L47.4971 2.01709L45.1709 2.04248L45.168 1.729L42.8408 1.75342H42.8418L42.8457 2.06787L40.5205 2.09326L40.5166 1.77881H40.5156L38.1904 1.8042L38.1943 2.11865L35.8691 2.14404L35.8652 1.82959H35.8643L33.54 1.85498L33.543 2.16943L31.2178 2.19482L31.2148 1.88037L28.8887 1.90576L28.8926 2.22021L26.5664 2.24463L26.5635 1.93115L24.2373 1.95654L24.2412 2.27002L21.915 2.29541L21.9111 1.98096L19.5859 2.00635L19.5898 2.3208L17.2646 2.34619L17.2607 2.03174H17.2598L14.9346 2.05713L14.9385 2.37158L12.6133 2.39697L12.6094 2.08252L10.2842 2.10791L10.2881 2.42236L7.96191 2.44775L7.95898 2.1333L5.63281 2.15869L5.63672 2.47217L4.47363 2.48486L4.26562 2.49268C4.059 2.505 3.85637 2.53178 3.65918 2.57275L3.5957 2.26611C3.00807 2.38819 2.4629 2.62394 1.9834 2.94971L2.16016 3.20947C1.70687 3.5174 1.3167 3.91111 1.01367 4.36768L0.750977 4.19482C0.430529 4.67793 0.200511 5.22594 0.0849609 5.81494L0.393555 5.87451C0.341796 6.13803 0.314453 6.41082 0.314453 6.68994V7.85889H0V10.1958H0.314453V12.5337H0V14.8716H0.314453V17.2085H0V19.5464H0.314453V21.8843H0V24.2212H0.314453V26.5591H0V28.896H0.314453V31.2339H0V33.5718H0.314453V35.9087H0V38.2466H0.314453V40.5845H0V42.9214H0.314453V45.2593H0V47.5972H0.314453V48.7661C0.314482 49.0461 0.342463 49.3193 0.394531 49.5835L0.0859375 49.645L0.0849609 49.646C0.201509 50.2364 0.433588 50.7855 0.755859 51.269L1.01855 51.0942C1.32364 51.5519 1.71581 51.9469 2.17188 52.2544L1.99512 52.5161C2.47724 52.8413 3.02604 53.0751 3.61621 53.1948L3.67969 52.8862C3.87766 52.9263 4.08075 52.9531 4.28809 52.9644L4.49707 52.9702L5.64648 52.9761L5.64453 53.2915L7.94336 53.3032L7.94531 52.9888L10.2441 53.0015L10.2422 53.3159L12.542 53.3286L12.543 53.0132L14.8418 53.0259L14.8408 53.3403L17.1396 53.353L17.1406 53.0386L19.4404 53.0503L19.4375 53.3657L21.7373 53.3774L21.7393 53.063L24.0381 53.0747L24.0361 53.3901L26.335 53.4019L26.3369 53.0874L28.6357 53.1001L28.6338 53.4146L30.9326 53.4272L30.9346 53.1118L33.2334 53.1245L33.2314 53.439L35.5312 53.4517L35.5322 53.1362L37.8311 53.1489L37.8291 53.4644L40.1289 53.4761L40.1309 53.1616L42.4297 53.1733L42.4277 53.4888L44.7266 53.5005L44.7285 53.186L47.0273 53.1987L47.0254 53.5132L49.3242 53.5259L49.3262 53.2104L51.625 53.2231L51.623 53.5376L53.9219 53.5503L53.9238 53.2349L56.2227 53.2476L56.2207 53.563L58.5205 53.5747L58.5215 53.2603L60.8213 53.272L60.8193 53.5874L63.1172 53.6001L63.1201 53.2847L65.4189 53.2974L65.417 53.6118L67.7148 53.6245L67.7158 53.6235L67.7178 53.3091L70.0166 53.3218L70.0146 53.6362L72.3135 53.6489L72.3154 53.3335L74.6143 53.3462L74.6123 53.6606L74.6113 53.6616L76.9121 53.6733L76.9131 53.3589L79.2119 53.3706L79.2109 53.686L81.5088 53.6987L81.5107 53.3833L83.8105 53.395L83.8086 53.7104L86.1064 53.7231L86.1094 53.4077L88.4082 53.4204L88.4062 53.7349L90.7051 53.7476L90.707 53.4321L93.0059 53.4448L93.0039 53.7593L93.0029 53.7603L95.3027 53.772L95.3047 53.4575L97.6035 53.4692L97.6016 53.7847L99.9004 53.7974L99.9023 53.4819L102.201 53.4937L102.2 53.8091L104.498 53.8218L104.501 53.5063L106.8 53.519L106.798 53.8335L109.097 53.8462L109.099 53.5308L111.397 53.5435L111.396 53.8579L111.395 53.8589L113.694 53.8706L113.696 53.5562L115.995 53.5679L115.993 53.8823L115.992 53.8833L118.291 53.896L118.292 53.895L118.294 53.5806L120.593 53.5923L120.592 53.9077L122.89 53.9204L122.892 53.605L125.191 53.6177L125.189 53.9321L127.488 53.9448L127.49 53.6294L129.789 53.6421L129.786 53.9575L132.086 53.9692L132.088 53.6538L134.387 53.6665L134.385 53.981L134.384 53.9819L136.683 53.9946L136.684 53.9937L136.686 53.6792L138.984 53.6909L138.982 54.0063L141.281 54.019L141.283 53.7036L143.582 53.7163L143.581 54.0308L145.88 54.0435L145.881 53.728L148.181 53.7407L148.178 54.0562L150.478 54.0679L150.479 53.7524L152.778 53.7651L152.776 54.0796L152.775 54.0806L155.074 54.0933L155.075 54.0923L155.077 53.7778L157.376 53.7896L157.374 54.105L159.672 54.1177L159.673 54.1167L159.675 53.8022L161.974 53.8149L161.972 54.1294L161.971 54.1304L164.271 54.1421L164.272 53.8267L166.571 53.8394L166.569 54.1548L168.869 54.1665L168.871 53.8511L171.17 53.8638L171.167 54.1792L173.466 54.1919L173.467 54.1909L173.469 53.8765L175.768 53.8882L175.766 54.2036L178.063 54.2163L178.064 54.2153L178.066 53.9009L180.365 53.9136L180.363 54.228L180.362 54.229L182.661 54.2407L182.662 54.2397L182.664 53.9253L184.963 53.938L184.961 54.2534L187.261 54.2651L187.262 53.9497L189.561 53.9624L189.559 54.2778L191.857 54.2905L191.858 54.2896L191.86 53.9751L194.159 53.9868L194.157 54.3022L196.455 54.3149L196.456 54.314L196.458 53.9995L198.757 54.0112L198.755 54.3267L198.754 54.3276L201.053 54.3394L201.054 54.3384Z" stroke="#0E1A16" stroke-opacity="0.2" stroke-width="0.629556" stroke-dasharray="2.3 2.3"/>
<rect x="11.3987" y="11.4463" width="32.4317" height="32.4317" rx="5.64029" fill="#E7EFFD"/>
<path d="M27.9999 34.0681C26.1184 34.0681 24.3139 33.3206 22.9834 31.9902C21.653 30.6597 20.9055 28.8552 20.9055 26.9736V25.9602M27.9999 34.0681C29.8815 34.0681 31.686 33.3206 33.0165 31.9902C34.3469 30.6597 35.0944 28.8552 35.0944 26.9736V25.9602M27.9999 34.0681V37.1085M24.9595 21.9062C24.9595 21.0998 25.2798 20.3265 25.85 19.7563C26.4202 19.1861 27.1936 18.8657 27.9999 18.8657C28.8063 18.8657 29.5797 19.1861 30.1499 19.7563C30.7201 20.3265 31.0404 21.0998 31.0404 21.9062V26.9736C31.0404 27.78 30.7201 28.5534 30.1499 29.1236C29.5797 29.6938 28.8063 30.0141 27.9999 30.0141C27.1936 30.0141 26.4202 29.6938 25.85 29.1236C25.2798 28.5534 24.9595 27.78 24.9595 26.9736V21.9062Z" stroke="#1E54C2" stroke-width="2.02698" stroke-linecap="round" stroke-linejoin="round"/>
<path d="M62.9078 20.0312V35.2932M59.0923 24.8006V30.5239M70.5388 25.7545V29.57M55.2769 25.7545V29.57M66.7233 22.8929V32.4316M101.063 20.0312V35.2932M97.2473 24.8006V30.5239M108.694 25.7545V29.57M93.4318 25.7545V29.57M104.878 22.8929V32.4316M81.9853 20.0312V35.2932M78.1698 24.8006V30.5239M89.6163 25.7545V29.57M74.3543 25.7545V29.57M85.8008 22.8929V32.4316M120.14 20.0312V35.2932M116.325 24.8006V30.5239M127.771 25.7545V29.57M112.509 25.7545V29.57M123.956 22.8929V32.4316" stroke="#0E1A16" stroke-width="1.43081" stroke-linecap="round" stroke-linejoin="round"/>
<path opacity="0.9" d="M158.671 27.585C158.671 24.4878 160.142 22.3523 162.659 22.3523C165.177 22.3523 166.647 24.4878 166.647 27.585C166.647 30.6822 165.177 32.8177 162.659 32.8177C160.142 32.8177 158.671 30.6822 158.671 27.585ZM160.481 27.585C160.481 29.7205 161.16 31.2479 162.659 31.2479C164.158 31.2479 164.837 29.7205 164.837 27.585C164.837 25.4495 164.158 23.9221 162.659 23.9221C161.16 23.9221 160.481 25.4495 160.481 27.585ZM168.088 31.8277C168.088 31.46 168.182 31.2007 168.37 31.0499C168.559 30.899 168.785 30.8236 169.049 30.8236C169.323 30.8236 169.554 30.899 169.742 31.0499C169.931 31.2007 170.025 31.46 170.025 31.8277C170.025 32.1954 169.931 32.4594 169.742 32.6197C169.554 32.78 169.323 32.8601 169.049 32.8601C168.785 32.8601 168.559 32.78 168.37 32.6197C168.182 32.4594 168.088 32.1954 168.088 31.8277ZM168.088 25.8879C168.088 25.5013 168.182 25.2326 168.37 25.0818C168.559 24.9309 168.785 24.8555 169.049 24.8555C169.323 24.8555 169.554 24.9309 169.742 25.0818C169.931 25.2326 170.025 25.5013 170.025 25.8879C170.025 26.2462 169.931 26.5054 169.742 26.6657C169.554 26.826 169.323 26.9061 169.049 26.9061C168.785 26.9061 168.559 26.826 168.37 26.6657C168.182 26.5054 168.088 26.2462 168.088 25.8879ZM171.474 27.585C171.474 24.4878 172.945 22.3523 175.462 22.3523C177.979 22.3523 179.45 24.4878 179.45 27.585C179.45 30.6822 177.979 32.8177 175.462 32.8177C172.945 32.8177 171.474 30.6822 171.474 27.585ZM173.284 27.585C173.284 29.7205 173.963 31.2479 175.462 31.2479C176.961 31.2479 177.64 29.7205 177.64 27.585C177.64 25.4495 176.961 23.9221 175.462 23.9221C173.963 23.9221 173.284 25.4495 173.284 27.585ZM187.905 24.6858L186.448 25.3222C186.194 24.4878 185.572 23.8514 184.525 23.8514C183.082 23.8514 182.121 25.2656 182.064 27.1324C182.545 26.4677 183.436 25.9303 184.596 25.9303C186.491 25.9303 187.891 27.4011 187.891 29.2962C187.891 31.3044 186.363 32.8177 184.27 32.8177C181.668 32.8177 180.41 30.5266 180.41 27.7123C180.41 24.5868 182.022 22.3523 184.596 22.3523C186.378 22.3523 187.438 23.2857 187.905 24.6858ZM186.25 29.3952C186.25 28.278 185.402 27.4153 184.285 27.4153C183.167 27.4153 182.29 28.278 182.29 29.3952C182.29 30.5266 183.153 31.361 184.27 31.361C185.388 31.361 186.25 30.5266 186.25 29.3952Z" fill="#0E1A16"/>
</svg>
