<svg width="150" height="150" viewBox="0 0 150 150" fill="none" xmlns="http://www.w3.org/2000/svg">
<g clip-path="url(#clip0_9518_319)">
<path d="M141.71 96.9298L130.37 78.7798C130.37 78.7798 130.33 78.6998 130.3 78.6698L129.41 77.2398C127.74 74.5398 124.79 72.8998 121.62 72.9098L103.35 72.8498L102.08 74.8998L80.2499 109.82L79.0399 111.75L88.1899 126.35C89.8799 129.07 92.7899 130.69 96.0099 130.69H121.61C124.77 130.69 127.75 129.03 129.42 126.36L130.32 124.92C130.32 124.92 130.36 124.88 130.37 124.87L141.72 106.7C143.58 103.71 143.58 99.9198 141.72 96.9298H141.71ZM138.25 104.53L126.89 122.7C126.84 122.79 126.78 122.85 126.73 122.93C126.16 123.56 125.19 123.62 124.56 123.05C124.45 122.95 124.35 122.83 124.27 122.7L112.92 104.52C112.66 104.11 112.47 103.67 112.33 103.21C111.93 101.82 112.14 100.33 112.9 99.1098L124.24 80.9598L124.27 80.9098C124.54 80.4998 124.88 80.3198 125.17 80.2598C125.29 80.2198 125.39 80.2098 125.47 80.1998H125.6C125.86 80.1998 126.51 80.2798 126.92 80.9398L138.26 99.0898C139.3 100.74 139.3 102.87 138.26 104.52H138.25V104.53ZM108.16 53.0198C110.02 50.0298 110.02 46.2398 108.16 43.2498L96.8199 25.0998L95.8699 23.5698C94.1899 20.8698 91.2299 19.2298 88.0499 19.2398H62.4499C59.2599 19.2398 56.3399 20.8698 54.6399 23.5698L8.8099 96.9498C6.9299 99.9298 6.9299 103.73 8.8099 106.71L21.0999 126.39C22.7699 129.09 25.7299 130.73 28.9099 130.72H54.5099C57.7199 130.72 60.6399 129.09 62.3299 126.39L63.2699 124.9V124.85L72.4199 110.24L99.4999 66.8998L108.15 53.0398H108.17L108.16 53.0198ZM105.48 48.1298C105.48 49.0598 105.22 50.0098 104.69 50.8398L59.7999 122.71C59.5199 123.16 59.0199 123.44 58.4899 123.43C57.9599 123.43 57.4599 123.16 57.1699 122.71L45.8299 104.53C44.7999 102.87 44.7999 100.77 45.8299 99.0998L90.7099 27.2698C90.9899 26.8098 91.4899 26.5298 92.0299 26.5298C92.2899 26.5298 92.9399 26.6098 93.3499 27.2698L104.69 45.4198C105.22 46.2598 105.48 47.1998 105.48 48.1398V48.1298Z" fill="black"/>
</g>
<defs>
<clipPath id="clip0_9518_319">
<rect width="150" height="150" fill="white"/>
</clipPath>
</defs>
</svg>
