<svg width="64" height="64" viewBox="0 0 64 64" fill="none" xmlns="http://www.w3.org/2000/svg">
<path fill-rule="evenodd" clip-rule="evenodd" d="M6.43851 50.2094C5.81199 49.4455 5.94905 48.3211 6.71941 47.7026L14.0171 41.8432C14.6537 41.3321 15.5843 41.4475 16.1034 42.0776C21.0602 48.0955 26.3202 50.8814 32.1422 50.8814C37.924 50.8814 43.0405 48.1349 47.7803 42.1838C48.289 41.5451 49.2174 41.413 49.8631 41.9128L57.2606 47.6376C58.0417 48.2421 58.1991 49.3636 57.5857 50.1378C50.5777 58.9838 41.9973 63.6445 32.1422 63.6445C22.3158 63.6445 13.6588 59.0129 6.43851 50.2094Z" fill="url(#paint0_linear_9524_481)"/>
<path fill-rule="evenodd" clip-rule="evenodd" d="M32.4952 17.1804C32.2201 16.9368 31.8066 16.9367 31.5313 17.1801L15.6629 31.2116C15.0563 31.748 14.1284 31.6857 13.5989 31.0731L7.40976 23.9122C6.88764 23.3082 6.95009 22.3961 7.54969 21.8688L31.0526 1.20064C31.602 0.717527 32.4247 0.717635 32.974 1.2009L56.4821 21.8847C57.0821 22.4125 57.1438 23.3256 56.6204 23.9294L50.4163 31.0866C49.8861 31.6982 48.9588 31.7594 48.3529 31.2229L32.4952 17.1804Z" fill="url(#paint1_linear_9524_481)"/>
<defs>
<linearGradient id="paint0_linear_9524_481" x1="5.33373" y1="32.1623" x2="58.6655" y2="32.1623" gradientUnits="userSpaceOnUse">
<stop offset="0.225962" stop-color="#6647F0"/>
<stop offset="0.793269" stop-color="#0091FF"/>
</linearGradient>
<linearGradient id="paint1_linear_9524_481" x1="5.3334" y1="31.6447" x2="58.6652" y2="31.6447" gradientUnits="userSpaceOnUse">
<stop stop-color="#FF02F0"/>
<stop offset="0.778846" stop-color="#F76808"/>
</linearGradient>
</defs>
</svg>
