<svg width="224" height="224" viewBox="0 0 224 224" fill="none" xmlns="http://www.w3.org/2000/svg">
<mask id="mask0_9518_342" style="mask-type:luminance" maskUnits="userSpaceOnUse" x="0" y="7" width="224" height="210">
<path d="M224 7H0V217H224V7Z" fill="white"/>
</mask>
<g mask="url(#mask0_9518_342)">
<mask id="mask1_9518_342" style="mask-type:luminance" maskUnits="userSpaceOnUse" x="0" y="7" width="224" height="210">
<path d="M224 7H0V217H224V7Z" fill="white"/>
</mask>
<g mask="url(#mask1_9518_342)">
<path d="M112 171.5C49.21 171.5 0 145.355 0 112C0 78.645 49.21 52.5 112 52.5C174.79 52.5 224 78.645 224 112C224 145.355 174.79 171.5 112 171.5ZM112 70C67.305 70 17.5 87.255 17.5 112C17.5 136.745 67.305 154 112 154C156.695 154 206.5 136.745 206.5 112C206.5 87.255 156.695 70 112 70Z" fill="#4EC375"/>
<path d="M149.905 213.639C121.835 213.639 85.9252 185.884 60.445 141.749C45.99 116.724 37.205 90.2993 35.665 67.3042C33.985 42.1042 41.195 23.5542 55.965 15.0142C70.7352 6.47418 90.4402 9.51916 111.405 23.5542C130.55 36.3992 149.03 57.2242 163.485 82.2493C194.88 136.639 196.84 192.324 167.965 208.984C162.505 212.134 156.415 213.639 149.87 213.639H149.905ZM74.3752 27.7892C70.7352 27.7892 67.48 28.5592 64.75 30.1692C56.175 35.1042 51.94 48.2292 53.13 66.1492C54.495 86.5193 62.475 110.284 75.6002 133.034C97.9302 171.744 137.795 206.254 159.215 193.864C180.635 181.474 170.695 129.744 148.33 91.0343C135.205 68.2842 118.615 49.4892 101.675 38.1492C91.5252 31.3592 82.0752 27.8592 74.3402 27.8592L74.3752 27.7892Z" fill="#1463FF"/>
<path d="M74.3402 213.744C67.6556 213.744 61.4956 212.169 56.0006 208.984C41.2306 200.444 33.9856 181.894 35.7006 156.694C37.2406 133.699 46.0256 107.274 60.4806 82.2486C91.8752 27.8589 139.125 -1.6811 168 15.0139C196.875 31.7089 194.916 87.3586 163.521 141.749C149.066 166.774 130.585 187.599 111.44 200.444C98.2802 209.264 85.6102 213.744 74.3402 213.744ZM149.17 27.6139C126.91 27.6139 94.8152 57.7489 75.6002 90.9986C62.4756 113.749 54.4956 137.479 53.1306 157.884C51.9406 175.804 56.1756 188.894 64.7506 193.864C73.3252 198.799 86.7652 195.929 101.71 185.919C118.685 174.544 135.24 155.749 148.365 133.034C170.695 94.3236 180.67 42.5589 159.25 30.2039C156.24 28.4539 152.845 27.6489 149.17 27.6489V27.6139Z" fill="#FFBC00"/>
<path d="M112 154C67.305 154 17.5 136.745 17.5 112H0C0 145.355 49.21 171.5 112 171.5V154Z" fill="#4EC375"/>
<path d="M116.024 49.5243C111.334 45.1843 106.539 41.3343 101.709 38.0793C96.9493 34.8943 92.3293 32.4093 87.9893 30.6943L93.7993 14.1743C99.5393 16.3793 105.454 19.4943 111.474 23.5543C117.809 27.8243 124.109 32.9343 130.199 38.8143L116.059 49.5243H116.024Z" fill="#1463FF"/>
<path d="M130.06 190.68C122.5 186.62 114.625 180.565 106.995 173.25L93.5898 184.905C101.43 192.5 109.48 198.73 117.46 203.42L130.095 190.68H130.06Z" fill="#1463FF"/>
<path d="M192.64 90.615C174.72 77.875 142.205 70 112 70V52.5C147.175 52.5 178.08 60.69 198.485 73.78L192.64 90.615Z" fill="#4EC375"/>
</g>
</g>
</svg>
