<svg width="486" height="500" viewBox="0 0 486 500" fill="none" xmlns="http://www.w3.org/2000/svg">
<g clip-path="url(#clip0_9518_227)">
<path d="M69.4302 159.72C69.4302 125.2 97.4102 97.2202 131.92 97.2202H486.01V458.33C486.01 481.34 467.36 500 444.35 500H152.74C106.73 500 69.4302 462.69 69.4302 416.67V159.72Z" fill="url(#paint0_radial_9518_227)"/>
<path d="M69.4302 159.72C69.4302 125.2 97.4102 97.2202 131.92 97.2202H486.01V458.33C486.01 481.34 467.36 500 444.35 500H152.74C106.73 500 69.4302 462.69 69.4302 416.67V159.72Z" fill="url(#paint1_radial_9518_227)" fill-opacity="0.7"/>
<path d="M69.4302 229.17C69.4302 194.65 97.4102 166.67 131.92 166.67H319.38C296.37 166.67 277.72 185.33 277.72 208.34V291.67C277.72 314.68 259.07 333.34 236.06 333.34H152.75C106.74 333.34 69.4402 370.65 69.4402 416.67V229.17H69.4302Z" fill="url(#paint2_linear_9518_227)"/>
<path d="M69.4302 229.17C69.4302 194.65 97.4102 166.67 131.92 166.67H319.38C296.37 166.67 277.72 185.33 277.72 208.34V291.67C277.72 314.68 259.07 333.34 236.06 333.34H152.75C106.74 333.34 69.4402 370.65 69.4402 416.67V229.17H69.4302Z" fill="url(#paint3_linear_9518_227)" fill-opacity="0.3"/>
<path d="M69.4302 83.33C69.4302 37.31 106.73 0 152.74 0H319.37V166.67H152.74C106.73 166.67 69.4302 203.98 69.4302 250V83.33Z" fill="url(#paint4_linear_9518_227)"/>
<path d="M69.4302 83.33C69.4302 37.31 106.73 0 152.74 0H319.37V166.67H152.74C106.73 166.67 69.4302 203.98 69.4302 250V83.33Z" fill="url(#paint5_radial_9518_227)"/>
<path d="M69.4302 83.33C69.4302 37.31 106.73 0 152.74 0H319.37V166.67H152.74C106.73 166.67 69.4302 203.98 69.4302 250V83.33Z" fill="url(#paint6_linear_9518_227)"/>
<path d="M444.34 0H319.37C296.362 0 277.71 18.6518 277.71 41.66V125.01C277.71 148.018 296.362 166.67 319.37 166.67H444.34C467.348 166.67 486 148.018 486 125.01V41.66C486 18.6518 467.348 0 444.34 0Z" fill="url(#paint7_radial_9518_227)"/>
<path d="M177.04 236.11H45.13C20.2054 236.11 0 256.315 0 281.24V413.2C0 438.124 20.2054 458.33 45.13 458.33H177.04C201.965 458.33 222.17 438.124 222.17 413.2V281.24C222.17 256.315 201.965 236.11 177.04 236.11Z" fill="url(#paint8_radial_9518_227)"/>
<path d="M177.04 236.11H45.13C20.2054 236.11 0 256.315 0 281.24V413.2C0 438.124 20.2054 458.33 45.13 458.33H177.04C201.965 458.33 222.17 438.124 222.17 413.2V281.24C222.17 256.315 201.965 236.11 177.04 236.11Z" fill="url(#paint9_radial_9518_227)" fill-opacity="0.3"/>
<path d="M169.48 410.71H135.23L113.73 370.24C112.96 368.82 112.37 367.7 111.96 366.87C111.61 365.99 111.22 364.98 110.81 363.86H110.46C109.93 365.28 109.43 366.43 108.96 367.31C108.49 368.2 107.93 369.29 107.28 370.59L84.9802 410.7H52.6802L91.4402 347.12L55.3402 283.72H89.1402L108.25 319.85C109.02 321.33 109.67 322.63 110.2 323.75C110.79 324.81 111.38 326.08 111.97 327.56H112.32L114.27 323.49C114.8 322.49 115.51 321.16 116.39 319.51L136.21 283.74H168.42L131.79 346.17L169.49 410.72L169.48 410.71Z" fill="white"/>
</g>
<defs>
<radialGradient id="paint0_radial_9518_227" cx="0" cy="0" r="1" gradientTransform="matrix(-393.448 -414.028 -321.125 305.3 487.235 531.797)" gradientUnits="userSpaceOnUse">
<stop offset="0.06" stop-color="#379539"/>
<stop offset="0.42" stop-color="#297C2D"/>
<stop offset="0.7" stop-color="#15561C"/>
</radialGradient>
<radialGradient id="paint1_radial_9518_227" cx="0" cy="0" r="1" gradientTransform="matrix(-166.348 -160.865 -124.434 128.733 195.43 243.711)" gradientUnits="userSpaceOnUse">
<stop stop-color="#073B10"/>
<stop offset="0.99" stop-color="#084A13" stop-opacity="0"/>
</radialGradient>
<linearGradient id="paint2_linear_9518_227" x1="69.4302" y1="291.67" x2="260.84" y2="291.67" gradientUnits="userSpaceOnUse">
<stop stop-color="#52D17C"/>
<stop offset="0.33" stop-color="#4AA647"/>
</linearGradient>
<linearGradient id="paint3_linear_9518_227" x1="194.4" y1="166.67" x2="194.4" y2="340.32" gradientUnits="userSpaceOnUse">
<stop stop-color="#29852F"/>
<stop offset="0.5" stop-color="#4AA647" stop-opacity="0"/>
</linearGradient>
<linearGradient id="paint4_linear_9518_227" x1="80.4902" y1="204.78" x2="311.45" y2="4.46001" gradientUnits="userSpaceOnUse">
<stop stop-color="#66D052"/>
<stop offset="1" stop-color="#85E972"/>
</linearGradient>
<radialGradient id="paint5_radial_9518_227" cx="0" cy="0" r="1" gradientUnits="userSpaceOnUse" gradientTransform="translate(313.072 103.109) rotate(180) scale(125.288 265.16)">
<stop offset="0.29" stop-color="#4EB43B"/>
<stop offset="1" stop-color="#72CC61" stop-opacity="0"/>
</radialGradient>
<linearGradient id="paint6_linear_9518_227" x1="182.11" y1="125" x2="69.4302" y2="125" gradientUnits="userSpaceOnUse">
<stop offset="0.18" stop-color="#C0E075" stop-opacity="0"/>
<stop offset="1" stop-color="#D1EB95"/>
</linearGradient>
<radialGradient id="paint7_radial_9518_227" cx="0" cy="0" r="1" gradientTransform="matrix(-234.848 -190.04 189.475 -234.233 515.32 192.1)" gradientUnits="userSpaceOnUse">
<stop offset="0.44" stop-color="#79E96D"/>
<stop offset="1" stop-color="#D0EB76"/>
</radialGradient>
<radialGradient id="paint8_radial_9518_227" cx="0" cy="0" r="1" gradientTransform="matrix(222.128 222.206 632.572 -632.661 6.52706 237.302)" gradientUnits="userSpaceOnUse">
<stop stop-color="#20A85E"/>
<stop offset="0.94" stop-color="#09442A"/>
</radialGradient>
<radialGradient id="paint9_radial_9518_227" cx="0" cy="0" r="1" gradientUnits="userSpaceOnUse" gradientTransform="translate(113.621 369.456) rotate(90) scale(155.568 179.181)">
<stop offset="0.58" stop-color="#33A662" stop-opacity="0"/>
<stop offset="0.97" stop-color="#98F0B0"/>
</radialGradient>
<clipPath id="clip0_9518_227">
<rect width="486" height="500" fill="white"/>
</clipPath>
</defs>
</svg>
