<svg width="24" height="24" viewBox="0 0 24 24" fill="none" xmlns="http://www.w3.org/2000/svg">
<path d="M0.00195312 16.0466V20.986C0.00195312 22.2816 0.810947 23.4548 2.02695 23.8441C4.09295 24.5037 5.99095 22.9563 5.99095 20.9591V19.0995L0.00195312 16.0466Z" fill="#007299"/>
<path d="M20.6309 15.0245C20.1809 15.0245 19.7249 14.9221 19.2939 14.7039L1.71886 5.79368C0.262864 5.05522 -0.414131 3.27788 0.264869 1.77746C0.972869 0.206554 2.81587 -0.444635 4.32587 0.320679L21.8989 9.22921C23.3729 9.9761 24.0479 11.8474 23.3099 13.3428C22.7849 14.4085 21.7279 15.0245 20.6279 15.0245H20.6309Z" fill="#00BEFF"/>
<path d="M11.8099 19.5258C11.3599 19.5258 10.9029 19.4234 10.4729 19.2053L1.71886 14.7678C0.262864 14.0293 -0.414131 12.252 0.264869 10.7515C0.972869 9.18068 2.81587 8.52949 4.32787 9.2948L13.0789 13.7306C14.5529 14.4774 15.2279 16.3487 14.4899 17.8441C13.9649 18.9099 12.9079 19.5258 11.8079 19.5258H11.8099Z" fill="#00BEFF"/>
</svg>
