<svg width="54" height="80" viewBox="0 0 54 80" fill="none" xmlns="http://www.w3.org/2000/svg">
<g clip-path="url(#clip0_9524_491)">
<mask id="mask0_9524_491" style="mask-type:luminance" maskUnits="userSpaceOnUse" x="0" y="0" width="54" height="80">
<path d="M53.3333 0H0V80H53.3333V0Z" fill="white"/>
</mask>
<g mask="url(#mask0_9524_491)">
<path d="M13.3333 80.0002C20.6933 80.0002 26.6667 74.0268 26.6667 66.6668V53.3335H13.3333C5.97333 53.3335 0 59.3068 0 66.6668C0 74.0268 5.97333 80.0002 13.3333 80.0002Z" fill="#0ACF83"/>
<path d="M0 39.9998C0 32.6398 5.97333 26.6665 13.3333 26.6665H26.6667V53.3332H13.3333C5.97333 53.3332 0 47.3598 0 39.9998Z" fill="#A259FF"/>
<path d="M0 13.3333C0 5.97333 5.97333 0 13.3333 0H26.6667V26.6667H13.3333C5.97333 26.6667 0 20.6933 0 13.3333Z" fill="#F24E1E"/>
<path d="M26.6665 0H39.9999C47.3599 0 53.3332 5.97333 53.3332 13.3333C53.3332 20.6933 47.3599 26.6667 39.9999 26.6667H26.6665V0Z" fill="#FF7262"/>
<path d="M53.3332 39.9998C53.3332 47.3598 47.3599 53.3332 39.9999 53.3332C32.6399 53.3332 26.6665 47.3598 26.6665 39.9998C26.6665 32.6398 32.6399 26.6665 39.9999 26.6665C47.3599 26.6665 53.3332 32.6398 53.3332 39.9998Z" fill="#1ABCFE"/>
</g>
</g>
<defs>
<clipPath id="clip0_9524_491">
<rect width="54" height="80" fill="white"/>
</clipPath>
</defs>
</svg>
