<svg width="32" height="32" viewBox="0 0 32 32" fill="none" xmlns="http://www.w3.org/2000/svg">
<g clip-path="url(#clip0_9524_485)">
<path d="M31.4602 12.7799L31.4202 12.6599L27.0702 1.30992C26.9804 1.08786 26.8228 0.899744 26.62 0.772293C26.4171 0.644843 26.1793 0.584532 25.9402 0.599925C25.7002 0.599925 25.4702 0.699925 25.2802 0.839925C25.0902 0.989925 24.9502 1.19992 24.8902 1.43992L21.9502 10.4399H10.0502L7.11022 1.43992C7.05101 1.20453 6.91821 0.994184 6.73115 0.839503C6.54409 0.684822 6.31255 0.593883 6.07022 0.579925C5.8286 0.564662 5.58833 0.626044 5.38363 0.755325C5.17894 0.884606 5.02027 1.07519 4.93022 1.29992L0.580223 12.6799L0.530223 12.7899C-0.0932145 14.4272 -0.169019 16.2224 0.314179 17.9064C0.797377 19.5904 1.81353 21.0723 3.21022 22.1299L3.23022 22.1399L3.27022 22.1699L9.90022 27.1399L13.1802 29.6199L15.1802 31.1399C15.4139 31.3152 15.6981 31.4099 15.9902 31.4099C16.2823 31.4099 16.5665 31.3152 16.8002 31.1399L18.8002 29.6199L22.0802 27.1399L28.7502 22.1399H28.7702C30.176 21.0848 31.1998 19.6007 31.687 17.9119C32.1741 16.2231 32.098 14.4216 31.4702 12.7799H31.4602Z" fill="#E24329"/>
<path d="M31.4598 12.7799L31.4198 12.6599C29.2961 13.0985 27.2953 13.9999 25.5598 15.2999L16.0098 22.5399L22.0998 27.1399L28.7698 22.1399H28.7898C30.1903 21.0808 31.2082 19.5949 31.6899 17.9064C32.1715 16.2179 32.0908 14.4185 31.4598 12.7799Z" fill="#FC6D26"/>
<path d="M9.8999 27.14L13.1799 29.62L15.1799 31.14C15.4136 31.3153 15.6978 31.41 15.9899 31.41C16.282 31.41 16.5662 31.3153 16.7999 31.14L18.7999 29.62L22.0799 27.14L15.9799 22.54L9.9099 27.14H9.8999Z" fill="#FCA326"/>
<path d="M6.44022 15.2999C4.70447 14.0023 2.70344 13.1042 0.580223 12.6699L0.530223 12.7899C-0.0932145 14.4272 -0.169019 16.2224 0.314179 17.9064C0.797377 19.5904 1.81353 21.0723 3.21022 22.1299L3.23022 22.1399L3.27022 22.1699L9.90022 27.1399L16.0002 22.5399L6.44022 15.2999Z" fill="#FC6D26"/>
</g>
<defs>
<clipPath id="clip0_9524_485">
<rect width="32" height="32" fill="white"/>
</clipPath>
</defs>
</svg>
