<svg width="47" height="65" viewBox="0 0 47 65" fill="none" xmlns="http://www.w3.org/2000/svg">
<g clip-path="url(#clip0_9518_379)">
<mask id="mask0_9518_379" style="mask-type:luminance" maskUnits="userSpaceOnUse" x="0" y="0" width="47" height="65">
<path d="M29.375 0H4.40625C1.98281 0 0 1.99432 0 4.43182V60.5682C0 63.0057 1.98281 65 4.40625 65H42.5938C45.0172 65 47 63.0057 47 60.5682V17.7273L29.375 0Z" fill="white"/>
</mask>
<g mask="url(#mask0_9518_379)">
<path d="M29.375 0H4.40625C1.98281 0 0 1.99432 0 4.43182V60.5682C0 63.0057 1.98281 65 4.40625 65H42.5938C45.0172 65 47 63.0057 47 60.5682V17.7273L36.7188 10.3409L29.375 0Z" fill="#4285F4"/>
</g>
<mask id="mask1_9518_379" style="mask-type:luminance" maskUnits="userSpaceOnUse" x="0" y="0" width="47" height="65">
<path d="M29.375 0H4.40625C1.98281 0 0 1.99432 0 4.43182V60.5682C0 63.0057 1.98281 65 4.40625 65H42.5938C45.0172 65 47 63.0057 47 60.5682V17.7273L29.375 0Z" fill="white"/>
</mask>
<g mask="url(#mask1_9518_379)">
<path d="M30.6641 16.4312L47.0002 32.8584V17.7275L30.6641 16.4312Z" fill="url(#paint0_linear_9518_379)"/>
</g>
<mask id="mask2_9518_379" style="mask-type:luminance" maskUnits="userSpaceOnUse" x="0" y="0" width="47" height="65">
<path d="M29.375 0H4.40625C1.98281 0 0 1.99432 0 4.43182V60.5682C0 63.0057 1.98281 65 4.40625 65H42.5938C45.0172 65 47 63.0057 47 60.5682V17.7273L29.375 0Z" fill="white"/>
</mask>
<g mask="url(#mask2_9518_379)">
<path d="M11.75 47.2727H35.25V44.3182H11.75V47.2727ZM11.75 53.1818H29.375V50.2273H11.75V53.1818ZM11.75 32.5V35.4545H35.25V32.5H11.75ZM11.75 41.3636H35.25V38.4091H11.75V41.3636Z" fill="#F1F1F1"/>
</g>
<mask id="mask3_9518_379" style="mask-type:luminance" maskUnits="userSpaceOnUse" x="0" y="0" width="47" height="65">
<path d="M29.375 0H4.40625C1.98281 0 0 1.99432 0 4.43182V60.5682C0 63.0057 1.98281 65 4.40625 65H42.5938C45.0172 65 47 63.0057 47 60.5682V17.7273L29.375 0Z" fill="white"/>
</mask>
<g mask="url(#mask3_9518_379)">
<path d="M29.375 0V13.2955C29.375 15.744 31.3468 17.7273 33.7812 17.7273H47L29.375 0Z" fill="#A1C2FA"/>
</g>
<mask id="mask4_9518_379" style="mask-type:luminance" maskUnits="userSpaceOnUse" x="0" y="0" width="47" height="65">
<path d="M29.375 0H4.40625C1.98281 0 0 1.99432 0 4.43182V60.5682C0 63.0057 1.98281 65 4.40625 65H42.5938C45.0172 65 47 63.0057 47 60.5682V17.7273L29.375 0Z" fill="white"/>
</mask>
<g mask="url(#mask4_9518_379)">
<path d="M4.40625 0C1.98281 0 0 1.99432 0 4.43182V4.80114C0 2.36364 1.98281 0.369318 4.40625 0.369318H29.375V0H4.40625Z" fill="white" fill-opacity="0.2"/>
</g>
<mask id="mask5_9518_379" style="mask-type:luminance" maskUnits="userSpaceOnUse" x="0" y="0" width="47" height="65">
<path d="M29.375 0H4.40625C1.98281 0 0 1.99432 0 4.43182V60.5682C0 63.0057 1.98281 65 4.40625 65H42.5938C45.0172 65 47 63.0057 47 60.5682V17.7273L29.375 0Z" fill="white"/>
</mask>
<g mask="url(#mask5_9518_379)">
<path d="M42.5938 64.6306H4.40625C1.98281 64.6306 0 62.6362 0 60.1987V60.568C0 63.0055 1.98281 64.9999 4.40625 64.9999H42.5938C45.0172 64.9999 47 63.0055 47 60.568V60.1987C47 62.6362 45.0172 64.6306 42.5938 64.6306Z" fill="#1A237E" fill-opacity="0.2"/>
</g>
<mask id="mask6_9518_379" style="mask-type:luminance" maskUnits="userSpaceOnUse" x="0" y="0" width="47" height="65">
<path d="M29.375 0H4.40625C1.98281 0 0 1.99432 0 4.43182V60.5682C0 63.0057 1.98281 65 4.40625 65H42.5938C45.0172 65 47 63.0057 47 60.5682V17.7273L29.375 0Z" fill="white"/>
</mask>
<g mask="url(#mask6_9518_379)">
<path d="M33.7812 17.7272C31.3468 17.7272 29.375 15.744 29.375 13.2954V13.6647C29.375 16.1133 31.3468 18.0965 33.7812 18.0965H47V17.7272H33.7812Z" fill="#1A237E" fill-opacity="0.1"/>
</g>
<path d="M29.375 0H4.40625C1.98281 0 0 1.99432 0 4.43182V60.5682C0 63.0057 1.98281 65 4.40625 65H42.5938C45.0172 65 47 63.0057 47 60.5682V17.7273L29.375 0Z" fill="url(#paint1_radial_9518_379)"/>
</g>
<defs>
<linearGradient id="paint0_linear_9518_379" x1="38.833" y1="17.8416" x2="38.833" y2="32.8607" gradientUnits="userSpaceOnUse">
<stop stop-color="#1A237E" stop-opacity="0.2"/>
<stop offset="1" stop-color="#1A237E" stop-opacity="0.02"/>
</linearGradient>
<radialGradient id="paint1_radial_9518_379" cx="0" cy="0" r="1" gradientUnits="userSpaceOnUse" gradientTransform="translate(1.48898 1.28472) scale(75.7868 75.7868)">
<stop stop-color="white" stop-opacity="0.1"/>
<stop offset="1" stop-color="white" stop-opacity="0"/>
</radialGradient>
<clipPath id="clip0_9518_379">
<rect width="47" height="65" fill="white"/>
</clipPath>
</defs>
</svg>
