<svg width="88" height="78" viewBox="0 0 88 78" fill="none" xmlns="http://www.w3.org/2000/svg">
<g clip-path="url(#clip0_9518_425)">
<path d="M6.6 66.85L10.45 73.5C11.25 74.9 12.4 76 13.75 76.8L27.5 53H0C0 54.55 0.4 56.1 1.2 57.5L6.6 66.85Z" fill="#0066DA"/>
<path d="M43.65 25.0002L29.9 1.2002C28.55 2.0002 27.4 3.1002 26.6 4.5002L1.2 48.5002C0.414713 49.87 0.00104556 51.4213 0 53.0002H27.5L43.65 25.0002Z" fill="#00AC47"/>
<path d="M73.5499 76.8C74.8999 76 76.0498 74.9 76.8498 73.5L78.4498 70.75L86.0998 57.5C86.8998 56.1 87.2999 54.55 87.2999 53H59.7979L65.6499 64.5L73.5499 76.8Z" fill="#EA4335"/>
<path d="M43.6499 25L57.3999 1.2C56.0499 0.4 54.4999 0 52.8999 0H34.3999C32.7999 0 31.2499 0.45 29.8999 1.2L43.6499 25Z" fill="#00832D"/>
<path d="M59.8 53H27.5L13.75 76.8C15.1 77.6 16.65 78 18.25 78H69.05C70.65 78 72.2 77.55 73.55 76.8L59.8 53Z" fill="#2684FC"/>
<path d="M73.3999 26.5002L60.6999 4.5002C59.8999 3.1002 58.7499 2.0002 57.3999 1.2002L43.6499 25.0002L59.7999 53.0002H87.2499C87.2499 51.4502 86.8499 49.9002 86.0499 48.5002L73.3999 26.5002Z" fill="#FFBA00"/>
</g>
<defs>
<clipPath id="clip0_9518_425">
<rect width="87.3" height="78" fill="white"/>
</clipPath>
</defs>
</svg>
