<svg width="200" height="200" viewBox="0 0 200 200" fill="none" xmlns="http://www.w3.org/2000/svg">
<g clip-path="url(#clip0_9518_366)">
<path d="M152.632 47.368L105.264 42.105L47.369 47.368L42.105 100L47.368 152.632L100 159.211L152.632 152.632L157.895 98.685L152.632 47.368Z" fill="white"/>
<path d="M68.9609 129.026C65.0269 126.368 62.3029 122.487 60.8159 117.355L69.9479 113.592C70.7769 116.75 72.2239 119.197 74.2899 120.934C76.3429 122.671 78.8429 123.526 81.7639 123.526C84.7509 123.526 87.3169 122.618 89.4609 120.802C91.6049 118.986 92.6849 116.67 92.6849 113.868C92.6849 111 91.5529 108.657 89.2899 106.842C87.0269 105.027 84.1849 104.118 80.7899 104.118H75.5139V95.0792H80.2499C83.1709 95.0792 85.6319 94.2902 87.6319 92.7112C89.6319 91.1322 90.6319 88.9742 90.6319 86.2242C90.6319 83.7772 89.7369 81.8292 87.9479 80.3692C86.1589 78.9092 83.8949 78.1722 81.1449 78.1722C78.4609 78.1722 76.3289 78.8832 74.7499 80.3172C73.1709 81.7512 72.0259 83.5142 71.3029 85.5932L62.2639 81.8302C63.4609 78.4352 65.6589 75.4352 68.8819 72.8432C72.1059 70.2512 76.2239 68.9482 81.2239 68.9482C84.9209 68.9482 88.2499 69.6592 91.1979 71.0932C94.1449 72.5272 96.4609 74.5142 98.1319 77.0402C99.8029 79.5792 100.632 82.4222 100.632 85.5792C100.632 88.8032 99.8559 91.5262 98.3029 93.7632C96.7499 96.0002 94.8419 97.7102 92.5789 98.9082V99.4472C95.5659 100.697 97.9999 102.605 99.9209 105.171C101.829 107.737 102.789 110.803 102.789 114.382C102.789 117.961 101.881 121.158 100.065 123.961C98.2489 126.764 95.7359 128.974 92.5519 130.579C89.3549 132.184 85.7629 133 81.7759 133C77.1579 133.013 72.8949 131.684 68.9609 129.026Z" fill="#1A73E8"/>
<path d="M125 83.7108L115.026 90.9608L110.013 83.3558L128 70.3818H134.895V131.579H125V83.7108Z" fill="#1A73E8"/>
<path d="M152.632 200L200 152.632L176.316 142.106L152.632 152.632L142.106 176.316L152.632 200Z" fill="#EA4335"/>
<path d="M36.8418 176.316L47.3678 200H152.631V152.632H47.3678L36.8418 176.316Z" fill="#34A853"/>
<path d="M15.789 0C7.066 0 0 7.066 0 15.789V152.631L23.684 163.157L47.368 152.631V47.368H152.631L163.157 23.684L152.632 0H15.789Z" fill="#4285F4"/>
<path d="M0 152.632V184.211C0 192.935 7.066 200 15.789 200H47.368V152.632H0Z" fill="#188038"/>
<path d="M152.632 47.3678V152.631H200V47.3678L176.316 36.8418L152.632 47.3678Z" fill="#FBBC04"/>
<path d="M200 47.368V15.789C200 7.065 192.934 0 184.211 0H152.632V47.368H200Z" fill="#1967D2"/>
</g>
<defs>
<clipPath id="clip0_9518_366">
<rect width="200" height="200" fill="white"/>
</clipPath>
</defs>
</svg>
