<svg width="103" height="103" viewBox="0 0 103 103" fill="none" xmlns="http://www.w3.org/2000/svg">
<g clip-path="url(#clip0_9518_438)">
<path d="M0.0265335 3.6937C0.0119104 1.65803 1.65808 0 3.6938 0H98.9681C101.013 0 102.663 1.67271 102.635 3.71759L101.331 98.8932C101.303 100.967 99.562 102.605 97.4904 102.506L4.17169 98.0747C2.22627 97.9823 0.692377 96.3854 0.678387 94.4378L0.0265335 3.6937Z" fill="#F6F6F4"/>
<path d="M102.034 1.65625C102.297 2.05542 102.483 2.50834 102.573 2.99512L102.123 3.07812C102.161 3.28251 102.18 3.49421 102.177 3.71094L102.164 4.62598L102.622 4.63184L102.597 6.46191L102.14 6.45703L102.114 8.28711L102.571 8.29199L102.547 10.123L102.089 10.1172L102.063 11.9473L102.521 11.9531L102.496 13.7832L102.039 13.7783L102.014 15.6084L102.472 15.6133L102.446 17.4443L101.988 17.4385L101.964 19.2686L102.421 19.2744L102.396 21.1055L101.938 21.0996L101.913 22.9297L102.371 22.9346L102.346 24.7646L101.889 24.7598L101.863 26.5898L102.321 26.5967L102.296 28.4258L101.838 28.4199L101.813 30.251L102.271 30.2559L102.246 32.0869L101.788 32.0811L101.763 33.9111L102.221 33.917L102.195 35.7471L101.738 35.7412L101.713 37.5723L102.171 37.5781L102.146 39.4072L101.688 39.4023L101.663 41.2324L102.12 41.2373L102.096 43.0693L101.638 43.0625L101.612 44.8926L102.07 44.8984L102.045 46.7285L101.588 46.7236L101.562 48.5537L102.021 48.5596L101.995 50.3896L101.537 50.3838L101.513 52.2139L101.97 52.2197L101.944 54.0498L101.487 54.0449L101.462 55.875L101.92 55.8799L101.895 57.71L101.438 57.7051L101.412 59.5352L101.869 59.541L101.845 61.3711L101.387 61.3662L101.362 63.1963L101.819 63.2012L101.794 65.0312L101.337 65.0264L101.312 66.8564L101.77 66.8623L101.744 68.6924L101.287 68.6865L101.262 70.5176L101.719 70.5225L101.694 72.3525L101.236 72.3477L101.212 74.1777L101.669 74.1836L101.644 76.0137L101.187 76.0078L101.161 77.8389L101.619 77.8438L101.594 79.6738L101.137 79.6689L101.111 81.499L101.568 81.5039L101.544 83.335L101.086 83.3291L101.062 85.1592L101.519 85.165L101.493 86.9951L101.036 86.9902L101.011 88.8203L101.469 88.8252L101.443 90.6562L100.985 90.6504L100.961 92.4805L101.418 92.4863L101.394 94.3164L100.936 94.3115L100.91 96.1416L101.368 96.1465L101.343 97.9766L100.886 97.9717L100.873 98.8867C100.87 99.1065 100.845 99.3206 100.801 99.5264L101.247 99.6221C101.141 100.112 100.938 100.564 100.658 100.959L100.285 100.695C100.036 101.046 99.7192 101.345 99.3535 101.572L99.5938 101.961C99.1827 102.216 98.7186 102.391 98.2227 102.467L98.1543 102.015C97.9463 102.046 97.7312 102.058 97.5117 102.048L96.5791 102.004L96.5576 102.461L94.6904 102.372L94.7129 101.915L92.8467 101.827L92.8242 102.284H92.8232L90.958 102.195L90.9795 101.738L89.1133 101.649L89.0918 102.106L87.2256 102.018L87.2471 101.561L85.3809 101.472L85.3584 101.93L83.4922 101.841L83.5146 101.384L81.6484 101.295L81.626 101.752L79.7598 101.663L79.7812 101.206L77.915 101.117L77.8926 101.575L76.0273 101.486L76.0488 101.029L74.1826 100.94L74.1611 101.397L72.2939 101.309L72.3164 100.852L70.4502 100.763L70.4277 101.22L68.5615 101.132L68.583 100.675L66.7168 100.586L66.6953 101.043L64.8291 100.954L64.8506 100.497L62.9844 100.408L62.9629 100.865L61.0957 100.777L61.1182 100.32L59.252 100.231L59.2295 100.688L57.3633 100.6L57.3848 100.143L55.5186 100.054L55.4971 100.511L53.6309 100.423L53.6523 99.9658L51.7861 99.877L51.7646 100.334L49.8975 100.245L49.9199 99.7881L48.0537 99.6992L48.0312 100.156L46.1641 100.068H46.165L46.1865 99.6113L44.3203 99.5225L44.2988 99.9795L42.4326 99.8906L42.4541 99.4336L40.5879 99.3447L40.5664 99.8018L38.6982 99.7139H38.6992L38.7217 99.2568L36.8555 99.168L36.833 99.625L34.9668 99.5361L34.9883 99.0791L33.1221 98.9902L33.1006 99.4473L31.2334 99.3594L31.2559 98.9023L29.3896 98.8135L29.3682 99.2705L27.501 99.1816L27.5234 98.7246L25.6572 98.6357L25.6348 99.0928L23.7686 99.0039L23.79 98.5479L21.9238 98.459L21.9023 98.916L20.0361 98.8271L20.0576 98.3701L18.1914 98.2812L18.1699 98.7383L16.3027 98.6494L16.3252 98.1924L14.459 98.1045L14.4365 98.5615L12.5703 98.4727L12.5918 98.0156L10.7256 97.9268L10.7041 98.3838L8.83789 98.2949L8.85938 97.8379L6.99316 97.75L6.97168 98.207L5.10449 98.1182L5.12695 97.6611L4.19336 97.6172L3.8877 97.5879C3.78738 97.5735 3.68868 97.5546 3.5918 97.5312L3.48438 97.9756C3.02477 97.865 2.59967 97.6689 2.22656 97.4043L2.49219 97.0312C2.16049 96.7961 1.87496 96.4991 1.65332 96.1582L1.26953 96.4072C1.02018 96.0235 0.840882 95.5909 0.749023 95.127L1.19824 95.0391C1.15947 94.8436 1.13821 94.6415 1.13672 94.4346L1.12988 93.5273L0.671875 93.5293L0.658203 91.7158L1.11719 91.7119L1.10449 89.8975L0.645508 89.8994L0.632812 88.085L1.09082 88.082L1.07812 86.2676L0.619141 86.2705L0.606445 84.4551L1.06543 84.4531L1.05176 82.6377L0.59375 82.6396L0.580078 80.8262L1.03906 80.8232L1.02637 79.0078L0.567383 79.0107L0.554688 77.1953L1.0127 77.1934L1 75.3779L0.541016 75.3809L0.52832 73.5654L0.987305 73.5635L0.973633 71.748L0.515625 71.751L0.501953 69.9355L0.960938 69.9336L0.948242 68.1191L0.489258 68.1211L0.475586 66.3066L0.93457 66.3037L0.921875 64.4893L0.462891 64.4912L0.450195 62.6768L0.908203 62.6738L0.895508 60.8594L0.436523 60.8623L0.423828 59.0469L0.882812 59.0439L0.869141 57.2295L0.411133 57.2314L0.397461 55.418L0.856445 55.4141L0.84375 53.5996L0.384766 53.6016L0.37207 51.7871L0.830078 51.7852L0.817383 49.9697L0.358398 49.9736L0.345703 48.1572L0.804688 48.1553L0.791016 46.3398L0.332031 46.3438L0.319336 44.5283L0.77832 44.5254L0.765625 42.71L0.306641 42.7129L0.292969 40.8984L0.751953 40.8955L0.739258 39.0811L0.280273 39.083L0.267578 37.2676L0.726562 37.2656L0.712891 35.4512L0.253906 35.4541L0.241211 33.6387L0.700195 33.6357L0.6875 31.8213L0.228516 31.8232L0.214844 30.0098L0.673828 30.0059L0.661133 28.1914L0.202148 28.1934L0.189453 26.3789L0.647461 26.376L0.634766 24.5615L0.175781 24.5645L0.163086 22.749L0.62207 22.7471L0.608398 20.9316L0.149414 20.9355L0.136719 19.1201L0.595703 19.1172L0.583008 17.3018L0.124023 17.3047L0.110352 15.4902L0.569336 15.4873L0.556641 13.6719L0.0986328 13.6758H0.0976562L0.0849609 11.8594L0.543945 11.8574L0.530273 10.043L0.0712891 10.0459L0.0585938 8.23047L0.517578 8.22754L0.504883 6.41309L0.0458984 6.41504L0.0322266 4.60156L0.491211 4.59766L0.485352 3.69043L0.487305 3.5293C0.494031 3.36955 0.512831 3.21305 0.541992 3.06055L0.0917969 2.97461C0.184342 2.49054 0.37194 2.04001 0.634766 1.64355L1.0166 1.89648C1.25051 1.54369 1.5532 1.24035 1.9043 1.00391L1.64746 0.623047C2.04199 0.357315 2.49123 0.166406 2.97461 0.0703125L3.06445 0.520508C3.26746 0.480174 3.47764 0.458037 3.69336 0.458008H4.61035V0H6.44238V0.458008H8.27441V0H10.1064V0.458008H11.9385V0H13.7705V0.458008H15.6035V0H17.4355V0.458008H19.2676V0H21.0996V0.458008H22.9316V0H24.7637V0.458008H26.5967V0H28.4287V0.458008H30.2607V0H32.0928V0.458008H33.9248V0H35.7568V0.458008H37.5898V0H39.4219V0.458008H41.2539V0H43.0859V0.458008H44.918V0H46.75V0.458008H48.583V0H50.415V0.458008H52.2471V0H54.0791V0.458008H55.9111V0H57.7441V0.458008H59.5762V0H61.4082V0.458008H63.2402V0H65.0723V0.458008H66.9043V0H68.7373V0.458008H70.5693V0H72.4014V0.458008H74.2334V0H76.0654V0.458008H77.8975V0H79.7305V0.458008H81.5625V0H83.3945V0.458008H85.2266V0H87.0586V0.458008H88.8906V0H90.7236V0.458008H92.5557V0H94.3877V0.458008H96.2197V0H98.0518V0.458008H98.9678C99.1847 0.458008 99.3966 0.479803 99.6006 0.520508L99.6895 0.0712891C100.175 0.168053 100.625 0.360379 101.021 0.62793L100.765 1.00781C101.117 1.24605 101.419 1.55214 101.652 1.90723L102.034 1.65625Z" stroke="#0E1A16" stroke-opacity="0.2" stroke-width="0.91684" stroke-dasharray="1.83 1.83"/>
</g>
<defs>
<clipPath id="clip0_9518_438">
<rect width="102.686" height="102.686" fill="white"/>
</clipPath>
</defs>
</svg>
