<svg width="103" height="103" viewBox="0 0 103 103" fill="none" xmlns="http://www.w3.org/2000/svg">
<g clip-path="url(#clip0_9518_441)">
<path d="M0.0265335 98.9923C0.0119104 101.028 1.65808 102.686 3.6938 102.686H98.9681C101.013 102.686 102.663 101.013 102.635 98.9684L101.331 3.79289C101.303 1.71914 99.562 0.0815191 97.4904 0.179894L4.17169 4.61136C2.22627 4.70374 0.692377 6.30068 0.678387 8.24824L0.0265335 98.9923Z" fill="#F6F6F4"/>
<path d="M102.034 101.03C102.297 100.631 102.483 100.178 102.573 99.6909L102.123 99.6079C102.161 99.4035 102.18 99.1918 102.177 98.9751L102.164 98.0601L102.622 98.0542L102.597 96.2241L102.14 96.229L102.114 94.3989L102.571 94.394L102.547 92.563L102.089 92.5688L102.063 90.7388L102.521 90.7329L102.496 88.9028L102.039 88.9077L102.014 87.0776L102.472 87.0728L102.446 85.2417L101.988 85.2476L101.964 83.4175L102.421 83.4116L102.396 81.5806L101.938 81.5864L101.913 79.7563L102.371 79.7515L102.346 77.9214L101.889 77.9263L101.863 76.0962L102.321 76.0894L102.296 74.2603L101.838 74.2661L101.813 72.4351L102.271 72.4302L102.246 70.5991L101.788 70.605L101.763 68.7749L102.221 68.769L102.195 66.939L101.738 66.9448L101.713 65.1138L102.171 65.1079L102.146 63.2788L101.688 63.2837L101.663 61.4536L102.12 61.4487L102.096 59.6167L101.638 59.6235L101.612 57.7935L102.07 57.7876L102.045 55.9575L101.588 55.9624L101.562 54.1323L102.021 54.1265L101.995 52.2964L101.537 52.3022L101.513 50.4722L101.97 50.4663L101.944 48.6362L101.487 48.6411L101.462 46.811L101.92 46.8062L101.895 44.9761L101.438 44.981L101.412 43.1509L101.869 43.145L101.845 41.3149L101.387 41.3198L101.362 39.4897L101.819 39.4849L101.794 37.6548L101.337 37.6597L101.312 35.8296L101.77 35.8237L101.744 33.9937L101.287 33.9995L101.262 32.1685L101.719 32.1636L101.694 30.3335L101.236 30.3384L101.212 28.5083L101.669 28.5024L101.644 26.6724L101.187 26.6782L101.161 24.8472L101.619 24.8423L101.594 23.0122L101.137 23.0171L101.111 21.187L101.568 21.1821L101.544 19.3511L101.086 19.3569L101.062 17.5269L101.519 17.521L101.493 15.6909L101.036 15.6958L101.011 13.8657L101.469 13.8608L101.443 12.0298L100.985 12.0356L100.961 10.2056L101.418 10.1997L101.394 8.36963L100.936 8.37451L100.91 6.54443L101.368 6.53955L101.343 4.70947L100.886 4.71436L100.873 3.79932C100.87 3.57955 100.845 3.36542 100.801 3.15967L101.247 3.06396C101.141 2.57376 100.938 2.12162 100.658 1.72705L100.285 1.99072C100.036 1.63961 99.7192 1.34065 99.3535 1.11377L99.5938 0.725098C99.1827 0.470175 98.7186 0.295033 98.2227 0.219238L98.1543 0.671387C97.9463 0.639546 97.7312 0.627762 97.5117 0.638184L96.5791 0.682129L96.5576 0.225098L94.6904 0.313965L94.7129 0.770996L92.8467 0.858887L92.8242 0.401855H92.8232L90.958 0.490723L90.9795 0.947754L89.1133 1.03662L89.0918 0.57959L87.2256 0.668457L87.2471 1.12549L85.3809 1.21436L85.3584 0.756348L83.4922 0.845215L83.5146 1.30225L81.6484 1.39111L81.626 0.934082L79.7598 1.02295L79.7812 1.47998L77.915 1.56885L77.8926 1.11084L76.0273 1.19971L76.0488 1.65674L74.1826 1.74561L74.1611 1.28857L72.2939 1.37744L72.3164 1.83447L70.4502 1.92334L70.4277 1.46631L68.5615 1.5542L68.583 2.01123L66.7168 2.1001L66.6953 1.64307L64.8291 1.73193L64.8506 2.18896L62.9844 2.27783L62.9629 1.8208L61.0957 1.90869L61.1182 2.36572L59.252 2.45459L59.2295 1.99756L57.3633 2.08643L57.3848 2.54346L55.5186 2.63232L55.4971 2.17529L53.6309 2.26318L53.6523 2.72021L51.7861 2.80908L51.7646 2.35205L49.8975 2.44092L49.9199 2.89795L48.0537 2.98682L48.0312 2.52979L46.1641 2.61768H46.165L46.1865 3.07471L44.3203 3.16357L44.2988 2.70654L42.4326 2.79541L42.4541 3.25244L40.5879 3.34131L40.5664 2.88428L38.6982 2.97217H38.6992L38.7217 3.4292L36.8555 3.51807L36.833 3.06104L34.9668 3.1499L34.9883 3.60693L33.1221 3.6958L33.1006 3.23877L31.2334 3.32666L31.2559 3.78369L29.3896 3.87256L29.3682 3.41553L27.501 3.50439L27.5234 3.96143L25.6572 4.05029L25.6348 3.59326L23.7686 3.68213L23.79 4.13818L21.9238 4.22705L21.9023 3.77002L20.0361 3.85889L20.0576 4.31592L18.1914 4.40479L18.1699 3.94775L16.3027 4.03662L16.3252 4.49365L14.459 4.58154L14.4365 4.12451L12.5703 4.21338L12.5918 4.67041L10.7256 4.75928L10.7041 4.30225L8.83789 4.39111L8.85938 4.84814L6.99316 4.93604L6.97168 4.479L5.10449 4.56787L5.12695 5.0249L4.19336 5.06885L3.8877 5.09814C3.78738 5.11249 3.68868 5.13148 3.5918 5.15479L3.48438 4.71045C3.02477 4.82108 2.59967 5.01713 2.22656 5.28174L2.49219 5.65479C2.16049 5.88997 1.87496 6.18693 1.65332 6.52783L1.26953 6.27881C1.02018 6.66249 0.840882 7.09515 0.749023 7.55908L1.19824 7.64697C1.15947 7.84246 1.13821 8.0445 1.13672 8.25146L1.12988 9.15869L0.671875 9.15674L0.658203 10.9702L1.11719 10.9741L1.10449 12.7886L0.645508 12.7866L0.632812 14.6011L1.09082 14.604L1.07812 16.4185L0.619141 16.4155L0.606445 18.231L1.06543 18.2329L1.05176 20.0483L0.59375 20.0464L0.580078 21.8599L1.03906 21.8628L1.02637 23.6782L0.567383 23.6753L0.554688 25.4907L1.0127 25.4927L1 27.3081L0.541016 27.3052L0.52832 29.1206L0.987305 29.1226L0.973633 30.938L0.515625 30.9351L0.501953 32.7505L0.960938 32.7524L0.948242 34.5669L0.489258 34.5649L0.475586 36.3794L0.93457 36.3823L0.921875 38.1968L0.462891 38.1948L0.450195 40.0093L0.908203 40.0122L0.895508 41.8267L0.436523 41.8237L0.423828 43.6392L0.882812 43.6421L0.869141 45.4565L0.411133 45.4546L0.397461 47.2681L0.856445 47.272L0.84375 49.0864L0.384766 49.0845L0.37207 50.8989L0.830078 50.9009L0.817383 52.7163L0.358398 52.7124L0.345703 54.5288L0.804688 54.5308L0.791016 56.3462L0.332031 56.3423L0.319336 58.1577L0.77832 58.1606L0.765625 59.9761L0.306641 59.9731L0.292969 61.7876L0.751953 61.7905L0.739258 63.605L0.280273 63.603L0.267578 65.4185L0.726562 65.4204L0.712891 67.2349L0.253906 67.2319L0.241211 69.0474L0.700195 69.0503L0.6875 70.8647L0.228516 70.8628L0.214844 72.6763L0.673828 72.6802L0.661133 74.4946L0.202148 74.4927L0.189453 76.3071L0.647461 76.3101L0.634766 78.1245L0.175781 78.1216L0.163086 79.937L0.62207 79.939L0.608398 81.7544L0.149414 81.7505L0.136719 83.5659L0.595703 83.5688L0.583008 85.3843L0.124023 85.3813L0.110352 87.1958L0.569336 87.1987L0.556641 89.0142L0.0986328 89.0103H0.0976562L0.0849609 90.8267L0.543945 90.8286L0.530273 92.6431L0.0712891 92.6401L0.0585938 94.4556L0.517578 94.4585L0.504883 96.2729L0.0458984 96.271L0.0322266 98.0845L0.491211 98.0884L0.485352 98.9956L0.487305 99.1567C0.494031 99.3165 0.512831 99.473 0.541992 99.6255L0.0917969 99.7114C0.184342 100.195 0.37194 100.646 0.634766 101.042L1.0166 100.79C1.25051 101.142 1.5532 101.446 1.9043 101.682L1.64746 102.063C2.04199 102.329 2.49123 102.52 2.97461 102.616L3.06445 102.166C3.26746 102.206 3.47764 102.228 3.69336 102.228H4.61035V102.686H6.44238V102.228H8.27441V102.686H10.1064V102.228H11.9385V102.686H13.7705V102.228H15.6035V102.686H17.4355V102.228H19.2676V102.686H21.0996V102.228H22.9316V102.686H24.7637V102.228H26.5967V102.686H28.4287V102.228H30.2607V102.686H32.0928V102.228H33.9248V102.686H35.7568V102.228H37.5898V102.686H39.4219V102.228H41.2539V102.686H43.0859V102.228H44.918V102.686H46.75V102.228H48.583V102.686H50.415V102.228H52.2471V102.686H54.0791V102.228H55.9111V102.686H57.7441V102.228H59.5762V102.686H61.4082V102.228H63.2402V102.686H65.0723V102.228H66.9043V102.686H68.7373V102.228H70.5693V102.686H72.4014V102.228H74.2334V102.686H76.0654V102.228H77.8975V102.686H79.7305V102.228H81.5625V102.686H83.3945V102.228H85.2266V102.686H87.0586V102.228H88.8906V102.686H90.7236V102.228H92.5557V102.686H94.3877V102.228H96.2197V102.686H98.0518V102.228H98.9678C99.1847 102.228 99.3966 102.206 99.6006 102.166L99.6895 102.615C100.175 102.518 100.625 102.326 101.021 102.058L100.765 101.678C101.117 101.44 101.419 101.134 101.652 100.779L102.034 101.03Z" stroke="#0E1A16" stroke-opacity="0.2" stroke-width="0.91684" stroke-dasharray="1.83 1.83"/>
</g>
<defs>
<clipPath id="clip0_9518_441">
<rect width="102.686" height="102.686" fill="white"/>
</clipPath>
</defs>
</svg>
