<svg width="467" height="85" viewBox="0 0 467 85" fill="none" xmlns="http://www.w3.org/2000/svg">
<g clip-path="url(#clip0_9518_333)">
<path d="M9.68175 67.1838C7.96117 67.1876 6.27042 66.7345 4.78224 65.871C3.29406 65.0074 2.06179 63.7643 1.21131 62.2686C0.373854 60.7834 -0.0438082 59.0984 0.00306469 57.3941C0.0499376 55.6897 0.55958 54.0303 1.4774 52.5934L18.9209 25.2012C19.8137 23.729 21.0812 22.5202 22.5941 21.6982C24.1069 20.8762 25.8108 20.4705 27.5317 20.5225C29.2514 20.5637 30.9292 21.0611 32.3935 21.9637C33.8578 22.8663 35.056 24.1417 35.8654 25.6595C37.4915 28.7342 37.2883 32.4336 35.3407 35.3199L17.9083 62.7121C17.0243 64.0896 15.8068 65.2217 14.3687 66.0034C12.9307 66.7851 11.3185 67.1911 9.68175 67.1838Z" fill="#F62B54"/>
<path d="M39.6021 67.1831C36.0839 67.1831 32.8465 65.302 31.1465 62.279C30.3109 60.7979 29.8942 59.1173 29.9411 57.4174C29.9879 55.7175 30.4966 54.0624 31.4126 52.6296L48.8228 25.3003C49.7024 23.8074 50.9654 22.577 52.4808 21.7368C53.9963 20.8966 55.7089 20.4771 57.441 20.5218C60.9889 20.5994 64.2041 22.584 65.8302 25.6883C67.4452 28.7927 67.2086 32.5142 65.2019 35.3931L47.7954 62.7224C46.9141 64.0941 45.7016 65.2218 44.2696 66.0013C42.8377 66.7809 41.2325 67.1873 39.6021 67.1831Z" fill="#FFCC00"/>
<path d="M68.853 67.412C73.8128 67.412 77.8334 63.4757 77.8334 58.6201C77.8334 53.7644 73.8128 49.8281 68.853 49.8281C63.8932 49.8281 59.8726 53.7644 59.8726 58.6201C59.8726 63.4757 63.8932 67.412 68.853 67.412Z" fill="#00CA72"/>
<path d="M458.989 50.3386C461.701 50.3386 463.324 52.2677 463.324 55.4275V66.2558H467.008V55.1799C467.008 49.8064 464.477 46.691 459.717 46.691C457.854 46.691 454.897 47.201 453.135 50.6269C452.725 49.6164 452.049 48.7357 451.179 48.0785C450.309 47.4213 449.278 47.012 448.194 46.8942C447.511 46.7693 446.816 46.7283 446.124 46.7723C444.609 46.8942 441.911 47.8366 440.902 49.9727V47.1012H437.214V66.2558H440.902V55.919C440.902 51.8982 443.533 50.3386 446.168 50.3386C448.637 50.3386 450.259 52.2271 450.259 55.3869V66.2558H453.926V55.919C453.926 52.7186 455.847 50.3016 458.989 50.3386ZM423.677 63.0553C425.362 63.0923 426.988 62.4197 428.167 61.2001C429.349 59.9806 429.978 58.3212 429.915 56.6175C429.915 52.7592 427.077 50.3386 423.677 50.3386C420.273 50.3386 417.438 52.7592 417.438 56.6175C417.372 58.3175 418 59.9732 419.175 61.189C420.351 62.4086 421.969 63.0849 423.647 63.0553H423.677ZM423.677 66.6475C418.288 66.6475 413.791 62.6673 413.791 56.5953C413.791 50.5234 418.288 46.6688 423.677 46.6688C429.065 46.6688 433.599 50.5234 433.599 56.5953C433.599 62.6673 429.039 66.666 423.651 66.666L423.677 66.6475ZM394.814 56.5953L394.777 56.6175C394.777 50.5456 399.392 46.691 404.818 46.6688C406.181 46.6424 407.534 46.9025 408.79 47.4322C410.046 47.9618 411.177 48.7493 412.109 49.7436L409.315 52.1236C408.722 51.5409 408.019 51.0815 407.247 50.7719C406.475 50.4624 405.649 50.3088 404.818 50.3201C401.418 50.3201 398.461 52.7408 398.461 56.5953C398.461 59.2008 400.01 61.5475 402.386 62.5453C404.762 63.5432 407.497 62.9888 409.315 61.1484L412.15 63.5284C411.214 64.5329 410.078 65.3297 408.815 65.867C407.552 66.4043 406.19 66.6703 404.818 66.6475C399.433 66.6475 394.814 62.6673 394.814 56.5953ZM383.013 62.5786C383.009 62.2437 383.072 61.9114 383.196 61.6005C383.321 61.2896 383.505 61.0063 383.739 60.7668C383.973 60.5272 384.252 60.3361 384.56 60.2044C384.868 60.0727 385.199 60.0029 385.534 59.999C385.869 60.0029 386.2 60.0727 386.507 60.2044C386.815 60.3361 387.094 60.5272 387.328 60.7668C387.562 61.0063 387.747 61.2896 387.871 61.6005C387.996 61.9114 388.058 62.2437 388.054 62.5786C388.021 63.2272 387.742 63.8387 387.274 64.2885C386.805 64.7384 386.183 64.9926 385.534 64.9992C384.884 64.9926 384.262 64.7384 383.794 64.2885C383.325 63.8387 383.046 63.2272 383.013 62.5786Z" fill="#333333"/>
<path fill-rule="evenodd" clip-rule="evenodd" d="M393.095 22.7504H379.972L370.773 46.4654L361.623 22.7504H348.5L364.454 60.2243L354.531 85H367.558L393.095 22.7504ZM313.284 43.5939C313.284 49.5809 318.517 53.5204 323.657 53.5204C328.709 53.5204 333.673 49.8543 333.673 43.5902C333.673 37.3261 328.709 33.6563 323.657 33.6563C318.517 33.6563 313.284 37.6033 313.284 43.5939ZM333.673 64.5187V59.7772C331.012 63.8054 324.803 65.328 321.617 65.328C311.07 65.328 300.519 57.0128 300.519 43.5902C300.519 30.1713 311.066 21.8561 321.617 21.8561C324.275 21.8561 330.483 22.743 333.673 27.3996V22.7652H345.905V64.5261L333.673 64.5187ZM297.038 64.5187H284.805V59.33C282.761 63.1735 277.805 65.413 272.661 65.413C262.021 65.413 252.623 56.9167 252.623 43.7602C252.623 30.3561 262.021 21.8487 272.661 21.8487C277.798 21.8487 282.769 23.9922 284.805 27.8393V0H297.038V64.5187ZM284.539 43.4978C284.539 37.2374 280.019 33.5676 274.967 33.5676C269.734 33.5676 265.388 37.5035 265.388 43.4978C265.388 49.6844 269.734 53.6017 274.963 53.6017C280.112 53.6091 284.539 49.4922 284.539 43.4978ZM222.378 42.4187C222.378 36.0696 225.66 33.9224 230.002 33.9224C234.167 33.9224 237.183 36.6941 237.183 42.2376V64.5113H249.504V39.5583C249.504 27.6657 243.65 21.8487 234.341 21.8487C229.466 21.8487 224.592 24.6204 222.374 28.8261V22.7504H210.06V64.5113H222.378V42.4187ZM185.041 65.2283C173.34 65.2283 163.58 56.6433 163.58 43.4941C163.58 30.3376 173.329 21.8376 185.041 21.8376C196.752 21.8376 206.587 30.3376 206.587 43.4941C206.587 56.6507 196.741 65.2283 185.041 65.2283ZM185.041 53.0696C190.178 53.0696 194.439 49.3074 194.439 43.4978C194.439 37.862 190.182 34.0148 185.041 34.0148C183.803 33.9954 182.574 34.2282 181.429 34.699C180.284 35.1698 179.247 35.8688 178.381 36.7533C177.51 37.6425 176.827 38.6978 176.371 39.8564C175.916 41.0151 175.699 42.2534 175.732 43.4978C175.735 49.3148 179.989 53.0696 185.041 53.0696ZM141.491 33.9261C145.124 33.9261 148.317 36.7902 148.317 42.2413V64.5187H160.55V40.8C160.55 28.1904 154.419 21.8413 144.592 21.8413C141.672 21.8413 136.173 22.7283 132.182 29.2622C129.876 24.432 125.445 21.9263 118.896 21.9263C116.622 21.9147 114.394 22.5582 112.476 23.7798C110.558 25.0015 109.033 26.7495 108.083 28.815V22.7541H95.7539V64.515H108.072V42.4187C108.072 36.0696 111.531 33.9224 115.252 33.9224C118.8 33.9224 121.986 36.6941 122.078 41.9715V64.515H134.399V42.4187C134.399 36.3467 137.592 33.9261 141.491 33.9261Z" fill="#333333"/>
</g>
<defs>
<clipPath id="clip0_9518_333">
<rect width="467.008" height="85" fill="white"/>
</clipPath>
</defs>
</svg>
