<svg width="571" height="540" viewBox="0 0 571 540" fill="none" xmlns="http://www.w3.org/2000/svg">
<g clip-path="url(#clip0_9518_253)">
<path d="M403.984 49.7448L59.6369 268.015L30.0229 221.295V181.038C30.0232 173.824 31.8275 166.724 35.2717 160.386C38.7159 154.047 43.6905 148.67 49.7429 144.745L249.91 14.8578C280.406 -4.93219 319.687 -4.93519 350.187 14.8498L403.984 49.7448Z" fill="url(#paint0_linear_9518_253)"/>
<path d="M347.102 12.94C348.142 13.5575 349.169 14.1956 350.184 14.854L506.398 116.186L119.062 361.706L59.625 267.936L343.895 87.4C370.82 70.298 372 31.831 347.102 12.94Z" fill="url(#paint1_linear_9518_253)"/>
<path d="M347.102 12.94C348.142 13.5575 349.169 14.1956 350.184 14.854L506.398 116.186L119.062 361.706L59.625 267.936L343.895 87.4C370.82 70.298 372 31.831 347.102 12.94Z" fill="url(#paint2_linear_9518_253)"/>
<path d="M273.602 408.588L119.066 361.71L447.63 153.436C475.302 135.896 475.231 95.498 447.497 78.057L446.017 77.127L450.278 79.776L550.274 144.643C556.328 148.569 561.303 153.947 564.748 160.287C568.193 166.627 569.997 173.728 569.997 180.943V219.905L273.602 408.588Z" fill="url(#paint3_linear_9518_253)"/>
<path d="M273.602 408.588L119.066 361.71L447.63 153.436C475.302 135.896 475.231 95.498 447.497 78.057L446.017 77.127L450.278 79.776L550.274 144.643C556.328 148.569 561.303 153.947 564.748 160.287C568.193 166.627 569.997 173.728 569.997 180.943V219.905L273.602 408.588Z" fill="url(#paint4_linear_9518_253)"/>
<path d="M350.188 14.8499C319.688 -4.93508 280.406 -4.93108 249.906 14.8579L49.7419 144.745C43.6898 148.67 38.7155 154.047 35.2715 160.386C31.8275 166.724 30.0233 173.823 30.0229 181.037V183.007C30.2625 190.269 32.2777 197.363 35.8924 203.666C39.507 209.97 44.611 215.292 50.7579 219.167L299.645 376.077L549.16 219.405C555.535 215.403 560.79 209.847 564.432 203.26C568.074 196.672 569.984 189.268 569.984 181.741V219.909L569.992 180.944C569.992 166.284 562.566 152.624 550.27 144.643L350.188 14.8499Z" fill="url(#paint5_radial_9518_253)"/>
<path d="M255.77 539.65H476.219C527.996 539.65 569.969 497.678 569.969 445.9V181.74C569.969 197.041 562.105 211.268 549.149 219.405L221.242 425.295C212.541 430.76 205.369 438.343 200.398 447.336C195.427 456.328 192.82 466.435 192.82 476.709C192.824 511.471 221.004 539.651 255.77 539.651V539.65Z" fill="url(#paint6_linear_9518_253)"/>
<path d="M255.77 539.65H476.219C527.996 539.65 569.969 497.678 569.969 445.9V181.74C569.969 197.041 562.105 211.268 549.149 219.405L221.242 425.295C212.541 430.76 205.369 438.343 200.398 447.336C195.427 456.328 192.82 466.435 192.82 476.709C192.824 511.471 221.004 539.651 255.77 539.651V539.65Z" fill="url(#paint7_radial_9518_253)"/>
<path d="M255.77 539.65H476.219C527.996 539.65 569.969 497.678 569.969 445.9V181.74C569.969 197.041 562.105 211.268 549.149 219.405L221.242 425.295C212.541 430.76 205.369 438.343 200.398 447.336C195.427 456.328 192.82 466.435 192.82 476.709C192.824 511.471 221.004 539.651 255.77 539.651V539.65Z" fill="url(#paint8_radial_9518_253)"/>
<path d="M345.402 539.635H123.738C71.9608 539.635 29.9878 497.663 29.9878 445.885V181.545C29.9876 189.058 31.8909 196.449 35.5202 203.028C39.1494 209.607 44.3862 215.159 50.7418 219.166L378.324 425.686C387.146 431.249 394.416 438.956 399.454 448.089C404.491 457.222 407.133 467.482 407.133 477.912C407.129 512.002 379.493 539.635 345.403 539.635H345.402Z" fill="url(#paint9_radial_9518_253)"/>
<path d="M345.402 539.635H123.738C71.9608 539.635 29.9878 497.663 29.9878 445.885V181.545C29.9876 189.058 31.8909 196.449 35.5202 203.028C39.1494 209.607 44.3862 215.159 50.7418 219.166L378.324 425.686C387.146 431.249 394.416 438.956 399.454 448.089C404.491 457.222 407.133 467.482 407.133 477.912C407.129 512.002 379.493 539.635 345.403 539.635H345.402Z" fill="url(#paint10_linear_9518_253)"/>
<path d="M48.75 254.6H191.25C218.176 254.6 240 276.424 240 303.35V445.85C240 472.776 218.176 494.6 191.25 494.6H48.75C21.824 494.6 0 472.776 0 445.85V303.35C0 276.424 21.824 254.6 48.75 254.6Z" fill="url(#paint11_radial_9518_253)"/>
<path d="M48.75 254.6H191.25C218.176 254.6 240 276.424 240 303.35V445.85C240 472.776 218.176 494.6 191.25 494.6H48.75C21.824 494.6 0 472.776 0 445.85V303.35C0 276.424 21.824 254.6 48.75 254.6Z" fill="url(#paint12_radial_9518_253)"/>
<path d="M119.387 443.6C99.5388 443.6 83.2498 437.39 70.5118 424.975C57.7728 412.561 51.4019 396.358 51.4019 376.37C51.4019 355.26 57.8669 338.19 70.7969 325.15C83.7299 312.117 100.66 305.6 121.594 305.6C141.375 305.6 157.473 311.838 169.891 324.315C182.375 336.791 188.617 353.245 188.617 373.666C188.617 394.651 182.148 411.565 169.219 424.416C156.352 437.206 139.742 443.6 119.387 443.6ZM119.961 417.248C130.777 417.248 139.484 413.553 146.078 406.166C152.672 398.78 155.968 388.502 155.968 375.342C155.968 361.623 152.766 350.948 146.368 343.311C139.965 335.674 131.418 331.858 120.73 331.858C109.719 331.858 100.852 335.799 94.1329 343.682C87.4099 351.506 84.0508 361.873 84.0508 374.784C84.0508 387.885 87.4109 398.252 94.1329 405.885C100.852 413.459 109.461 417.248 119.961 417.248Z" fill="white"/>
<path d="M119.332 445.448C99.562 445.448 83.332 439.073 70.641 426.318C57.953 413.565 51.605 396.92 51.605 376.389C51.605 354.705 58.047 337.17 70.93 323.779C83.812 310.385 100.68 303.689 121.531 303.689C141.234 303.689 157.273 310.1 169.645 322.916C182.082 335.736 188.297 352.636 188.297 373.616C188.297 395.166 181.855 412.546 168.977 425.745C156.157 438.881 139.609 445.448 119.332 445.448ZM119.902 418.381C130.68 418.381 139.355 414.584 145.922 406.998C152.492 399.408 155.773 388.854 155.773 375.334C155.773 361.241 152.586 350.276 146.211 342.432C139.832 334.588 131.321 330.666 120.671 330.666C109.699 330.666 100.867 334.713 94.171 342.815C87.477 350.846 84.129 361.498 84.129 374.76C84.129 388.217 87.477 398.866 94.172 406.71C100.867 414.49 109.445 418.381 119.902 418.381Z" fill="white"/>
</g>
<defs>
<linearGradient id="paint0_linear_9518_253" x1="89.835" y1="245.075" x2="403.98" y2="50.2248" gradientUnits="userSpaceOnUse">
<stop stop-color="#20A7FA"/>
<stop offset="0.4" stop-color="#3BD5FF"/>
<stop offset="1" stop-color="#C4B0FF"/>
</linearGradient>
<linearGradient id="paint1_linear_9518_253" x1="197.955" y1="311.51" x2="372.84" y2="31.49" gradientUnits="userSpaceOnUse">
<stop stop-color="#165AD9"/>
<stop offset="0.501" stop-color="#1880E5"/>
<stop offset="1" stop-color="#8587FF"/>
</linearGradient>
<linearGradient id="paint2_linear_9518_253" x1="325.515" y1="315.32" x2="131.34" y2="157.115" gradientUnits="userSpaceOnUse">
<stop offset="0.237" stop-color="#448AFF" stop-opacity="0"/>
<stop offset="0.792" stop-color="#0032B1" stop-opacity="0.2"/>
</linearGradient>
<linearGradient id="paint3_linear_9518_253" x1="300.795" y1="376.25" x2="607.65" y2="179.87" gradientUnits="userSpaceOnUse">
<stop stop-color="#1A43A6"/>
<stop offset="0.492" stop-color="#2052CB"/>
<stop offset="1" stop-color="#5F20CB"/>
</linearGradient>
<linearGradient id="paint4_linear_9518_253" x1="387.42" y1="364.505" x2="200.955" y2="203.165" gradientUnits="userSpaceOnUse">
<stop stop-color="#0045B9" stop-opacity="0"/>
<stop offset="0.67" stop-color="#0D1F69" stop-opacity="0.2"/>
</linearGradient>
<radialGradient id="paint5_radial_9518_253" cx="0" cy="0" r="1" gradientUnits="userSpaceOnUse" gradientTransform="translate(300.027 11.8679) rotate(-90) scale(405.04 438.393)">
<stop offset="0.568" stop-color="#275FF0" stop-opacity="0"/>
<stop offset="0.992" stop-color="#002177"/>
</radialGradient>
<linearGradient id="paint6_linear_9518_253" x1="569.97" y1="358.745" x2="297.78" y2="358.745" gradientUnits="userSpaceOnUse">
<stop stop-color="#4DC4FF"/>
<stop offset="0.196" stop-color="#0FAFFF"/>
</linearGradient>
<radialGradient id="paint7_radial_9518_253" cx="0" cy="0" r="1" gradientUnits="userSpaceOnUse" gradientTransform="translate(361.323 478.233) rotate(-45) scale(173.58)">
<stop offset="0.259" stop-color="#0060D1" stop-opacity="0.4"/>
<stop offset="0.908" stop-color="#0383F1" stop-opacity="0"/>
</radialGradient>
<radialGradient id="paint8_radial_9518_253" cx="0" cy="0" r="1" gradientUnits="userSpaceOnUse" gradientTransform="translate(99.4708 606.68) rotate(-52.6577) scale(589.221 532.806)">
<stop offset="0.732" stop-color="#F4A7F7" stop-opacity="0"/>
<stop offset="1" stop-color="#F4A7F7" stop-opacity="0.501961"/>
</radialGradient>
<radialGradient id="paint9_radial_9518_253" cx="0" cy="0" r="1" gradientUnits="userSpaceOnUse" gradientTransform="translate(218.562 322.579) rotate(123.339) scale(310.887 806.788)">
<stop stop-color="#49DEFF"/>
<stop offset="0.724" stop-color="#29C3FF"/>
</radialGradient>
<linearGradient id="paint10_linear_9518_253" x1="-8.13021" y1="477.68" x2="253.935" y2="477.5" gradientUnits="userSpaceOnUse">
<stop offset="0.206" stop-color="#6CE0FF"/>
<stop offset="0.535" stop-color="#50D5FF" stop-opacity="0"/>
</linearGradient>
<radialGradient id="paint11_radial_9518_253" cx="0" cy="0" r="1" gradientUnits="userSpaceOnUse" gradientTransform="translate(-0.855464 263.83) rotate(46.924) scale(315.927)">
<stop offset="0.039" stop-color="#0091FF"/>
<stop offset="0.919" stop-color="#183DAD"/>
</radialGradient>
<radialGradient id="paint12_radial_9518_253" cx="0" cy="0" r="1" gradientUnits="userSpaceOnUse" gradientTransform="translate(120 400.759) rotate(90) scale(168 193.782)">
<stop offset="0.558" stop-color="#0FA5F7" stop-opacity="0"/>
<stop offset="1" stop-color="#74C6FF" stop-opacity="0.501961"/>
</radialGradient>
<clipPath id="clip0_9518_253">
<rect width="570.02" height="539.67" fill="white"/>
</clipPath>
</defs>
</svg>
