<svg width="103" height="103" viewBox="0 0 103 103" fill="none" xmlns="http://www.w3.org/2000/svg">
<g clip-path="url(#clip0_9518_444)">
<path d="M102.66 3.6937C102.674 1.65803 101.028 0 98.9922 0H3.71791C1.67283 0 0.0228763 1.67271 0.0508884 3.71759L1.35466 98.8932C1.38307 100.967 3.12403 102.605 5.19564 102.506L98.5143 98.0747C100.46 97.9823 101.994 96.3854 102.008 94.4378L102.66 3.6937Z" fill="#F6F6F4"/>
<path d="M0.651855 1.65625C0.389478 2.05542 0.202995 2.50834 0.112793 2.99512L0.562988 3.07812C0.525103 3.28251 0.506333 3.49421 0.509277 3.71094L0.521973 4.62598L0.0639648 4.63184L0.0893555 6.46191L0.546387 6.45703L0.571777 8.28711L0.114746 8.29199L0.13916 10.123L0.597168 10.1172L0.622559 11.9473L0.164551 11.9531L0.189941 13.7832L0.646973 13.7783L0.672363 15.6084L0.214355 15.6133L0.239746 17.4443L0.697754 17.4385L0.722168 19.2686L0.265137 19.2744L0.289551 21.1055L0.747559 21.0996L0.772949 22.9297L0.314941 22.9346L0.340332 24.7646L0.797363 24.7598L0.822754 26.5898L0.364746 26.5967L0.390137 28.4258L0.848145 28.4199L0.872559 30.251L0.415527 30.2559L0.439941 32.0869L0.897949 32.0811L0.92334 33.9111L0.465332 33.917L0.490723 35.7471L0.947754 35.7412L0.973145 37.5723L0.515137 37.5781L0.540527 39.4072L0.998535 39.4023L1.02295 41.2324L0.565918 41.2373L0.590332 43.0693L1.04834 43.0625L1.07373 44.8926L0.615723 44.8984L0.641113 46.7285L1.09814 46.7236L1.12354 48.5537L0.665527 48.5596L0.690918 50.3896L1.14893 50.3838L1.17334 52.2139L0.716309 52.2197L0.741699 54.0498L1.19873 54.0449L1.22412 55.875L0.766113 55.8799L0.791504 57.71L1.24854 57.7051L1.27393 59.5352L0.816895 59.541L0.841309 61.3711L1.29932 61.3662L1.32373 63.1963L0.866699 63.2012L0.89209 65.0312L1.34912 65.0264L1.37451 66.8564L0.916504 66.8623L0.941895 68.6924L1.39893 68.6865L1.42432 70.5176L0.967285 70.5225L0.991699 72.3525L1.44971 72.3477L1.47412 74.1777L1.01709 74.1836L1.04248 76.0137L1.49951 76.0078L1.5249 77.8389L1.06689 77.8438L1.09229 79.6738L1.54932 79.6689L1.57471 81.499L1.11768 81.5039L1.14209 83.335L1.6001 83.3291L1.62451 85.1592L1.16748 85.165L1.19287 86.9951L1.6499 86.9902L1.67529 88.8203L1.21729 88.8252L1.24268 90.6562L1.70068 90.6504L1.7251 92.4805L1.26807 92.4863L1.29248 94.3164L1.75049 94.3115L1.77588 96.1416L1.31787 96.1465L1.34326 97.9766L1.80029 97.9717L1.81299 98.8867C1.816 99.1065 1.84073 99.3206 1.88525 99.5264L1.43896 99.6221C1.54496 100.112 1.74834 100.564 2.02783 100.959L2.40088 100.695C2.64967 101.046 2.96687 101.345 3.33252 101.572L3.09229 101.961C3.50332 102.216 3.96744 102.391 4.46338 102.467L4.53174 102.015C4.73976 102.046 4.95486 102.058 5.17432 102.048L6.10693 102.004L6.12842 102.461L7.99561 102.372L7.97314 101.915L9.83936 101.827L9.86182 102.284H9.86279L11.728 102.195L11.7065 101.738L13.5728 101.649L13.5942 102.106L15.4604 102.018L15.439 101.561L17.3052 101.472L17.3276 101.93L19.1938 101.841L19.1714 101.384L21.0376 101.295L21.0601 101.752L22.9263 101.663L22.9048 101.206L24.771 101.117L24.7935 101.575L26.6587 101.486L26.6372 101.029L28.5034 100.94L28.5249 101.397L30.3921 101.309L30.3696 100.852L32.2358 100.763L32.2583 101.22L34.1245 101.132L34.103 100.675L35.9692 100.586L35.9907 101.043L37.8569 100.954L37.8354 100.497L39.7017 100.408L39.7231 100.865L41.5903 100.777L41.5679 100.32L43.4341 100.231L43.4565 100.688L45.3228 100.6L45.3013 100.143L47.1675 100.054L47.189 100.511L49.0552 100.423L49.0337 99.9658L50.8999 99.877L50.9214 100.334L52.7886 100.245L52.7661 99.7881L54.6323 99.6992L54.6548 100.156L56.522 100.068H56.521L56.4995 99.6113L58.3657 99.5225L58.3872 99.9795L60.2534 99.8906L60.2319 99.4336L62.0981 99.3447L62.1196 99.8018L63.9878 99.7139H63.9868L63.9644 99.2568L65.8306 99.168L65.853 99.625L67.7192 99.5361L67.6978 99.0791L69.564 98.9902L69.5854 99.4473L71.4526 99.3594L71.4302 98.9023L73.2964 98.8135L73.3179 99.2705L75.1851 99.1816L75.1626 98.7246L77.0288 98.6357L77.0513 99.0928L78.9175 99.0039L78.896 98.5479L80.7622 98.459L80.7837 98.916L82.6499 98.8271L82.6284 98.3701L84.4946 98.2812L84.5161 98.7383L86.3833 98.6494L86.3608 98.1924L88.2271 98.1045L88.2495 98.5615L90.1157 98.4727L90.0942 98.0156L91.9604 97.9268L91.9819 98.3838L93.8481 98.2949L93.8267 97.8379L95.6929 97.75L95.7144 98.207L97.5815 98.1182L97.5591 97.6611L98.4927 97.6172L98.7983 97.5879C98.8987 97.5735 98.9974 97.5546 99.0942 97.5312L99.2017 97.9756C99.6613 97.865 100.086 97.6689 100.459 97.4043L100.194 97.0312C100.526 96.7961 100.811 96.4991 101.033 96.1582L101.417 96.4072C101.666 96.0235 101.845 95.5909 101.937 95.127L101.488 95.0391C101.527 94.8436 101.548 94.6415 101.549 94.4346L101.556 93.5273L102.014 93.5293L102.028 91.7158L101.569 91.7119L101.582 89.8975L102.041 89.8994L102.053 88.085L101.595 88.082L101.608 86.2676L102.067 86.2705L102.08 84.4551L101.621 84.4531L101.634 82.6377L102.092 82.6396L102.106 80.8262L101.647 80.8232L101.66 79.0078L102.119 79.0107L102.131 77.1953L101.673 77.1934L101.686 75.3779L102.145 75.3809L102.158 73.5654L101.699 73.5635L101.712 71.748L102.17 71.751L102.184 69.9355L101.725 69.9336L101.738 68.1191L102.197 68.1211L102.21 66.3066L101.751 66.3037L101.764 64.4893L102.223 64.4912L102.236 62.6768L101.778 62.6738L101.791 60.8594L102.25 60.8623L102.262 59.0469L101.803 59.0439L101.817 57.2295L102.275 57.2314L102.289 55.418L101.83 55.4141L101.842 53.5996L102.301 53.6016L102.314 51.7871L101.856 51.7852L101.869 49.9697L102.328 49.9736L102.34 48.1572L101.881 48.1553L101.895 46.3398L102.354 46.3438L102.367 44.5283L101.908 44.5254L101.92 42.71L102.379 42.7129L102.393 40.8984L101.934 40.8955L101.947 39.0811L102.406 39.083L102.418 37.2676L101.959 37.2656L101.973 35.4512L102.432 35.4541L102.445 33.6387L101.986 33.6357L101.999 31.8213L102.458 31.8232L102.471 30.0098L102.012 30.0059L102.025 28.1914L102.484 28.1934L102.497 26.3789L102.039 26.376L102.051 24.5615L102.51 24.5645L102.523 22.749L102.064 22.7471L102.078 20.9316L102.537 20.9355L102.549 19.1201L102.09 19.1172L102.103 17.3018L102.562 17.3047L102.576 15.4902L102.117 15.4873L102.129 13.6719L102.587 13.6758H102.588L102.601 11.8594L102.142 11.8574L102.156 10.043L102.615 10.0459L102.627 8.23047L102.168 8.22754L102.181 6.41309L102.64 6.41504L102.654 4.60156L102.195 4.59766L102.201 3.69043L102.199 3.5293C102.192 3.36955 102.173 3.21305 102.144 3.06055L102.594 2.97461C102.502 2.49054 102.314 2.04001 102.051 1.64355L101.669 1.89648C101.436 1.54369 101.133 1.24035 100.782 1.00391L101.039 0.623047C100.644 0.357315 100.195 0.166406 99.7114 0.0703125L99.6216 0.520508C99.4186 0.480174 99.2084 0.458037 98.9927 0.458008H98.0757V0H96.2437V0.458008H94.4116V0H92.5796V0.458008H90.7476V0H88.9155V0.458008H87.0825V0H85.2505V0.458008H83.4185V0H81.5864V0.458008H79.7544V0H77.9224V0.458008H76.0894V0H74.2573V0.458008H72.4253V0H70.5933V0.458008H68.7612V0H66.9292V0.458008H65.0962V0H63.2642V0.458008H61.4321V0H59.6001V0.458008H57.7681V0H55.936V0.458008H54.103V0H52.271V0.458008H50.439V0H48.6069V0.458008H46.7749V0H44.9419V0.458008H43.1099V0H41.2778V0.458008H39.4458V0H37.6138V0.458008H35.7817V0H33.9487V0.458008H32.1167V0H30.2847V0.458008H28.4526V0H26.6206V0.458008H24.7886V0H22.9556V0.458008H21.1235V0H19.2915V0.458008H17.4595V0H15.6274V0.458008H13.7954V0H11.9624V0.458008H10.1304V0H8.29834V0.458008H6.46631V0H4.63428V0.458008H3.71826C3.50138 0.458008 3.28942 0.479803 3.08545 0.520508L2.99658 0.0712891C2.51135 0.168053 2.06093 0.360379 1.66553 0.62793L1.92139 1.00781C1.56953 1.24605 1.26709 1.55214 1.03369 1.90723L0.651855 1.65625Z" stroke="#0E1A16" stroke-opacity="0.2" stroke-width="0.91684" stroke-dasharray="1.83 1.83"/>
</g>
<defs>
<clipPath id="clip0_9518_444">
<rect width="102.686" height="102.686" fill="white"/>
</clipPath>
</defs>
</svg>
