<svg width="999" height="700" viewBox="0 0 999 700" fill="none" xmlns="http://www.w3.org/2000/svg">
<g clip-path="url(#clip0_9518_270)">
<path d="M415.724 76.263C447.943 42.693 492.798 21.872 542.406 21.872C608.352 21.872 665.886 58.644 696.526 113.233C723.152 101.337 752.624 94.719 783.632 94.719C902.572 94.719 999 191.987 999 311.966C999 431.959 902.572 529.227 783.632 529.227C769.386 529.235 755.174 527.819 741.21 525C714.229 573.128 662.813 605.646 603.798 605.646C579.093 605.646 555.726 599.94 534.921 589.793C507.569 654.13 443.844 699.241 369.573 699.241C292.229 699.241 226.312 650.302 201.01 581.667C189.953 584.015 178.497 585.239 166.742 585.239C74.655 585.24 0 509.817 0 416.762C0 354.403 33.542 299.955 83.378 270.825C73.118 247.217 67.411 221.16 67.411 193.765C67.411 86.75 154.29 0 261.448 0C324.362 0 380.275 29.913 415.724 76.263Z" fill="#00A1E0"/>
<path d="M144.696 362.61C144.07 364.247 144.924 364.589 145.123 364.873C147.001 366.239 148.909 367.222 150.83 368.317C161.019 373.724 170.64 375.303 180.701 375.303C201.193 375.303 213.915 364.403 213.915 346.856V346.515C213.915 330.291 199.557 324.4 186.08 320.145L184.33 319.576C174.169 316.274 165.403 313.429 165.403 306.74V306.385C165.403 300.664 170.526 296.451 178.467 296.451C187.29 296.451 197.764 299.383 204.509 303.111C204.509 303.111 206.487 304.392 207.213 302.471C207.611 301.446 211.027 292.253 211.383 291.257C211.767 290.175 211.084 289.378 210.387 288.951C202.688 284.269 192.043 281.067 181.029 281.067L178.98 281.081C160.224 281.081 147.132 292.409 147.132 308.646V308.988C147.132 326.107 161.576 331.657 175.11 335.528L177.287 336.197C187.149 339.228 195.645 341.832 195.645 348.777V349.119C195.645 355.466 190.124 360.19 181.215 360.19C177.757 360.19 166.728 360.119 154.817 352.59C153.379 351.75 152.54 351.139 151.43 350.47C150.847 350.1 149.381 349.459 148.741 351.395L144.696 362.61ZM444.694 362.61C444.068 364.247 444.922 364.589 445.121 364.873C446.999 366.239 448.907 367.222 450.827 368.317C461.016 373.724 470.638 375.303 480.698 375.303C501.19 375.303 513.913 364.403 513.913 346.856V346.515C513.913 330.291 499.554 324.4 486.077 320.145L484.327 319.576C474.166 316.274 465.399 313.429 465.399 306.74V306.385C465.399 300.664 470.522 296.451 478.463 296.451C487.286 296.451 497.76 299.383 504.506 303.111C504.506 303.111 506.484 304.392 507.209 302.471C507.607 301.446 511.023 292.253 511.379 291.257C511.764 290.175 511.08 289.378 510.383 288.951C502.684 284.269 492.039 281.067 481.025 281.067L478.975 281.081C460.219 281.081 447.127 292.409 447.127 308.646V308.988C447.127 326.107 461.571 331.657 475.105 335.528L477.282 336.197C487.144 339.228 495.655 341.832 495.655 348.777V349.119C495.655 355.466 490.119 360.19 481.21 360.19C477.753 360.19 466.724 360.119 454.813 352.59C453.375 351.75 452.522 351.167 451.441 350.47C451.07 350.228 449.334 349.559 448.736 351.395L444.694 362.61ZM649.495 328.24C649.495 338.159 647.645 345.971 644.002 351.493C640.401 356.958 634.951 359.619 627.353 359.619C619.74 359.619 614.318 356.972 610.774 351.493C607.187 345.986 605.367 338.159 605.367 328.24C605.367 318.336 607.187 310.537 610.774 305.072C614.318 299.665 619.74 297.032 627.353 297.032C634.952 297.032 640.402 299.665 644.017 305.072C647.646 310.536 649.495 318.335 649.495 328.24ZM666.601 309.854C664.921 304.175 662.303 299.166 658.817 294.997C655.33 290.813 650.919 287.455 645.681 285.007C640.458 282.574 634.283 281.336 627.353 281.336C620.408 281.336 614.232 282.574 609.009 285.007C603.772 287.455 599.361 290.814 595.86 294.997C592.388 299.181 589.769 304.19 588.076 309.854C586.411 315.503 585.571 321.679 585.571 328.24C585.571 334.801 586.411 340.991 588.076 346.626C589.769 352.29 592.374 357.3 595.875 361.483C599.361 365.667 603.787 369.011 609.01 371.387C614.246 373.764 620.408 374.973 627.354 374.973C634.284 374.973 640.446 373.764 645.682 371.387C650.905 369.011 655.33 365.666 658.818 361.483C662.304 357.313 664.922 352.304 666.602 346.626C668.282 340.977 669.121 334.786 669.121 328.24C669.121 321.694 668.28 315.503 666.601 309.854ZM807.068 356.97C806.499 355.305 804.891 355.931 804.891 355.931C802.401 356.885 799.753 357.767 796.936 358.208C794.075 358.648 790.93 358.877 787.557 358.877C779.276 358.877 772.701 356.415 767.991 351.548C763.266 346.681 760.619 338.812 760.647 328.167C760.676 318.476 763.009 311.189 767.208 305.64C771.378 300.119 777.725 297.286 786.192 297.286C793.251 297.286 798.63 298.097 804.264 299.876C804.264 299.876 805.616 300.459 806.256 298.695C807.75 294.539 808.86 291.565 810.454 286.997C810.91 285.702 809.8 285.147 809.401 284.99C807.181 284.122 801.944 282.714 797.988 282.116C794.288 281.547 789.962 281.248 785.152 281.248C777.964 281.248 771.561 282.472 766.083 284.92C760.618 287.353 755.979 290.711 752.308 294.896C748.636 299.08 745.847 304.088 743.983 309.752C742.133 315.401 741.194 321.606 741.194 328.167C741.194 342.355 745.022 353.824 752.579 362.221C760.149 370.646 771.52 374.929 786.349 374.929C795.115 374.929 804.109 373.151 810.57 370.603C810.57 370.603 811.808 370.005 811.267 368.569L807.068 356.97ZM836.997 318.738C837.808 313.231 839.331 308.648 841.679 305.077C845.223 299.655 850.63 296.681 858.23 296.681C865.83 296.681 870.853 299.669 874.453 305.077C876.844 308.648 877.883 313.431 878.296 318.738H836.997ZM894.589 306.627C893.138 301.148 889.537 295.612 887.175 293.079C883.446 289.066 879.804 286.263 876.189 284.697C871.464 282.676 865.8 281.339 859.596 281.339C852.367 281.339 845.806 282.549 840.484 285.053C835.148 287.558 830.666 290.974 827.15 295.229C823.634 299.469 820.988 304.521 819.308 310.256C817.615 315.963 816.761 322.182 816.761 328.741C816.761 335.416 817.644 341.635 819.394 347.227C821.159 352.863 823.976 357.829 827.79 361.941C831.589 366.083 836.485 369.328 842.348 371.589C848.169 373.838 855.242 375.005 863.367 374.99C880.089 374.933 888.897 371.205 892.526 369.198C893.167 368.843 893.779 368.217 893.009 366.424L889.224 355.821C888.656 354.242 887.047 354.825 887.047 354.825C882.905 356.362 877.015 359.123 863.281 359.095C854.302 359.081 847.641 356.434 843.471 352.292C839.188 348.052 837.096 341.818 836.726 333.024L894.631 333.081C894.631 333.081 896.153 333.053 896.311 331.572C896.368 330.948 898.304 319.677 894.589 306.627ZM373.262 318.738C374.087 313.231 375.596 308.648 377.944 305.077C381.487 299.655 386.895 296.681 394.494 296.681C402.093 296.681 407.117 299.669 410.731 305.077C413.107 308.648 414.146 313.431 414.559 318.738H373.262ZM430.839 306.627C429.388 301.148 425.802 295.612 423.44 293.079C419.711 289.066 416.068 286.263 412.454 284.697C407.729 282.676 402.066 281.339 395.861 281.339C388.646 281.339 382.071 282.549 376.749 285.053C371.413 287.558 366.93 290.974 363.415 295.229C359.9 299.469 357.253 304.521 355.574 310.256C353.895 315.963 353.027 322.182 353.027 328.741C353.027 335.416 353.909 341.635 355.66 347.227C357.425 352.863 360.243 357.829 364.056 361.941C367.856 366.083 372.751 369.328 378.614 371.589C384.435 373.838 391.507 375.005 399.633 374.99C416.354 374.933 425.163 371.205 428.792 369.198C429.433 368.843 430.044 368.217 429.276 366.424L425.505 355.821C424.921 354.242 423.314 354.825 423.314 354.825C419.173 356.362 413.295 359.123 399.534 359.095C390.569 359.081 383.909 356.434 379.739 352.292C375.455 348.052 373.364 341.818 372.993 333.024L430.898 333.081C430.898 333.081 432.42 333.053 432.577 331.572C432.632 330.948 434.567 319.677 430.839 306.627ZM248.101 356.653C245.838 354.845 245.525 354.39 244.757 353.223C243.618 351.444 243.035 348.911 243.035 345.695C243.035 340.6 244.714 336.943 248.201 334.481C248.159 334.496 253.182 330.141 264.993 330.297C273.289 330.411 280.703 331.635 280.703 331.635V357.962H280.717C280.717 357.962 273.36 359.541 265.078 360.039C253.295 360.751 248.058 356.639 248.101 356.653ZM271.14 315.967C268.792 315.796 265.746 315.696 262.103 315.696C257.137 315.696 252.341 316.322 247.844 317.532C243.319 318.741 239.249 320.635 235.748 323.138C232.252 325.633 229.379 328.901 227.352 332.687C225.303 336.501 224.264 340.998 224.264 346.036C224.264 351.159 225.146 355.613 226.911 359.257C228.676 362.914 231.223 365.959 234.467 368.308C237.683 370.656 241.654 372.377 246.264 373.416C250.804 374.455 255.955 374.981 261.591 374.981C267.525 374.981 273.445 374.498 279.18 373.515C284.858 372.547 291.831 371.138 293.766 370.698C295.123 370.371 296.475 370.025 297.822 369.659C299.26 369.304 299.146 367.766 299.146 367.766L299.117 314.814C299.117 303.201 296.015 294.591 289.91 289.255C283.833 283.933 274.882 281.242 263.313 281.242C258.972 281.242 251.985 281.841 247.801 282.68C247.801 282.68 235.15 285.128 229.941 289.198C229.941 289.198 228.803 289.91 229.429 291.504L233.528 302.519C234.04 303.942 235.421 303.458 235.421 303.458C235.421 303.458 235.862 303.287 236.375 302.988C247.518 296.926 261.606 297.111 261.606 297.111C267.868 297.111 272.678 298.363 275.922 300.853C279.081 303.272 280.689 306.929 280.689 314.642V317.09C275.708 316.379 271.14 315.967 271.14 315.967ZM738.169 286.131C738.609 284.821 737.685 284.195 737.3 284.053C736.319 283.669 731.395 282.63 727.595 282.388C720.324 281.947 716.283 283.171 712.667 284.793C709.081 286.415 705.097 289.033 702.876 292.008V284.964C702.876 283.982 702.179 283.199 701.211 283.199H686.368C685.401 283.199 684.704 283.981 684.704 284.964V371.33C684.704 372.298 685.501 373.095 686.468 373.095H701.681C702.147 373.092 702.593 372.905 702.921 372.574C703.249 372.243 703.432 371.796 703.431 371.33V328.183C703.431 322.391 704.072 316.614 705.353 312.985C706.605 309.398 708.313 306.524 710.419 304.46C712.539 302.411 714.944 300.974 717.577 300.163C720.266 299.337 723.24 299.067 725.347 299.067C728.378 299.067 731.708 299.849 731.708 299.849C732.817 299.977 733.444 299.294 733.813 298.284C734.81 295.637 737.628 287.71 738.169 286.131Z" fill="white"/>
<path d="M595.374 246.103C593.524 245.534 591.845 245.149 589.653 244.737C587.432 244.339 584.786 244.139 581.784 244.139C571.309 244.139 563.055 247.099 557.264 252.933C551.5 258.74 547.586 267.577 545.622 279.204L544.91 283.117H531.762C531.762 283.117 530.168 283.06 529.826 284.797L527.678 296.85C527.521 297.989 528.02 298.714 529.556 298.714H542.35L529.371 371.177C528.36 377.012 527.193 381.808 525.898 385.45C524.631 389.037 523.394 391.726 521.857 393.69C520.377 395.569 518.982 396.963 516.562 397.774C514.57 398.443 512.265 398.756 509.746 398.756C508.351 398.756 506.488 398.527 505.107 398.243C503.741 397.972 503.015 397.674 501.976 397.232C501.976 397.232 500.482 396.664 499.884 398.158C499.414 399.396 495.999 408.773 495.586 409.927C495.188 411.079 495.757 411.976 496.482 412.246C498.19 412.844 499.456 413.242 501.776 413.797C504.993 414.552 507.71 414.594 510.257 414.594C515.579 414.594 520.446 413.84 524.474 412.389C528.516 410.923 532.044 408.375 535.175 404.932C538.548 401.203 540.668 397.304 542.69 391.968C544.696 386.702 546.419 380.156 547.784 372.529L560.834 298.714H579.903C579.903 298.714 581.51 298.771 581.839 297.021L584.001 284.982C584.144 283.83 583.66 283.118 582.108 283.118H563.594C563.694 282.706 564.533 276.187 566.654 270.055C567.565 267.451 569.272 265.33 570.71 263.878C572.134 262.455 573.77 261.445 575.564 260.861C577.399 260.263 579.492 259.979 581.783 259.979C583.519 259.979 585.24 260.178 586.535 260.448C588.328 260.833 589.025 261.032 589.496 261.175C591.389 261.744 591.644 261.189 592.015 260.279L596.441 248.126C596.896 246.814 595.772 246.259 595.374 246.103ZM336.694 371.334C336.694 372.302 335.997 373.085 335.029 373.085H319.674C318.706 373.085 318.023 372.302 318.023 371.334V247.754C318.023 246.787 318.706 246.004 319.674 246.004H335.029C335.997 246.004 336.694 246.787 336.694 247.754V371.334Z" fill="white"/>
</g>
<defs>
<clipPath id="clip0_9518_270">
<rect width="999" height="699.242" fill="white"/>
</clipPath>
</defs>
</svg>
