<svg width="962" height="963" viewBox="0 0 962 963" fill="none" xmlns="http://www.w3.org/2000/svg">
<g clip-path="url(#clip0_9518_312)">
<path fill-rule="evenodd" clip-rule="evenodd" d="M352.712 0C299.534 0.0392661 256.496 43.1534 256.536 96.2804C256.496 149.407 299.573 192.521 352.751 192.561H448.967V96.3196C449.006 43.1927 405.929 0.0785321 352.712 0C352.751 0 352.751 0 352.712 0ZM352.712 256.8H96.2153C43.0373 256.839 -0.0396847 299.953 -0.000380869 353.08C-0.0789885 406.207 42.998 449.321 96.176 449.4H352.712C405.89 449.361 448.967 406.247 448.928 353.12C448.967 299.953 405.89 256.839 352.712 256.8Z" fill="#36C5F0"/>
<path fill-rule="evenodd" clip-rule="evenodd" d="M961.999 353.08C962.039 299.953 918.962 256.839 865.784 256.8C812.606 256.839 769.529 299.953 769.568 353.08V449.4H865.784C918.962 449.361 962.039 406.247 961.999 353.08ZM705.464 353.08V96.2804C705.503 43.1927 662.465 0.0785321 609.287 0C556.109 0.0392661 513.032 43.1534 513.071 96.2804V353.08C512.993 406.207 556.07 449.321 609.248 449.4C662.426 449.361 705.503 406.247 705.464 353.08Z" fill="#2EB67D"/>
<path fill-rule="evenodd" clip-rule="evenodd" d="M609.248 963C662.426 962.961 705.503 919.846 705.464 866.719C705.503 813.592 662.426 770.478 609.248 770.439H513.032V866.719C512.993 919.807 556.07 962.921 609.248 963ZM609.248 706.161H865.784C918.962 706.121 962.039 663.007 962 609.88C962.078 556.753 919.001 513.639 865.823 513.561H609.287C556.109 513.6 513.032 556.714 513.072 609.841C513.032 663.007 556.07 706.121 609.248 706.161Z" fill="#ECB22E"/>
<path fill-rule="evenodd" clip-rule="evenodd" d="M2.68745e-05 609.88C-0.0392769 663.007 43.0377 706.122 96.2157 706.161C149.394 706.122 192.471 663.007 192.431 609.88V513.6H96.2157C43.0377 513.639 -0.0392769 556.753 2.68745e-05 609.88ZM256.536 609.88V866.68C256.457 919.807 299.534 962.922 352.712 963C405.89 962.961 448.967 919.847 448.928 866.72V609.959C449.007 556.832 405.93 513.718 352.752 513.639C299.534 513.639 256.497 556.753 256.536 609.88Z" fill="#E01E5A"/>
</g>
<defs>
<clipPath id="clip0_9518_312">
<rect width="962" height="963" fill="white"/>
</clipPath>
</defs>
</svg>
