<svg width="390" height="412" viewBox="0 0 390 412" fill="none" xmlns="http://www.w3.org/2000/svg">
<g clip-path="url(#clip0_9518_275)">
<path d="M195 173.474H325C342.239 173.474 358.772 180.327 370.962 192.527C383.152 204.727 390 221.273 390 238.526V346.947C390 364.2 383.152 380.747 370.962 392.946C358.772 405.146 342.239 412 325 412C307.761 412 291.228 405.146 279.038 392.946C266.848 380.747 260 364.2 260 346.947V238.526C260 221.273 253.152 204.727 240.962 192.527C228.772 180.327 212.239 173.474 195 173.474Z" fill="url(#paint0_radial_9518_275)"/>
<path d="M43.3335 216.842C43.3335 199.589 50.1817 183.043 62.3716 170.843C74.5614 158.643 91.0944 151.79 108.333 151.79H195C212.239 151.79 228.772 158.643 240.962 170.843C253.152 183.043 260 199.589 260 216.842V346.947C260 364.2 266.848 380.747 279.038 392.947C291.228 405.146 307.761 412 325 412H151.667C91.8343 412 43.3335 363.46 43.3335 303.579V216.842Z" fill="url(#paint1_radial_9518_275)"/>
<path d="M43.3335 216.842C43.3335 199.589 50.1817 183.043 62.3716 170.843C74.5614 158.643 91.0944 151.79 108.333 151.79H195C212.239 151.79 228.772 158.643 240.962 170.843C253.152 183.043 260 199.589 260 216.842V346.947C260 364.2 266.848 380.747 279.038 392.947C291.228 405.146 307.761 412 325 412H151.667C91.8343 412 43.3335 363.46 43.3335 303.579V216.842Z" fill="url(#paint2_linear_9518_275)" fill-opacity="0.7"/>
<path d="M43.3335 216.842C43.3335 199.589 50.1817 183.043 62.3716 170.843C74.5614 158.643 91.0944 151.79 108.333 151.79H195C212.239 151.79 228.772 158.643 240.962 170.843C253.152 183.043 260 199.589 260 216.842V346.947C260 364.2 266.848 380.747 279.038 392.947C291.228 405.146 307.761 412 325 412H151.667C91.8343 412 43.3335 363.46 43.3335 303.579V216.842Z" fill="url(#paint3_radial_9518_275)" fill-opacity="0.7"/>
<path d="M314.167 151.789C328.533 151.789 342.31 146.078 352.468 135.912C362.627 125.745 368.333 111.956 368.333 97.5789C368.333 83.2014 362.627 69.4128 352.468 59.2463C342.31 49.0799 328.533 43.3684 314.167 43.3684C299.801 43.3684 286.023 49.0799 275.865 59.2463C265.707 69.4128 260 83.2014 260 97.5789C260 111.956 265.707 125.745 275.865 135.912C286.023 146.078 299.801 151.789 314.167 151.789Z" fill="url(#paint4_radial_9518_275)"/>
<path d="M314.167 151.789C328.533 151.789 342.31 146.078 352.468 135.912C362.627 125.745 368.333 111.956 368.333 97.5789C368.333 83.2014 362.627 69.4128 352.468 59.2463C342.31 49.0799 328.533 43.3684 314.167 43.3684C299.801 43.3684 286.023 49.0799 275.865 59.2463C265.707 69.4128 260 83.2014 260 97.5789C260 111.956 265.707 125.745 275.865 135.912C286.023 146.078 299.801 151.789 314.167 151.789Z" fill="url(#paint5_radial_9518_275)" fill-opacity="0.46"/>
<path d="M314.167 151.789C328.533 151.789 342.31 146.078 352.468 135.912C362.627 125.745 368.333 111.956 368.333 97.5789C368.333 83.2014 362.627 69.4128 352.468 59.2463C342.31 49.0799 328.533 43.3684 314.167 43.3684C299.801 43.3684 286.023 49.0799 275.865 59.2463C265.707 69.4128 260 83.2014 260 97.5789C260 111.956 265.707 125.745 275.865 135.912C286.023 146.078 299.801 151.789 314.167 151.789Z" fill="url(#paint6_radial_9518_275)" fill-opacity="0.4"/>
<path d="M151.667 130.105C168.906 130.105 185.439 123.252 197.628 111.052C209.818 98.852 216.667 82.3057 216.667 65.0526C216.667 47.7996 209.818 31.2532 197.628 19.0535C185.439 6.85374 168.906 0 151.667 0C134.427 0 117.894 6.85374 105.705 19.0535C93.5147 31.2532 86.6665 47.7996 86.6665 65.0526C86.6665 82.3057 93.5147 98.852 105.705 111.052C117.894 123.252 134.427 130.105 151.667 130.105Z" fill="url(#paint7_radial_9518_275)"/>
<path d="M151.667 130.105C168.906 130.105 185.439 123.252 197.628 111.052C209.818 98.852 216.667 82.3057 216.667 65.0526C216.667 47.7996 209.818 31.2532 197.628 19.0535C185.439 6.85374 168.906 0 151.667 0C134.427 0 117.894 6.85374 105.705 19.0535C93.5147 31.2532 86.6665 47.7996 86.6665 65.0526C86.6665 82.3057 93.5147 98.852 105.705 111.052C117.894 123.252 134.427 130.105 151.667 130.105Z" fill="url(#paint8_radial_9518_275)" fill-opacity="0.6"/>
<path d="M151.667 130.105C168.906 130.105 185.439 123.252 197.628 111.052C209.818 98.852 216.667 82.3057 216.667 65.0526C216.667 47.7996 209.818 31.2532 197.628 19.0535C185.439 6.85374 168.906 0 151.667 0C134.427 0 117.894 6.85374 105.705 19.0535C93.5147 31.2532 86.6665 47.7996 86.6665 65.0526C86.6665 82.3057 93.5147 98.852 105.705 111.052C117.894 123.252 134.427 130.105 151.667 130.105Z" fill="url(#paint9_radial_9518_275)" fill-opacity="0.5"/>
<path d="M138.125 206H35.2083C15.7633 206 0 221.776 0 241.237V344.237C0 363.698 15.7633 379.474 35.2083 379.474H138.125C157.57 379.474 173.333 363.698 173.333 344.237V241.237C173.333 221.776 157.57 206 138.125 206Z" fill="url(#paint10_radial_9518_275)"/>
<path d="M138.125 206H35.2083C15.7633 206 0 221.776 0 241.237V344.237C0 363.698 15.7633 379.474 35.2083 379.474H138.125C157.57 379.474 173.333 363.698 173.333 344.237V241.237C173.333 221.776 157.57 206 138.125 206Z" fill="url(#paint11_radial_9518_275)" fill-opacity="0.7"/>
<path d="M124.367 261.349H97.8468V342.296H75.476V261.349H48.9668V243.188H124.367V261.36V261.349Z" fill="white"/>
</g>
<defs>
<radialGradient id="paint0_radial_9518_275" cx="0" cy="0" r="1" gradientUnits="userSpaceOnUse" gradientTransform="translate(387.801 197.044) scale(146.016 360.71)">
<stop stop-color="#A98AFF"/>
<stop offset="0.14" stop-color="#8C75FF"/>
<stop offset="0.565" stop-color="#5F50E2"/>
<stop offset="0.9" stop-color="#3C2CB8"/>
</radialGradient>
<radialGradient id="paint1_radial_9518_275" cx="0" cy="0" r="1" gradientTransform="matrix(132.031 329.6 -333.065 133.635 52.1302 134.442)" gradientUnits="userSpaceOnUse">
<stop stop-color="#85C2FF"/>
<stop offset="0.69" stop-color="#7588FF"/>
<stop offset="1" stop-color="#6459FE"/>
</radialGradient>
<linearGradient id="paint2_linear_9518_275" x1="179.768" y1="151.79" x2="179.768" y2="412" gradientUnits="userSpaceOnUse">
<stop offset="0.801" stop-color="#6864F6" stop-opacity="0"/>
<stop offset="1" stop-color="#5149DE"/>
</linearGradient>
<radialGradient id="paint3_radial_9518_275" cx="0" cy="0" r="1" gradientTransform="matrix(-82.4399 191.339 -153.469 -66.2304 254.587 143.118)" gradientUnits="userSpaceOnUse">
<stop stop-color="#BD96FF"/>
<stop offset="0.687" stop-color="#BD96FF" stop-opacity="0"/>
</radialGradient>
<radialGradient id="paint4_radial_9518_275" cx="0" cy="0" r="1" gradientUnits="userSpaceOnUse" gradientTransform="translate(314.167 82.0856) rotate(-90) scale(108.421 136.734)">
<stop offset="0.268" stop-color="#6868F7"/>
<stop offset="1" stop-color="#3923B1"/>
</radialGradient>
<radialGradient id="paint5_radial_9518_275" cx="0" cy="0" r="1" gradientTransform="matrix(59.2609 49.8571 -72.0543 85.7836 269.393 70.9507)" gradientUnits="userSpaceOnUse">
<stop offset="0.271" stop-color="#A1D3FF"/>
<stop offset="0.813" stop-color="#A1D3FF" stop-opacity="0"/>
</radialGradient>
<radialGradient id="paint6_radial_9518_275" cx="0" cy="0" r="1" gradientTransform="matrix(68.901 -61.3477 150.369 169.156 357.309 69.0477)" gradientUnits="userSpaceOnUse">
<stop stop-color="#E3ACFD"/>
<stop offset="0.816" stop-color="#9FA2FF" stop-opacity="0"/>
</radialGradient>
<radialGradient id="paint7_radial_9518_275" cx="0" cy="0" r="1" gradientUnits="userSpaceOnUse" gradientTransform="translate(151.667 46.4693) rotate(-90) scale(130.105 164.082)">
<stop offset="0.268" stop-color="#8282FF"/>
<stop offset="1" stop-color="#3923B1"/>
</radialGradient>
<radialGradient id="paint8_radial_9518_275" cx="0" cy="0" r="1" gradientTransform="matrix(71.1126 59.829 -86.4656 102.939 97.9424 33.1018)" gradientUnits="userSpaceOnUse">
<stop offset="0.271" stop-color="#A1D3FF"/>
<stop offset="0.813" stop-color="#A1D3FF" stop-opacity="0"/>
</radialGradient>
<radialGradient id="paint9_radial_9518_275" cx="0" cy="0" r="1" gradientTransform="matrix(82.6812 -73.6172 180.442 202.987 203.437 30.817)" gradientUnits="userSpaceOnUse">
<stop stop-color="#E3ACFD"/>
<stop offset="0.816" stop-color="#9FA2FF" stop-opacity="0"/>
</radialGradient>
<radialGradient id="paint10_radial_9518_275" cx="0" cy="0" r="1" gradientTransform="matrix(173.333 173.474 -173.333 173.474 -0.00181834 205.995)" gradientUnits="userSpaceOnUse">
<stop offset="0.047" stop-color="#688EFF"/>
<stop offset="0.947" stop-color="#230F94"/>
</radialGradient>
<radialGradient id="paint11_radial_9518_275" cx="0" cy="0" r="1" gradientUnits="userSpaceOnUse" gradientTransform="translate(86.6667 310.084) rotate(90) scale(121.432 141.594)">
<stop offset="0.571" stop-color="#6965F6" stop-opacity="0"/>
<stop offset="1" stop-color="#8F8FFF"/>
</radialGradient>
<clipPath id="clip0_9518_275">
<rect width="390" height="412" fill="white"/>
</clipPath>
</defs>
</svg>
